<svg width="21" height="21" viewBox="0 0 21 21" fill="none" xmlns="http://www.w3.org/2000/svg">
<path d="M7.77849 11.4753C7.77849 11.2147 7.56715 11.0036 7.30637 11.0036H5.65887C5.3984 11.0036 5.18701 11.2147 5.18701 11.4753V13.1226C5.18701 13.3835 5.3984 13.5946 5.65887 13.5946H7.30637C7.56715 13.5946 7.77849 13.3835 7.77849 13.1226V11.4753Z" fill="#060613"/>
<path d="M11.8959 11.4753C11.8959 11.2147 11.6845 11.0036 11.4242 11.0036H9.77654C9.51607 11.0036 9.30469 11.2147 9.30469 11.4753V13.1226C9.30469 13.3835 9.51607 13.5946 9.77654 13.5946H11.4242C11.6845 13.5946 11.8959 13.3835 11.8959 13.1226V11.4753Z" fill="#060613"/>
<path d="M16.0134 11.4753C16.0134 11.2147 15.802 11.0036 15.5415 11.0036H13.894C13.6332 11.0036 13.4219 11.2147 13.4219 11.4753V13.1226C13.4219 13.3835 13.6332 13.5946 13.894 13.5946H15.5415C15.802 13.5946 16.0134 13.3835 16.0134 13.1226V11.4753Z" fill="#060613"/>
<path d="M7.77849 15.593C7.77849 15.332 7.56715 15.1211 7.30637 15.1211H5.65887C5.3984 15.1211 5.18701 15.332 5.18701 15.593V17.24C5.18701 17.5007 5.3984 17.7118 5.65887 17.7118H7.30637C7.56715 17.7118 7.77849 17.5007 7.77849 17.24V15.593Z" fill="#060613"/>
<path d="M11.8959 15.593C11.8959 15.332 11.6845 15.1211 11.4242 15.1211H9.77654C9.51607 15.1211 9.30469 15.332 9.30469 15.593V17.24C9.30469 17.5007 9.51607 17.7118 9.77654 17.7118H11.4242C11.6845 17.7118 11.8959 17.5007 11.8959 17.24V15.593Z" fill="#060613"/>
<path d="M16.0134 15.593C16.0134 15.332 15.802 15.1211 15.5417 15.1211H13.894C13.6332 15.1211 13.4219 15.332 13.4219 15.593V17.24C13.4219 17.5007 13.6332 17.7118 13.894 17.7118H15.5417C15.802 17.7118 16.0134 17.5007 16.0134 17.24V15.593Z" fill="#060613"/>
<path d="M18.9592 2.31601V4.83212C18.9592 5.96937 18.0366 6.88582 16.8995 6.88582H15.6002C14.4631 6.88582 13.5282 5.96937 13.5282 4.83212V2.30698H7.67197V4.83212C7.67197 5.96937 6.73719 6.88582 5.6002 6.88582H4.30065C3.16361 6.88582 2.24106 5.96937 2.24106 4.83212V2.31601C1.24728 2.34596 0.430664 3.16829 0.430664 4.17904V18.9246C0.430664 19.9544 1.2653 20.8001 2.29505 20.8001H18.9052C19.9334 20.8001 20.7695 19.9526 20.7695 18.9246V4.17904C20.7695 3.16829 19.953 2.34596 18.9592 2.31601ZM18.3557 18.0064C18.3557 18.4514 17.9949 18.8124 17.5497 18.8124H3.61501C3.16983 18.8124 2.80901 18.4514 2.80901 18.0064V10.3898C2.80901 9.94456 3.16978 9.58353 3.61501 9.58353H17.5497C17.9948 9.58353 18.3557 9.94456 18.3557 10.3898L18.3557 18.0064Z" fill="#060613"/>
<path d="M4.29623 5.53691H5.58142C5.97151 5.53691 6.2878 5.22109 6.2878 4.831V0.70617C6.2878 0.316036 5.97151 0 5.58142 0H4.29623C3.90609 0 3.58984 0.316036 3.58984 0.70617V4.831C3.58984 5.22109 3.90609 5.53691 4.29623 5.53691Z" fill="#060613"/>
<path d="M15.5838 5.53691H16.869C17.2588 5.53691 17.5751 5.22109 17.5751 4.831V0.70617C17.5751 0.316036 17.2589 0 16.869 0H15.5838C15.1937 0 14.8774 0.316036 14.8774 0.70617V4.831C14.8774 5.22109 15.1937 5.53691 15.5838 5.53691Z" fill="#060613"/>
</svg>
