<svg width="24" height="24" viewBox="0 0 24 24" fill="none" xmlns="http://www.w3.org/2000/svg">
<path d="M12.0001 0.0499268C5.37268 0.0499268 0 5.42261 0 12.05C0 17.994 4.32626 22.9166 9.9987 23.8698V14.5535H7.10393V11.201H9.9987V8.72893C9.9987 5.86065 11.7506 4.2976 14.3096 4.2976C15.5353 4.2976 16.5886 4.38893 16.8944 4.42915V7.42727L15.1194 7.42813C13.728 7.42813 13.4598 8.0892 13.4598 9.05961V11.1993H16.7798L16.3468 14.5518H13.4598V23.95C19.397 23.2274 24 18.1794 24 12.0466C24 5.42261 18.6273 0.0499268 12.0001 0.0499268Z" fill="#00CC53"/>
</svg>
