<svg width="120" height="156" viewBox="0 0 120 156" fill="none" xmlns="http://www.w3.org/2000/svg">
<g opacity="0.5">
<path d="M55.4351 0H64.4816V30.3783H55.4351V0Z" fill="#00E75E"/>
<path d="M12.894 13.9015L20.7292 9.35416L35.8379 35.659L28.0027 40.2063L12.894 13.9015Z" fill="#00E75E"/>
<path d="M84.0786 35.6633L99.1815 9.35511L107.016 13.9042L91.9128 40.2124L84.0786 35.6633Z" fill="#00E75E"/>
<path d="M59.9571 53.4954L53.9258 85.3193L59.9571 155.267L119.903 142.872V65.3363L59.9571 53.4954Z" fill="#0F0E2D"/>
<path d="M0.0126953 65.3362V144.176L59.9585 155.267V53.4953L0.0126953 65.3362Z" fill="#201E61"/>
<path d="M76.0356 108.947L76.0356 92.6376L104.985 86.1138L104.985 103.076L76.0356 108.947Z" fill="#2D2A88"/>
<path d="M76.0356 133.738L76.0356 117.429L104.985 110.905L104.985 127.867L76.0356 133.738Z" fill="#2D2A88"/>
<path d="M43.8765 133.738V92.4207L14.353 86.7667V128.519L43.8765 133.738Z" fill="#3A36AF"/>
<path d="M59.9535 77.6336L0 65.3265L59.9284 53.4957L119.912 65.2954L59.9535 77.6336Z" fill="#3A36AF"/>
<path d="M119.919 65.2953L59.9553 77.6335L59.9302 53.4954L119.919 65.2953Z" fill="#2D2A88"/>
</g>
<path fill-rule="evenodd" clip-rule="evenodd" d="M59.9595 78.2088L59.9606 155.581L119.919 143.228V65.9552L59.9595 78.2088ZM76.0435 109.418L76.0435 93.1642L104.999 86.6625V103.567L76.0435 109.418ZM76.0435 117.871L76.0435 134.125L104.999 128.274V111.369L76.0435 117.871Z" fill="#0F0E2D"/>
<path fill-rule="evenodd" clip-rule="evenodd" d="M0 65.9633L1.82213 66.3284L0 65.956V65.9633ZM30.3824 72.1652V90.6334L43.8718 92.9451V134.122L0 126.331V144.529L59.9586 155.582V78.2097L30.3824 72.1652Z" fill="#0F0E2D"/>
</svg>
