<svg width="161" height="45" viewBox="0 0 161 45" fill="none" xmlns="http://www.w3.org/2000/svg">
<rect width="160.286" height="44.2167" rx="4.60591" fill="#161542"/>
<path d="M47.2918 25.8177L50.3815 17.435H51.7706L54.8363 25.8177H53.4951L52.7765 23.7699H49.3516L48.6331 25.8177H47.2918ZM49.7109 22.764H52.4173L51.0641 18.9439L49.7109 22.764ZM55.9574 28.4523V19.8779H57.0951L57.2268 20.8C57.4184 20.5206 57.6819 20.2731 58.0172 20.0576C58.3525 19.842 58.7836 19.7342 59.3105 19.7342C59.8853 19.7342 60.3923 19.87 60.8314 20.1414C61.2705 20.4128 61.6138 20.7841 61.8613 21.2551C62.1167 21.7261 62.2445 22.261 62.2445 22.8598C62.2445 23.4586 62.1167 23.9935 61.8613 24.4645C61.6138 24.9275 61.2705 25.2948 60.8314 25.5662C60.3923 25.8297 59.8813 25.9614 59.2985 25.9614C58.8355 25.9614 58.4243 25.8696 58.0651 25.686C57.7138 25.5024 57.4344 25.2429 57.2268 24.9076V28.4523H55.9574ZM59.083 24.8597C59.6259 24.8597 60.0729 24.6761 60.4242 24.3088C60.7755 23.9336 60.9511 23.4466 60.9511 22.8478C60.9511 22.4566 60.8713 22.1093 60.7116 21.806C60.552 21.5026 60.3324 21.2671 60.053 21.0994C59.7736 20.9238 59.4502 20.836 59.083 20.836C58.5401 20.836 58.093 21.0236 57.7417 21.3988C57.3984 21.774 57.2268 22.257 57.2268 22.8478C57.2268 23.4466 57.3984 23.9336 57.7417 24.3088C58.093 24.6761 58.5401 24.8597 59.083 24.8597ZM63.6174 28.4523V19.8779H64.7551L64.8868 20.8C65.0784 20.5206 65.3419 20.2731 65.6772 20.0576C66.0125 19.842 66.4436 19.7342 66.9705 19.7342C67.5454 19.7342 68.0523 19.87 68.4914 20.1414C68.9305 20.4128 69.2738 20.7841 69.5213 21.2551C69.7768 21.7261 69.9045 22.261 69.9045 22.8598C69.9045 23.4586 69.7768 23.9935 69.5213 24.4645C69.2738 24.9275 68.9305 25.2948 68.4914 25.5662C68.0523 25.8297 67.5414 25.9614 66.9586 25.9614C66.4955 25.9614 66.0844 25.8696 65.7251 25.686C65.3738 25.5024 65.0944 25.2429 64.8868 24.9076V28.4523H63.6174ZM66.743 24.8597C67.2859 24.8597 67.733 24.6761 68.0843 24.3088C68.4355 23.9336 68.6112 23.4466 68.6112 22.8478C68.6112 22.4566 68.5313 22.1093 68.3717 21.806C68.212 21.5026 67.9924 21.2671 67.713 21.0994C67.4336 20.9238 67.1103 20.836 66.743 20.836C66.2001 20.836 65.753 21.0236 65.4018 21.3988C65.0585 21.774 64.8868 22.257 64.8868 22.8478C64.8868 23.4466 65.0585 23.9336 65.4018 24.3088C65.753 24.6761 66.2001 24.8597 66.743 24.8597ZM71.2775 25.8177V17.1955H72.5469V25.8177H71.2775ZM74.8489 28.4523L76.274 25.3267H75.9267L73.5795 19.8779H74.9567L76.777 24.2729L78.6811 19.8779H80.0223L76.1902 28.4523H74.8489ZM84.1311 25.8177V17.435H85.4004L89.6038 23.746V17.435H90.8732V25.8177H89.6038L85.4004 19.5067V25.8177H84.1311ZM95.305 25.9614C94.7382 25.9614 94.2272 25.8337 93.7722 25.5782C93.3251 25.3148 92.9698 24.9515 92.7064 24.4885C92.4429 24.0174 92.3112 23.4705 92.3112 22.8478C92.3112 22.2251 92.4429 21.6822 92.7064 21.2192C92.9778 20.7481 93.3411 20.3849 93.7961 20.1294C94.2512 19.866 94.7581 19.7342 95.317 19.7342C95.8838 19.7342 96.3908 19.866 96.8379 20.1294C97.2929 20.3849 97.6522 20.7481 97.9156 21.2192C98.1871 21.6822 98.3228 22.2251 98.3228 22.8478C98.3228 23.4705 98.1871 24.0174 97.9156 24.4885C97.6522 24.9515 97.2929 25.3148 96.8379 25.5782C96.3828 25.8337 95.8719 25.9614 95.305 25.9614ZM95.305 24.8717C95.6084 24.8717 95.8878 24.7958 96.1433 24.6441C96.4068 24.4924 96.6183 24.2689 96.778 23.9735C96.9377 23.6701 97.0175 23.2949 97.0175 22.8478C97.0175 22.4007 96.9377 22.0295 96.778 21.7341C96.6263 21.4307 96.4187 21.2032 96.1553 21.0515C95.8998 20.8998 95.6204 20.824 95.317 20.824C95.0136 20.824 94.7302 20.8998 94.4667 21.0515C94.2113 21.2032 94.0037 21.4307 93.844 21.7341C93.6843 22.0295 93.6045 22.4007 93.6045 22.8478C93.6045 23.2949 93.6843 23.6701 93.844 23.9735C94.0037 24.2689 94.2113 24.4924 94.4667 24.6441C94.7222 24.7958 95.0016 24.8717 95.305 24.8717ZM100.659 25.8177L98.9105 19.8779H100.18L101.33 24.3567L102.623 19.8779H104.036L105.329 24.3567L106.479 19.8779H107.748L106 25.8177H104.695L103.329 21.1473L101.964 25.8177H100.659Z" fill="white"/>
</svg>
