<svg width="160" height="56" viewBox="0 0 160 56" fill="none" xmlns="http://www.w3.org/2000/svg">
<rect width="160" height="56" rx="5" fill="white"/>
<path d="M55.724 32.1437C55.1092 32.1437 54.5704 32.0359 54.1073 31.8204C53.6443 31.6048 53.281 31.2974 53.0176 30.8983C52.7621 30.4991 52.6303 30.0241 52.6224 29.4732H53.9636C53.9716 29.9203 54.1273 30.2995 54.4306 30.6109C54.734 30.9222 55.1611 31.0779 55.712 31.0779C56.199 31.0779 56.5782 30.9621 56.8497 30.7306C57.1291 30.4911 57.2688 30.1877 57.2688 29.8205C57.2688 29.5251 57.2009 29.2856 57.0652 29.102C56.9375 28.9183 56.7579 28.7667 56.5263 28.6469C56.3028 28.5271 56.0433 28.4194 55.7479 28.3236C55.4525 28.2278 55.1412 28.124 54.8139 28.0122C54.1672 27.7966 53.6802 27.5172 53.3529 27.1739C53.0335 26.8306 52.8738 26.3796 52.8738 25.8207C52.8659 25.3497 52.9736 24.9385 53.1972 24.5872C53.4287 24.236 53.748 23.9645 54.1552 23.7729C54.5704 23.5733 55.0534 23.4735 55.6042 23.4735C56.1471 23.4735 56.6221 23.5733 57.0293 23.7729C57.4444 23.9725 57.7678 24.2519 57.9993 24.6112C58.2308 24.9625 58.3506 25.3736 58.3586 25.8447H57.0173C57.0173 25.6291 56.9614 25.4255 56.8497 25.2339C56.7379 25.0343 56.5742 24.8707 56.3587 24.7429C56.1431 24.6152 55.8797 24.5513 55.5683 24.5513C55.1691 24.5433 54.8378 24.6431 54.5743 24.8507C54.3189 25.0583 54.1911 25.3457 54.1911 25.7129C54.1911 26.0403 54.2869 26.2917 54.4785 26.4674C54.6702 26.643 54.9336 26.7907 55.2689 26.9105C55.6042 27.0222 55.9874 27.154 56.4186 27.3057C56.8337 27.4414 57.2049 27.605 57.5323 27.7966C57.8596 27.9883 58.1191 28.2397 58.3107 28.5511C58.5103 28.8625 58.61 29.2576 58.61 29.7367C58.61 30.1598 58.5023 30.555 58.2867 30.9222C58.0712 31.2815 57.7478 31.5769 57.3167 31.8084C56.8856 32.0319 56.3547 32.1437 55.724 32.1437ZM61.9618 32.1437C61.4589 32.1437 61.0437 32.0599 60.7164 31.8922C60.3891 31.7246 60.1456 31.505 59.9859 31.2336C59.8262 30.9542 59.7464 30.6508 59.7464 30.3234C59.7464 29.7486 59.9699 29.2936 60.417 28.9583C60.8641 28.6229 61.5028 28.4553 62.3331 28.4553H63.8899V28.3475C63.8899 27.8845 63.7621 27.5372 63.5067 27.3057C63.2592 27.0741 62.9358 26.9584 62.5367 26.9584C62.1854 26.9584 61.878 27.0462 61.6146 27.2218C61.3591 27.3895 61.2034 27.641 61.1475 27.9763H59.8781C59.918 27.5452 60.0617 27.1779 60.3092 26.8745C60.5647 26.5632 60.8841 26.3277 61.2673 26.168C61.6585 26.0003 62.0856 25.9165 62.5486 25.9165C63.3789 25.9165 64.0216 26.1361 64.4767 26.5752C64.9317 27.0063 65.1593 27.5971 65.1593 28.3475V32H64.0575L63.9498 30.9821C63.7821 31.3094 63.5386 31.5849 63.2193 31.8084C62.8999 32.0319 62.4808 32.1437 61.9618 32.1437ZM62.2133 31.1138C62.5566 31.1138 62.844 31.034 63.0756 30.8743C63.3151 30.7067 63.4987 30.4871 63.6264 30.2157C63.7621 29.9442 63.846 29.6448 63.8779 29.3175H62.4648C61.9618 29.3175 61.6026 29.4053 61.387 29.581C61.1795 29.7566 61.0757 29.9762 61.0757 30.2396C61.0757 30.5111 61.1755 30.7266 61.375 30.8863C61.5826 31.038 61.862 31.1138 62.2133 31.1138ZM68.1051 32L65.8777 26.0602H67.207L68.8596 30.7905L70.5122 26.0602H71.8295L69.614 32H68.1051ZM75.3468 32.1437C74.764 32.1437 74.2451 32.016 73.79 31.7605C73.343 31.497 72.9917 31.1338 72.7362 30.6707C72.4807 30.2077 72.353 29.6688 72.353 29.0541C72.353 28.4313 72.4767 27.8845 72.7242 27.4134C72.9797 26.9424 73.331 26.5752 73.7781 26.3117C74.2331 26.0482 74.76 25.9165 75.3588 25.9165C75.9416 25.9165 76.4486 26.0482 76.8797 26.3117C77.3108 26.5672 77.6461 26.9105 77.8856 27.3416C78.1251 27.7727 78.2449 28.2477 78.2449 28.7667C78.2449 28.8465 78.2409 28.9343 78.2329 29.0301C78.2329 29.1179 78.2289 29.2177 78.2209 29.3295H73.5984C73.6384 29.9043 73.826 30.3434 74.1613 30.6468C74.5046 30.9422 74.8998 31.0899 75.3468 31.0899C75.7061 31.0899 76.0055 31.01 76.245 30.8504C76.4925 30.6827 76.6761 30.4592 76.7959 30.1797H78.0653C77.9056 30.7386 77.5862 31.2056 77.1072 31.5809C76.6362 31.9561 76.0494 32.1437 75.3468 32.1437ZM75.3468 26.9584C74.9237 26.9584 74.5485 27.0861 74.2212 27.3416C73.8938 27.5891 73.6942 27.9643 73.6224 28.4673H76.9755C76.9515 28.0042 76.7879 27.637 76.4845 27.3655C76.1811 27.0941 75.8019 26.9584 75.3468 26.9584ZM82.8786 32V27.126H82.0283V26.0602H82.8786V25.198C82.8786 24.5513 83.0383 24.0883 83.3576 23.8088C83.6849 23.5214 84.144 23.3777 84.7348 23.3777H85.3575V24.4555H84.9264C84.647 24.4555 84.4474 24.5154 84.3276 24.6351C84.2079 24.7469 84.148 24.9385 84.148 25.21V26.0602H85.5132V27.126H84.148V32H82.8786ZM89.2635 32.1437C88.6967 32.1437 88.1857 32.016 87.7307 31.7605C87.2836 31.497 86.9283 31.1338 86.6649 30.6707C86.4014 30.1997 86.2697 29.6528 86.2697 29.0301C86.2697 28.4074 86.4014 27.8645 86.6649 27.4015C86.9363 26.9304 87.2996 26.5672 87.7546 26.3117C88.2097 26.0482 88.7167 25.9165 89.2755 25.9165C89.8423 25.9165 90.3493 26.0482 90.7964 26.3117C91.2514 26.5672 91.6107 26.9304 91.8742 27.4015C92.1456 27.8645 92.2813 28.4074 92.2813 29.0301C92.2813 29.6528 92.1456 30.1997 91.8742 30.6707C91.6107 31.1338 91.2514 31.497 90.7964 31.7605C90.3413 32.016 89.8304 32.1437 89.2635 32.1437ZM89.2635 31.0539C89.5669 31.0539 89.8463 30.9781 90.1018 30.8264C90.3653 30.6747 90.5768 30.4512 90.7365 30.1558C90.8962 29.8524 90.976 29.4772 90.976 29.0301C90.976 28.583 90.8962 28.2118 90.7365 27.9164C90.5848 27.613 90.3772 27.3855 90.1138 27.2338C89.8583 27.0821 89.5789 27.0063 89.2755 27.0063C88.9721 27.0063 88.6887 27.0821 88.4253 27.2338C88.1698 27.3855 87.9622 27.613 87.8025 27.9164C87.6429 28.2118 87.563 28.583 87.563 29.0301C87.563 29.4772 87.6429 29.8524 87.8025 30.1558C87.9622 30.4512 88.1698 30.6747 88.4253 30.8264C88.6807 30.9781 88.9602 31.0539 89.2635 31.0539ZM93.6541 32V26.0602H94.7918L94.8995 27.1859C95.1071 26.7947 95.3945 26.4873 95.7618 26.2638C96.137 26.0323 96.5881 25.9165 97.115 25.9165V27.2458H96.7677C96.4164 27.2458 96.1011 27.3057 95.8216 27.4254C95.5502 27.5372 95.3306 27.7328 95.163 28.0122C95.0033 28.2836 94.9235 28.6629 94.9235 29.1499V32H93.6541ZM101.268 32V23.6172H102.538V30.9941H106.346V32H101.268ZM109.676 32.1437C109.173 32.1437 108.758 32.0599 108.431 31.8922C108.103 31.7246 107.86 31.505 107.7 31.2336C107.541 30.9542 107.461 30.6508 107.461 30.3234C107.461 29.7486 107.684 29.2936 108.131 28.9583C108.578 28.6229 109.217 28.4553 110.047 28.4553H111.604V28.3475C111.604 27.8845 111.477 27.5372 111.221 27.3057C110.974 27.0741 110.65 26.9584 110.251 26.9584C109.9 26.9584 109.592 27.0462 109.329 27.2218C109.073 27.3895 108.918 27.641 108.862 27.9763H107.592C107.632 27.5452 107.776 27.1779 108.024 26.8745C108.279 26.5632 108.598 26.3277 108.982 26.168C109.373 26.0003 109.8 25.9165 110.263 25.9165C111.093 25.9165 111.736 26.1361 112.191 26.5752C112.646 27.0063 112.874 27.5971 112.874 28.3475V32H111.772L111.664 30.9821C111.496 31.3094 111.253 31.5849 110.934 31.8084C110.614 32.0319 110.195 32.1437 109.676 32.1437ZM109.928 31.1138C110.271 31.1138 110.558 31.034 110.79 30.8743C111.029 30.7067 111.213 30.4871 111.341 30.2157C111.477 29.9442 111.56 29.6448 111.592 29.3175H110.179C109.676 29.3175 109.317 29.4053 109.101 29.581C108.894 29.7566 108.79 29.9762 108.79 30.2396C108.79 30.5111 108.89 30.7266 109.089 30.8863C109.297 31.038 109.576 31.1138 109.928 31.1138ZM116.728 32C116.145 32 115.682 31.8603 115.338 31.5809C114.995 31.2935 114.824 30.7865 114.824 30.06V27.126H113.806V26.0602H114.824L114.979 24.5513H116.093V26.0602H117.769V27.126H116.093V30.06C116.093 30.3873 116.161 30.6148 116.297 30.7426C116.44 30.8623 116.684 30.9222 117.027 30.9222H117.71V32H116.728ZM121.705 32.1437C121.122 32.1437 120.603 32.016 120.148 31.7605C119.701 31.497 119.349 31.1338 119.094 30.6707C118.839 30.2077 118.711 29.6688 118.711 29.0541C118.711 28.4313 118.835 27.8845 119.082 27.4134C119.337 26.9424 119.689 26.5752 120.136 26.3117C120.591 26.0482 121.118 25.9165 121.717 25.9165C122.299 25.9165 122.806 26.0482 123.237 26.3117C123.669 26.5672 124.004 26.9105 124.243 27.3416C124.483 27.7727 124.603 28.2477 124.603 28.7667C124.603 28.8465 124.599 28.9343 124.591 29.0301C124.591 29.1179 124.587 29.2177 124.579 29.3295H119.956C119.996 29.9043 120.184 30.3434 120.519 30.6468C120.862 30.9422 121.258 31.0899 121.705 31.0899C122.064 31.0899 122.363 31.01 122.603 30.8504C122.85 30.6827 123.034 30.4592 123.154 30.1797H124.423C124.263 30.7386 123.944 31.2056 123.465 31.5809C122.994 31.9561 122.407 32.1437 121.705 32.1437ZM121.705 26.9584C121.281 26.9584 120.906 27.0861 120.579 27.3416C120.252 27.5891 120.052 27.9643 119.98 28.4673H123.333C123.309 28.0042 123.146 27.637 122.842 27.3655C122.539 27.0941 122.16 26.9584 121.705 26.9584ZM125.92 32V26.0602H127.057L127.165 27.1859C127.373 26.7947 127.66 26.4873 128.027 26.2638C128.403 26.0323 128.854 25.9165 129.381 25.9165V27.2458H129.033C128.682 27.2458 128.367 27.3057 128.087 27.4254C127.816 27.5372 127.596 27.7328 127.429 28.0122C127.269 28.2836 127.189 28.6629 127.189 29.1499V32H125.92Z" fill="#00B249"/>
<g clip-path="url(#clip0_907_5298)">
<path d="M41.6663 21.8424H33.1147C32.4182 21.8424 31.8066 22.4153 31.8066 23.0935V35.7441C31.8066 35.9711 31.8698 36.1603 31.9717 36.3065C32.0934 36.4812 32.2895 36.5814 32.4998 36.5813C32.6986 36.5813 32.9102 36.4928 33.1057 36.3259L36.9317 33.0774C37.0499 32.9764 37.2196 32.9186 37.3961 32.9186C37.5725 32.9186 37.7419 32.9764 37.8604 33.0777L41.6736 36.3254C41.8698 36.4928 42.0669 36.5814 42.2653 36.5814C42.6009 36.5814 42.928 36.3225 42.928 35.7441V23.0935C42.928 22.4153 42.3628 21.8424 41.6663 21.8424Z" fill="#00B249"/>
</g>
<defs>
<clipPath id="clip0_907_5298">
<rect width="14.7389" height="14.7389" fill="white" transform="translate(30 21.8424)"/>
</clipPath>
</defs>
</svg>
