<svg width="160" height="56" viewBox="0 0 160 56" fill="none" xmlns="http://www.w3.org/2000/svg">
<rect width="160" height="56" rx="5" fill="#FCE6E6"/>
<path d="M70.065 33V22.5H73.68C74.51 22.5 75.19 22.64 75.72 22.92C76.26 23.2 76.66 23.58 76.92 24.06C77.18 24.53 77.31 25.055 77.31 25.635C77.31 26.285 77.135 26.875 76.785 27.405C76.445 27.935 75.91 28.315 75.18 28.545L77.415 33H75.57L73.53 28.77H71.655V33H70.065ZM71.655 27.57H73.59C74.31 27.57 74.835 27.395 75.165 27.045C75.505 26.695 75.675 26.24 75.675 25.68C75.675 25.12 75.51 24.675 75.18 24.345C74.85 24.005 74.315 23.835 73.575 23.835H71.655V27.57ZM82.1569 33.18C81.4269 33.18 80.7769 33.02 80.2069 32.7C79.6469 32.37 79.2069 31.915 78.8869 31.335C78.5669 30.755 78.4069 30.08 78.4069 29.31C78.4069 28.53 78.5619 27.845 78.8719 27.255C79.1919 26.665 79.6319 26.205 80.1919 25.875C80.7619 25.545 81.4219 25.38 82.1719 25.38C82.9019 25.38 83.5369 25.545 84.0769 25.875C84.6169 26.195 85.0369 26.625 85.3369 27.165C85.6369 27.705 85.7869 28.3 85.7869 28.95C85.7869 29.05 85.7819 29.16 85.7719 29.28C85.7719 29.39 85.7669 29.515 85.7569 29.655H79.9669C80.0169 30.375 80.2519 30.925 80.6719 31.305C81.1019 31.675 81.5969 31.86 82.1569 31.86C82.6069 31.86 82.9819 31.76 83.2819 31.56C83.5919 31.35 83.8219 31.07 83.9719 30.72H85.5619C85.3619 31.42 84.9619 32.005 84.3619 32.475C83.7719 32.945 83.0369 33.18 82.1569 33.18ZM82.1569 26.685C81.6269 26.685 81.1569 26.845 80.7469 27.165C80.3369 27.475 80.0869 27.945 79.9969 28.575H84.1969C84.1669 27.995 83.9619 27.535 83.5819 27.195C83.2019 26.855 82.7269 26.685 82.1569 26.685ZM88.3816 24.15C88.0816 24.15 87.8316 24.06 87.6316 23.88C87.4416 23.69 87.3466 23.455 87.3466 23.175C87.3466 22.895 87.4416 22.665 87.6316 22.485C87.8316 22.295 88.0816 22.2 88.3816 22.2C88.6816 22.2 88.9266 22.295 89.1166 22.485C89.3166 22.665 89.4166 22.895 89.4166 23.175C89.4166 23.455 89.3166 23.69 89.1166 23.88C88.9266 24.06 88.6816 24.15 88.3816 24.15ZM86.0116 36.3V34.95H86.5966C86.9466 34.95 87.1966 34.875 87.3466 34.725C87.4966 34.585 87.5716 34.345 87.5716 34.005V25.56H89.1616V34.02C89.1616 34.83 88.9566 35.41 88.5466 35.76C88.1366 36.12 87.5666 36.3 86.8366 36.3H86.0116ZM94.7399 33.18C94.0099 33.18 93.3599 33.02 92.7899 32.7C92.2299 32.37 91.7899 31.915 91.4699 31.335C91.1499 30.755 90.9899 30.08 90.9899 29.31C90.9899 28.53 91.1449 27.845 91.4549 27.255C91.7749 26.665 92.2149 26.205 92.7749 25.875C93.3449 25.545 94.0049 25.38 94.7549 25.38C95.4849 25.38 96.1199 25.545 96.6599 25.875C97.1999 26.195 97.6199 26.625 97.9199 27.165C98.2199 27.705 98.3699 28.3 98.3699 28.95C98.3699 29.05 98.3649 29.16 98.3549 29.28C98.3549 29.39 98.3499 29.515 98.3399 29.655H92.5499C92.5999 30.375 92.8349 30.925 93.2549 31.305C93.6849 31.675 94.1799 31.86 94.7399 31.86C95.1899 31.86 95.5649 31.76 95.8649 31.56C96.1749 31.35 96.4049 31.07 96.5549 30.72H98.1449C97.9449 31.42 97.5449 32.005 96.9449 32.475C96.3549 32.945 95.6199 33.18 94.7399 33.18ZM94.7399 26.685C94.2099 26.685 93.7399 26.845 93.3299 27.165C92.9199 27.475 92.6699 27.945 92.5799 28.575H96.7799C96.7499 27.995 96.5449 27.535 96.1649 27.195C95.7849 26.855 95.3099 26.685 94.7399 26.685ZM103.545 33.18C102.815 33.18 102.16 33.015 101.58 32.685C101.01 32.355 100.56 31.9 100.23 31.32C99.9096 30.73 99.7496 30.05 99.7496 29.28C99.7496 28.51 99.9096 27.835 100.23 27.255C100.56 26.665 101.01 26.205 101.58 25.875C102.16 25.545 102.815 25.38 103.545 25.38C104.465 25.38 105.235 25.62 105.855 26.1C106.485 26.58 106.89 27.23 107.07 28.05H105.405C105.305 27.64 105.085 27.32 104.745 27.09C104.405 26.86 104.005 26.745 103.545 26.745C103.155 26.745 102.795 26.845 102.465 27.045C102.135 27.235 101.87 27.52 101.67 27.9C101.47 28.27 101.37 28.73 101.37 29.28C101.37 29.83 101.47 30.295 101.67 30.675C101.87 31.045 102.135 31.33 102.465 31.53C102.795 31.73 103.155 31.83 103.545 31.83C104.005 31.83 104.405 31.715 104.745 31.485C105.085 31.255 105.305 30.93 105.405 30.51H107.07C106.9 31.31 106.5 31.955 105.87 32.445C105.24 32.935 104.465 33.18 103.545 33.18ZM111.768 33C111.038 33 110.458 32.825 110.028 32.475C109.598 32.115 109.383 31.48 109.383 30.57V26.895H108.108V25.56H109.383L109.578 23.67H110.973V25.56H113.073V26.895H110.973V30.57C110.973 30.98 111.058 31.265 111.228 31.425C111.408 31.575 111.713 31.65 112.143 31.65H112.998V33H111.768Z" fill="#DF0202"/>
<g clip-path="url(#clip0_907_5092)">
<path d="M52.0994 27.0103L56.772 22.3376C57.0761 22.0336 57.0761 21.5422 56.772 21.2383C56.468 20.9343 55.9766 20.9343 55.6727 21.2383L50.9999 25.911L46.3274 21.2383C46.0233 20.9343 45.532 20.9343 45.2281 21.2383C44.924 21.5422 44.924 22.0336 45.2281 22.3376L49.9006 27.0103L45.2281 31.683C44.924 31.9869 44.924 32.4784 45.2281 32.7823C45.3795 32.9339 45.5787 33.0101 45.7777 33.0101C45.9767 33.0101 46.1758 32.9339 46.3274 32.7823L50.9999 28.1096L55.6727 32.7823C55.8243 32.9339 56.0233 33.0101 56.2223 33.0101C56.4213 33.0101 56.6204 32.9339 56.772 32.7823C57.0761 32.4784 57.0761 31.9869 56.772 31.683L52.0994 27.0103Z" fill="#DF0202"/>
</g>
<defs>
<clipPath id="clip0_907_5092">
<rect width="12" height="12" fill="white" transform="translate(45 21)"/>
</clipPath>
</defs>
</svg>
