<svg width="160" height="56" viewBox="0 0 160 56" fill="none" xmlns="http://www.w3.org/2000/svg">
<rect width="160" height="56" rx="5" fill="#00CC53"/>
<path d="M68.39 33L72.26 22.5H74L77.84 33H76.16L75.26 30.435H70.97L70.07 33H68.39ZM71.42 29.175H74.81L73.115 24.39L71.42 29.175ZM82.3884 33.18C81.6584 33.18 81.0034 33.015 80.4234 32.685C79.8534 32.355 79.4034 31.9 79.0734 31.32C78.7534 30.73 78.5934 30.05 78.5934 29.28C78.5934 28.51 78.7534 27.835 79.0734 27.255C79.4034 26.665 79.8534 26.205 80.4234 25.875C81.0034 25.545 81.6584 25.38 82.3884 25.38C83.3084 25.38 84.0784 25.62 84.6984 26.1C85.3284 26.58 85.7334 27.23 85.9134 28.05H84.2484C84.1484 27.64 83.9284 27.32 83.5884 27.09C83.2484 26.86 82.8484 26.745 82.3884 26.745C81.9984 26.745 81.6384 26.845 81.3084 27.045C80.9784 27.235 80.7134 27.52 80.5134 27.9C80.3134 28.27 80.2134 28.73 80.2134 29.28C80.2134 29.83 80.3134 30.295 80.5134 30.675C80.7134 31.045 80.9784 31.33 81.3084 31.53C81.6384 31.73 81.9984 31.83 82.3884 31.83C82.8484 31.83 83.2484 31.715 83.5884 31.485C83.9284 31.255 84.1484 30.93 84.2484 30.51H85.9134C85.7434 31.31 85.3434 31.955 84.7134 32.445C84.0834 32.935 83.3084 33.18 82.3884 33.18ZM91.1628 33.18C90.4328 33.18 89.7778 33.015 89.1978 32.685C88.6278 32.355 88.1778 31.9 87.8478 31.32C87.5278 30.73 87.3678 30.05 87.3678 29.28C87.3678 28.51 87.5278 27.835 87.8478 27.255C88.1778 26.665 88.6278 26.205 89.1978 25.875C89.7778 25.545 90.4328 25.38 91.1628 25.38C92.0828 25.38 92.8528 25.62 93.4728 26.1C94.1028 26.58 94.5078 27.23 94.6878 28.05H93.0228C92.9228 27.64 92.7028 27.32 92.3628 27.09C92.0228 26.86 91.6228 26.745 91.1628 26.745C90.7728 26.745 90.4128 26.845 90.0828 27.045C89.7528 27.235 89.4878 27.52 89.2878 27.9C89.0878 28.27 88.9878 28.73 88.9878 29.28C88.9878 29.83 89.0878 30.295 89.2878 30.675C89.4878 31.045 89.7528 31.33 90.0828 31.53C90.4128 31.73 90.7728 31.83 91.1628 31.83C91.6228 31.83 92.0228 31.715 92.3628 31.485C92.7028 31.255 92.9228 30.93 93.0228 30.51H94.6878C94.5178 31.31 94.1178 31.955 93.4878 32.445C92.8578 32.935 92.0828 33.18 91.1628 33.18ZM99.8922 33.18C99.1622 33.18 98.5122 33.02 97.9422 32.7C97.3822 32.37 96.9422 31.915 96.6222 31.335C96.3022 30.755 96.1422 30.08 96.1422 29.31C96.1422 28.53 96.2972 27.845 96.6072 27.255C96.9272 26.665 97.3672 26.205 97.9272 25.875C98.4972 25.545 99.1572 25.38 99.9072 25.38C100.637 25.38 101.272 25.545 101.812 25.875C102.352 26.195 102.772 26.625 103.072 27.165C103.372 27.705 103.522 28.3 103.522 28.95C103.522 29.05 103.517 29.16 103.507 29.28C103.507 29.39 103.502 29.515 103.492 29.655H97.7022C97.7522 30.375 97.9872 30.925 98.4072 31.305C98.8372 31.675 99.3322 31.86 99.8922 31.86C100.342 31.86 100.717 31.76 101.017 31.56C101.327 31.35 101.557 31.07 101.707 30.72H103.297C103.097 31.42 102.697 32.005 102.097 32.475C101.507 32.945 100.772 33.18 99.8922 33.18ZM99.8922 26.685C99.3622 26.685 98.8922 26.845 98.4822 27.165C98.0722 27.475 97.8222 27.945 97.7322 28.575H101.932C101.902 27.995 101.697 27.535 101.317 27.195C100.937 26.855 100.462 26.685 99.8922 26.685ZM105.172 36.3V25.56H106.597L106.762 26.715C107.002 26.365 107.332 26.055 107.752 25.785C108.172 25.515 108.712 25.38 109.372 25.38C110.092 25.38 110.727 25.55 111.277 25.89C111.827 26.23 112.257 26.695 112.567 27.285C112.887 27.875 113.047 28.545 113.047 29.295C113.047 30.045 112.887 30.715 112.567 31.305C112.257 31.885 111.827 32.345 111.277 32.685C110.727 33.015 110.087 33.18 109.357 33.18C108.777 33.18 108.262 33.065 107.812 32.835C107.372 32.605 107.022 32.28 106.762 31.86V36.3H105.172ZM109.087 31.8C109.767 31.8 110.327 31.57 110.767 31.11C111.207 30.64 111.427 30.03 111.427 29.28C111.427 28.79 111.327 28.355 111.127 27.975C110.927 27.595 110.652 27.3 110.302 27.09C109.952 26.87 109.547 26.76 109.087 26.76C108.407 26.76 107.847 26.995 107.407 27.465C106.977 27.935 106.762 28.54 106.762 29.28C106.762 30.03 106.977 30.64 107.407 31.11C107.847 31.57 108.407 31.8 109.087 31.8ZM117.594 33C116.864 33 116.284 32.825 115.854 32.475C115.424 32.115 115.209 31.48 115.209 30.57V26.895H113.934V25.56H115.209L115.404 23.67H116.799V25.56H118.899V26.895H116.799V30.57C116.799 30.98 116.884 31.265 117.054 31.425C117.234 31.575 117.539 31.65 117.969 31.65H118.824V33H117.594Z" fill="white"/>
<path d="M46.4704 32.7477C46.3457 32.873 46.1757 32.943 45.999 32.943C45.8224 32.943 45.6524 32.873 45.5277 32.7477L41.7637 28.983C41.373 28.5924 41.373 27.959 41.7637 27.569L42.235 27.0977C42.6257 26.707 43.2584 26.707 43.649 27.0977L45.999 29.4477L52.349 23.0977C52.7397 22.707 53.373 22.707 53.763 23.0977L54.2344 23.569C54.625 23.9597 54.625 24.593 54.2344 24.983L46.4704 32.7477Z" fill="white"/>
</svg>
