<svg width="38" height="38" viewBox="0 0 38 38" fill="none" xmlns="http://www.w3.org/2000/svg">
<path fill-rule="evenodd" clip-rule="evenodd" d="M0 19.0748C0 26.1957 4.39417 33.0288 10.1639 35.9846C11.9598 36.8868 14.6345 38 17.2519 38V23.7389C16.4877 23.9308 15.6088 25.1209 15.0548 25.6967C13.8512 26.9059 13.6601 27.5777 12.1317 27.5777C11.2147 27.5777 10.546 26.7907 10.546 25.6583C10.546 24.1995 13.6028 22.165 14.367 20.9942C10.8708 20.9942 7.83308 21.8003 7.83308 18.9212C7.83308 18.3646 8.13876 17.8655 8.46355 17.6352C9.18954 17.0978 13.087 17.3089 14.367 17.3089C14.2142 16.7139 12.8386 15.5239 12.3419 15.0248C11.7305 14.4298 10.546 13.5469 10.546 12.4912C10.546 11.1477 11.272 10.5718 12.4565 10.5718C13.5455 10.5718 14.9975 12.4145 16.0101 13.4125C16.4113 13.8348 16.6596 14.2571 17.2519 14.4298C17.2519 12.1841 16.6214 9.61215 19.1624 9.61215C20.0603 9.61215 20.6908 10.3031 20.8627 11.1093C21.0347 11.877 20.9201 13.5661 20.9201 14.4298C22.4485 13.3934 23.8049 10.5718 25.8683 10.5718C27.1292 10.5718 27.4731 11.6083 27.4731 12.664C27.4731 13.5661 26.2122 14.4874 25.6772 15.0248L24.6264 16.0613C24.2252 16.4644 23.7858 16.7139 23.633 17.3089C24.6647 17.3089 28.8869 17.0594 29.5938 17.5968C30.8356 18.5373 30.6254 20.9558 28.1036 21.0134C26.6325 21.0325 25.1232 20.9942 23.633 20.9942C25.1805 23.3166 27.4731 23.6429 27.4731 26.1381C27.4731 27.5393 26.2122 27.5777 25.3906 27.5777C24.1488 27.5777 22.4103 24.737 20.9201 23.7389V38C23.5184 38 25.9256 36.9251 27.7406 36.023C33.5676 33.1247 38 26.426 38 19.8809C38 14.8905 36.7009 10.1496 33.4148 6.67547C32.0774 5.27431 31.6571 4.6793 29.7275 3.33572C17.3283 -5.32075 0 3.91154 0 19.0748Z" fill="#1AA657"/>
</svg>
