<svg width="47" height="47" viewBox="0 0 47 47" fill="none" xmlns="http://www.w3.org/2000/svg">
<circle cx="23.5" cy="23.5" r="23.5" fill="#E0ECAC"/>
<path fill-rule="evenodd" clip-rule="evenodd" d="M19.7 15.3762C20.4164 15.3762 21.1328 15.4503 21.8491 15.5986L20.9845 17.9701C20.5893 17.9206 20.1693 17.8959 19.7494 17.8959C18.6871 17.8959 17.6743 18.0689 16.7109 18.4147L16.3156 15.895C17.3779 15.5491 18.5142 15.3762 19.7 15.3762ZM18.366 31.1368C17.9955 30.4945 17.699 29.8276 17.4767 29.1606L19.9717 28.7159C20.1199 29.0865 20.2928 29.457 20.5152 29.8029C21.0339 30.7416 21.7009 31.5321 22.4667 32.1744L20.5152 33.7801C19.6753 33.039 18.9589 32.1497 18.366 31.1368ZM38.6967 26.962C38.6226 27.5055 38.5238 28.0242 38.4002 28.543L37.3133 28.0736C37.4368 27.629 37.5603 27.1843 37.6344 26.7397L38.6967 26.962ZM37.2145 31.285C36.8934 31.8532 36.4981 32.372 36.0534 32.866L35.0159 31.7544C35.4112 31.3839 35.757 30.9639 36.0781 30.5192L37.2145 31.285ZM34.1513 34.5706C33.8796 34.7682 33.6078 34.9658 33.3114 35.1387C32.7926 35.4352 32.2492 35.6822 31.7057 35.8798L31.2116 34.0271C31.8539 33.8295 32.5209 33.5577 33.1385 33.1872C33.2373 33.1378 33.3114 33.0884 33.4102 33.039L34.1513 34.5706ZM29.7294 36.4233C28.5931 36.6209 27.4321 36.6456 26.2957 36.4727L27.0121 34.2988C27.9261 34.4717 28.8895 34.4717 29.853 34.3482L29.7294 36.4233ZM25.0606 36.2257L25.9993 34.0765C24.937 33.7801 23.9242 33.286 23.0349 32.619L21.3304 34.447C22.442 35.287 23.7266 35.8798 25.0606 36.2257ZM13.1289 35.0646C12.709 34.7435 12.289 34.3976 11.9185 34.0024L12.8572 33.3107C13.1783 33.6565 13.4995 33.9777 13.87 34.2741L13.1289 35.0646ZM10.1152 31.6309C9.81872 31.0627 9.54699 30.4451 9.32466 29.8276L10.8068 29.4817C10.9551 30.0005 11.128 30.5192 11.3503 31.0133L10.1152 31.6309ZM8.80589 27.3325C8.75648 26.9867 8.75648 26.6656 8.75648 26.3197C8.75648 25.7021 8.80589 25.134 8.9047 24.5411L10.7574 25.0352C10.5845 25.7021 10.5104 26.4185 10.5104 27.1349V27.4314L8.80589 27.3325ZM9.42347 22.5648C9.81872 21.4779 10.3869 20.4651 11.0786 19.5758L12.6102 21.2556C12.0173 21.9967 11.5232 22.8119 11.1527 23.7259L9.42347 22.5648ZM11.9185 18.6123L13.3019 20.5145C14.0924 19.7487 15.0311 19.1064 16.0439 18.6617L15.3275 16.2902C14.043 16.8337 12.8819 17.6242 11.9185 18.6123ZM32.6691 24.3929C32.2986 25.0352 31.8786 25.628 31.4093 26.1468L29.7789 24.2199C30.0259 23.8988 30.2482 23.553 30.4458 23.2071C30.9893 22.2684 31.3351 21.305 31.5328 20.3169L33.9043 21.2062C33.6572 22.3178 33.262 23.38 32.6691 24.3929ZM18.9095 8.8793C19.4035 8.65697 19.8976 8.48405 20.4164 8.36054L20.5399 9.52158C20.0952 9.6204 19.6506 9.74391 19.2306 9.91683L18.9095 8.8793ZM23.3807 7.98999C24.023 7.98999 24.69 8.0641 25.3323 8.18762L24.8876 9.6451C24.3689 9.49688 23.8254 9.42277 23.2819 9.37337L23.3807 7.98999ZM27.7532 8.97812C28.0743 9.12633 28.3708 9.27455 28.6672 9.44748C29.186 9.74391 29.68 10.0898 30.1247 10.4603L28.766 11.819C28.272 11.3496 27.7038 10.9297 27.0615 10.5591C26.9874 10.5097 26.8886 10.4603 26.8145 10.4109L27.7532 8.97812ZM31.5822 11.8931C32.3233 12.7824 32.9161 13.7952 33.3361 14.8328L31.1128 15.3268C30.767 14.4375 30.2976 13.5976 29.7047 12.8318L31.5822 11.8931ZM33.7561 16.0432C34.1019 17.3772 34.2254 18.7853 34.0525 20.1686L31.6316 19.6005C31.7551 18.4888 31.681 17.3772 31.4093 16.3149L33.7561 16.0432Z" fill="#B8D344"/>
<path fill-rule="evenodd" clip-rule="evenodd" d="M14.4876 22.8612C14.8581 22.2437 15.2781 21.6508 15.7475 21.1073L17.3779 23.0342C17.1308 23.3553 16.9085 23.7011 16.6862 24.0717C16.1674 24.9857 15.7969 25.9738 15.6239 26.962L13.2524 26.0479C13.4995 24.961 13.8947 23.8741 14.4876 22.8612ZM28.7907 16.142C29.1613 16.7843 29.433 17.4266 29.68 18.1182L27.185 18.5629C27.0368 18.1923 26.8392 17.8218 26.6415 17.4513C26.0981 16.5372 25.4311 15.7467 24.6653 15.0798L26.6415 13.4988C27.4567 14.2398 28.1978 15.1292 28.7907 16.142ZM8.46004 20.2921C8.50944 19.7733 8.60826 19.2546 8.75647 18.7358L9.84341 19.2052C9.69519 19.6251 9.59638 20.0698 9.52227 20.5391L8.46004 20.2921ZM9.94223 15.9691C10.2634 15.4256 10.6586 14.8821 11.0786 14.3881L12.1161 15.4997C11.7456 15.895 11.375 16.3149 11.0786 16.7349L9.94223 15.9691ZM12.9807 12.6836C13.2524 12.4859 13.5489 12.313 13.8453 12.1401C14.3641 11.8436 14.8829 11.5719 15.4263 11.3743L15.9451 13.227C15.2781 13.4246 14.6358 13.6964 13.9935 14.0669C13.9194 14.1163 13.8206 14.1657 13.7465 14.2151L12.9807 12.6836ZM17.4273 10.8308C18.5636 10.6332 19.7247 10.6085 20.861 10.7814L20.1446 12.9553C19.2059 12.8071 18.2425 12.7824 17.3038 12.9306L17.4273 10.8308ZM22.0962 11.0284L21.1574 13.1776C22.2197 13.4741 23.2078 13.9681 24.1218 14.6351L25.8263 12.8071C24.69 11.9919 23.4301 11.3743 22.0962 11.0284ZM27.4567 31.8779C26.7157 31.8779 25.9993 31.8038 25.3076 31.6803L26.1722 29.2841C26.5674 29.3335 26.9874 29.3829 27.3826 29.3829C28.4696 29.3829 29.4824 29.1852 30.4458 28.8641L30.8164 31.3591C29.7541 31.705 28.6425 31.8779 27.4567 31.8779ZM34.0278 12.2142C34.4477 12.5353 34.843 12.8812 35.2135 13.2517L34.2748 13.9681C33.9784 13.6223 33.6325 13.3011 33.2867 13.0047L34.0278 12.2142ZM37.0169 15.6479C37.338 16.2161 37.6097 16.809 37.8321 17.4266L36.3499 17.7724C36.2017 17.2536 36.004 16.7349 35.7817 16.2408L37.0169 15.6479ZM38.3508 19.9463C38.3755 20.2674 38.4002 20.6133 38.4002 20.9591C38.4002 21.552 38.3508 22.1449 38.252 22.713L36.3993 22.219C36.5475 21.552 36.6463 20.8603 36.6463 20.1192C36.6463 20.0204 36.6463 19.9216 36.6216 19.8228L38.3508 19.9463ZM37.7332 24.714C37.338 25.8009 36.7698 26.8137 36.0781 27.7031L34.5218 25.9985C35.1394 25.2574 35.6335 24.4422 35.9793 23.5529L37.7332 24.714ZM35.2135 28.6418L33.8302 26.7643C33.0397 27.5301 32.1256 28.1477 31.0881 28.5924L31.8292 30.9886C33.1138 30.4204 34.2501 29.6299 35.2135 28.6418ZM28.2472 38.3995C27.7532 38.5971 27.2591 38.7701 26.7404 38.9183L26.5921 37.7325C27.0368 37.6584 27.4814 37.5102 27.9261 37.362L28.2472 38.3995ZM23.776 39.2641C23.109 39.2641 22.4667 39.19 21.8244 39.0665L22.2691 37.609C22.7879 37.7572 23.3313 37.856 23.8501 37.9054L23.776 39.2641ZM19.3788 38.276C19.0824 38.1278 18.7859 37.9796 18.4895 37.8066C17.9707 37.5102 17.4767 37.1644 17.032 36.7938L18.366 35.4351C18.8848 35.9045 19.4529 36.3492 20.0705 36.695C20.1693 36.7444 20.2434 36.7938 20.3422 36.8432L19.3788 38.276ZM15.5745 35.361C14.8087 34.4717 14.2406 33.4836 13.7959 32.4214L16.0439 31.9273C16.365 32.8166 16.8344 33.6565 17.452 34.4223L15.5745 35.361ZM13.4007 31.2109C13.0301 29.8769 12.9313 28.4936 13.0795 27.0855L15.5004 27.6537C15.3769 28.7653 15.4757 29.8769 15.7475 30.9639L13.4007 31.2109Z" fill="#34A853"/>
</svg>
