<svg width="72" height="72" viewBox="0 0 72 72" fill="none" xmlns="http://www.w3.org/2000/svg">
<path fill-rule="evenodd" clip-rule="evenodd" d="M0 36.1417C0 49.634 8.32579 62.5808 19.2579 68.1814C22.6606 69.8907 27.7285 72 32.6878 72V44.979C31.2398 45.3426 29.5747 47.5974 28.5249 48.6884C26.2443 50.9796 25.8824 52.2525 22.9864 52.2525C21.2489 52.2525 19.9819 50.7614 19.9819 48.6157C19.9819 45.8518 25.7738 41.9968 27.2217 39.7784C20.5973 39.7784 14.8416 41.3058 14.8416 35.8507C14.8416 34.7961 15.4208 33.8505 16.0362 33.4141C17.4118 32.3958 24.7964 32.7958 27.2217 32.7958C26.9321 31.6685 24.3258 29.4137 23.3846 28.4681C22.2262 27.3407 19.9819 25.6678 19.9819 23.6676C19.9819 21.1219 21.3575 20.0309 23.6018 20.0309C25.6652 20.0309 28.4163 23.5221 30.3348 25.4132C31.095 26.2133 31.5656 27.0134 32.6878 27.3407C32.6878 23.0857 31.4932 18.2125 36.3077 18.2125C38.0091 18.2125 39.2036 19.5217 39.5294 21.0491C39.8552 22.5038 39.638 25.7042 39.638 27.3407C42.5339 25.3769 45.1041 20.0309 49.0136 20.0309C51.4027 20.0309 52.0543 21.9947 52.0543 23.9949C52.0543 25.7042 49.6652 27.4498 48.6516 28.4681L46.6606 30.432C45.9005 31.1957 45.0679 31.6685 44.7783 32.7958C46.733 32.7958 54.733 32.3231 56.0724 33.3414C58.4253 35.1234 58.0272 39.7057 53.2489 39.8148C50.4615 39.8511 47.6018 39.7784 44.7783 39.7784C47.7104 44.1789 52.0543 44.7971 52.0543 49.5249C52.0543 52.1797 49.6652 52.2525 48.1086 52.2525C45.7557 52.2525 42.4615 46.8701 39.638 44.979V72C44.5611 72 49.1222 69.9634 52.5611 68.2541C63.6018 62.7627 72 50.0704 72 37.6691C72 28.2135 69.5385 19.2308 63.3122 12.6483C60.7783 9.99343 59.9819 8.86604 56.3258 6.32032C32.8326 -10.0814 0 7.41134 0 36.1417Z" fill="#1AA657"/>
</svg>
