<svg width="86" height="86" viewBox="0 0 86 86" fill="none" xmlns="http://www.w3.org/2000/svg">
<circle cx="43" cy="43" r="43" fill="#F1E7FE"/>
<path d="M42.8869 10.2034H43.5134C43.5448 10.4226 43.7223 10.4122 43.8747 10.4122C45.3409 10.4202 46.8052 10.5143 48.2603 10.6941C50.5488 10.9565 52.8046 11.4505 54.9933 12.1685C56.4916 12.6904 57.9562 13.3041 59.3789 14.0063C60.4989 14.5878 61.5697 15.2597 62.5804 16.0153C63.7269 16.8152 64.746 17.803 65.7506 18.7762C66.8286 19.8351 67.8073 20.9906 68.6743 22.2283C69.9607 24.0034 70.9193 25.9331 71.8445 27.9108C72.1744 28.6334 72.3937 29.3852 72.6798 30.1245C73.1915 31.4744 73.604 32.8599 73.9141 34.2699C74.2127 35.619 74.4174 37.0161 74.5907 38.3966C74.8696 40.5155 75.032 42.6482 75.0773 44.7849C75.0919 45.5994 75.0293 46.416 75.0146 47.2158C74.9691 48.9916 74.822 50.7634 74.574 52.5224C74.386 53.9028 74.1981 55.2832 73.8827 56.649C73.4831 58.378 72.9639 60.0772 72.329 61.7343C72.0338 62.5755 71.6663 63.3895 71.2305 64.1672C71.2159 64.1672 71.1992 64.1505 71.1845 64.1505C71.1699 64.1505 71.2159 64.1672 71.2305 64.1672C71.2296 64.2863 71.2032 64.4038 71.1532 64.5118C70.6666 65.5017 70.0234 66.4102 69.5201 67.4001C68.9708 68.4818 68.0916 69.3778 67.3544 70.3238C66.2305 71.7269 64.933 72.9816 63.493 74.0578C62.3216 74.9902 61.0724 75.8202 59.759 76.5388C58.9591 76.9565 58.1572 77.416 57.3114 77.7626C56.6849 78.0299 55.9915 78.2012 55.365 78.4685C53.9031 79.0804 52.3661 79.3623 50.8437 79.7549C50.3739 79.8714 49.8966 79.9552 49.4152 80.0056C48.3021 80.1329 47.1869 80.2415 46.0738 80.3522C44.7226 80.4608 43.3735 80.4462 42.0244 80.4775C41.0594 80.5153 40.0929 80.4678 39.1362 80.3355C38.1484 80.1789 37.1271 80.1789 36.1707 79.9596C34.7422 79.6297 33.297 79.379 31.902 78.9551C30.3629 78.4998 28.9031 77.8399 27.4433 77.1967C25.9835 76.5535 24.6658 75.6283 23.348 74.6906C22.4855 74.0787 21.7316 73.3582 20.9317 72.667C20.6957 72.4581 20.514 72.2263 20.2864 72.007C19.6087 71.3971 18.9841 70.7305 18.4194 70.0147C17.7135 69.0561 17.0223 68.0997 16.3957 67.091C14.727 64.4011 13.4732 61.4751 12.6763 58.4116C12.2837 56.9038 11.9705 55.3981 11.6718 53.8757C11.2541 51.568 11.1226 49.2457 10.9973 46.9234C10.8831 45.2076 10.9194 43.4851 11.1059 41.7756C11.1998 41.0384 11.1539 40.2991 11.2792 39.5619C11.488 38.3381 11.5925 37.0976 11.8431 35.8905C12.0958 34.6375 12.3923 33.3844 12.739 32.1314C13.177 30.5405 13.7276 28.9829 14.3867 27.4701C14.7 26.7329 15.1093 26.0271 15.4685 25.3212C16.0166 24.2633 16.6304 23.2408 17.3063 22.2596C18.0126 21.2323 18.8049 20.2668 19.6745 19.3735C20.5362 18.4491 21.4541 17.5787 22.4228 16.7672C23.3816 15.9984 24.3989 15.3058 25.4656 14.6955C26.4388 14.1316 27.46 13.6513 28.4645 13.1417C29.2184 12.7491 30.0329 12.5298 30.8181 12.2312C32.0551 11.788 33.3182 11.4211 34.6002 11.1327C35.3937 10.9618 36.1952 10.8307 37.0018 10.7401C38.4762 10.5312 39.936 10.3328 41.4271 10.3642H42.4713C42.6509 10.408 42.8556 10.4623 42.8869 10.2034ZM43.2482 76.7936C44.982 76.7675 46.7099 76.5844 48.4107 76.2465C49.7449 75.9658 51.0487 75.556 52.3034 75.0227C53.8446 74.3682 55.2993 73.5265 56.6348 72.5166C57.9255 71.5346 59.1049 70.4141 60.1516 69.1752C61.0512 68.1293 61.8549 67.0047 62.5532 65.815C62.8811 65.2198 63.2424 64.6225 63.541 63.996C64.2171 62.5457 64.8091 61.0577 65.3141 59.5394C65.5334 58.8648 65.7547 58.1903 65.9114 57.5157C66.3956 55.5406 66.7624 53.5385 67.0099 51.52C67.2291 49.7302 67.2772 47.9426 67.3858 46.1528C67.4797 44.4821 67.3231 42.8406 67.2145 41.1783C67.1124 39.6464 66.9234 38.1215 66.6486 36.611C66.0993 33.5661 65.2995 30.5839 64.0109 27.7583C63.2925 26.1114 62.4036 24.5442 61.3587 23.0824C60.1975 21.4974 58.9424 19.9895 57.374 18.7511C55.5997 17.305 53.6004 16.1593 51.4556 15.3596C48.7202 14.372 45.8257 13.899 42.9182 13.9645C42.275 13.9792 41.6464 14.0105 41.0032 14.0585C39.9705 14.1206 38.9434 14.2539 37.9291 14.4574C35.8571 14.862 33.8578 15.5759 31.9981 16.575C31.1697 17.0085 30.3771 17.5071 29.6278 18.0661C28.4443 18.9904 27.3418 20.014 26.3323 21.1256C25.5871 21.9687 24.9051 22.8657 24.2919 23.8092C23.2658 25.367 22.3983 27.0237 21.7023 28.7545C21.3005 29.6913 20.9519 30.65 20.6581 31.626C20.0193 33.8443 19.5364 36.1046 19.213 38.3903C18.9248 40.5351 18.86 42.659 18.7494 44.7933C18.67 46.3324 18.8433 47.8695 18.9227 49.4086C19.0004 51.0463 19.1888 52.6769 19.4866 54.2892C20.0985 57.5366 20.9777 60.7068 22.4542 63.6869C23.2995 65.4922 24.3506 67.1937 25.5867 68.7575C27.9827 71.8023 31.1767 74.1223 34.8132 75.4591C37.5365 76.4344 40.3454 76.731 43.2482 76.7936Z" fill="#F6D600"/>
<path d="M43.248 76.7937C40.3598 76.731 37.5363 76.4345 34.8193 75.43C33.1148 74.8098 31.4998 73.9671 30.016 72.9239C28.3534 71.7382 26.8646 70.326 25.5928 68.7283C24.3618 67.1609 23.311 65.46 22.4602 63.6577C20.9837 60.6755 20.1212 57.5053 19.4926 54.26C19.1915 52.6474 19.0018 51.016 18.9246 49.3774C18.8452 47.8382 18.6719 46.3012 18.7512 44.762C18.8452 42.6277 18.9079 40.4934 19.2211 38.359C19.5446 36.0733 20.0275 33.8131 20.6663 31.5947C20.9601 30.6187 21.3087 29.66 21.7105 28.7232C22.4132 26.9956 23.2803 25.3395 24.3001 23.7779C24.9205 22.8395 25.6021 21.9431 26.3404 21.0943C27.3499 19.9827 28.4524 18.9591 29.6359 18.0349C30.3888 17.4809 31.181 16.9826 32.0062 16.5438C33.8602 15.5393 35.8578 14.8264 37.9289 14.4303C38.9441 14.2295 39.9719 14.099 41.0051 14.0398C41.6483 14.0085 42.2769 13.9604 42.9201 13.9458C45.827 13.8886 48.72 14.3613 51.4574 15.3408C53.6035 16.1378 55.6033 17.2837 57.3759 18.7324C58.9443 19.9708 60.1994 21.4786 61.3606 23.0637C62.3985 24.5299 63.287 26.0964 64.0128 27.7396C65.316 30.5652 66.1012 33.5474 66.6504 36.5923C66.9247 38.1035 67.113 39.6291 67.2143 41.1616C67.3229 42.8323 67.4795 44.4717 67.3856 46.1362C67.277 47.9259 67.2289 49.7136 67.0097 51.5033C66.7626 53.519 66.3965 55.5183 65.9132 57.4907C65.7399 58.1653 65.5353 58.8565 65.316 59.5144C64.8136 61.0343 64.2215 62.5232 63.5429 63.9731C63.2443 64.5996 62.8997 65.1969 62.5551 65.7921C61.8644 66.9853 61.0594 68.1085 60.1514 69.146C58.0371 71.6911 55.3467 73.6956 52.3032 74.9935C51.0485 75.5268 49.7447 75.9366 48.4105 76.2173C46.7129 76.5793 44.9836 76.7724 43.248 76.7937ZM47.9093 67.5024C48.1453 67.5024 48.3959 67.5192 48.6319 67.5024C48.8678 67.4857 49.1017 67.4252 49.3524 67.4085C51.6038 67.2632 53.7908 66.5969 55.7407 65.4621C57.6192 64.4151 59.3023 63.0507 60.7153 61.4294C61.7991 60.1889 62.8036 58.8711 63.5095 57.3967C64.8827 54.5895 65.4012 51.4408 65.0006 48.3415C64.6959 46.0766 64.0391 43.8733 63.0542 41.8111C61.5485 38.5637 59.4142 35.7214 56.9812 33.1318C54.7854 30.7671 52.2961 28.6932 49.5737 26.9606C47.7541 25.7874 45.7881 24.8584 43.7262 24.1977C41.4979 23.4918 39.207 23.0992 36.8346 23.3206C35.9566 23.3892 35.0857 23.5289 34.2304 23.7382C32.051 24.3175 30.0114 25.3319 28.2346 26.7205C26.3411 28.1521 24.7199 29.912 23.448 31.9164C21.4243 35.0528 20.5943 38.8117 21.109 42.5087C21.4139 44.8119 22.0865 47.0513 23.1013 49.1414C24.3501 51.6952 25.9277 54.0746 27.794 56.2189C29.4662 58.1848 31.3214 59.9876 33.3344 61.6028C35.3857 63.2585 37.6433 64.6407 40.0507 65.7148C42.5258 66.8257 45.1972 67.4333 47.9093 67.5024Z" fill="#F4B400"/>
<path d="M71.2314 64.1761C71.2165 64.1761 71.1994 64.1612 71.1844 64.1612C71.1929 64.1602 71.2014 64.161 71.2095 64.1636C71.2176 64.1662 71.2251 64.1704 71.2314 64.1761Z" fill="#636363"/>
<path d="M47.9095 67.5024C45.1887 67.4343 42.5093 66.8207 40.03 65.698C37.6189 64.6311 35.3603 63.2483 33.3137 61.586C31.3009 59.969 29.4458 58.1649 27.7732 56.1979C25.9376 54.0156 24.3211 51.7079 23.0806 49.1183C22.0669 47.0315 21.3943 44.7958 21.0883 42.4961C20.5851 38.7947 21.4261 35.0357 23.4586 31.9017C24.7299 29.8975 26.3513 28.1382 28.2452 26.7079C30.0202 25.3177 32.0595 24.303 34.2389 23.7256C35.0947 23.5149 35.9664 23.3752 36.8452 23.308C39.2155 23.0887 41.4898 23.4813 43.7369 24.1872C45.7952 24.8568 47.76 25.7852 49.5843 26.9501C52.3111 28.675 54.8013 30.7482 56.9918 33.1171C59.4394 35.7318 61.5633 38.5469 63.0711 41.7881C64.0551 43.8497 64.7111 46.0524 65.0154 48.3164C65.4198 51.4158 64.9011 54.5655 63.5243 57.3716C62.8038 58.8627 61.8139 60.1659 60.7321 61.4064C59.3212 63.0298 57.6378 64.3945 55.7576 65.4391C53.8084 66.5756 51.621 67.242 49.3692 67.3854C49.1332 67.4001 48.8973 67.4627 48.6467 67.4794C48.4016 67.5026 48.1554 67.5102 47.9095 67.5024ZM46.7003 29.8843C45.1583 29.8801 43.6279 30.1509 42.181 30.6841C38.9941 31.8307 36.3106 33.777 33.9256 36.1453C32.7688 37.2691 31.72 38.499 30.793 39.8187C28.7047 42.8949 27.2303 46.1424 27.5581 49.9725C27.6404 51.1277 27.9275 52.2592 28.406 53.3139C29.357 55.3844 30.8081 57.1858 32.6287 58.5557C34.4267 59.9636 36.6137 60.7851 38.8939 60.9093C40.3824 60.983 41.8712 60.7703 43.2795 60.2828C46.669 59.1823 49.5259 57.2213 52.0507 54.7424C53.5444 53.2946 54.8571 51.6713 55.9602 49.9077C57.6539 47.1302 58.8004 44.196 58.5331 40.8358C58.4088 39.2782 57.9425 37.7672 57.1673 36.4105C56.3535 34.9985 55.2924 33.7443 54.0347 32.7078C51.9212 30.9285 49.4945 29.8989 46.7003 29.8843Z" fill="#EA6E00"/>
<path d="M46.7003 29.8843C49.5113 29.9156 51.9108 30.9285 54.0305 32.7245C55.2878 33.7622 56.3488 35.017 57.1631 36.4293C57.9375 37.7863 58.4038 39.2971 58.5289 40.8546C58.7941 44.2127 57.6497 47.1322 55.9539 49.9265C54.8606 51.6958 53.5477 53.3195 52.0466 54.759C49.5196 57.24 46.6627 59.201 43.2754 60.2995C41.867 60.787 40.3782 60.9997 38.8897 60.926C36.6106 60.7952 34.4253 59.9735 32.6246 58.5703C30.8122 57.1924 29.3634 55.3931 28.404 53.3285C27.9279 52.2729 27.6409 51.1419 27.5561 49.9871C27.2261 46.1403 28.7026 42.8866 30.7889 39.8313C31.7121 38.5092 32.7612 37.2796 33.9215 36.1599C36.3064 33.7896 38.99 31.8432 42.1748 30.6987C43.6196 30.1486 45.1543 29.8724 46.7003 29.8843ZM53.7486 45.6558C53.7945 42.141 52.3202 39.7561 49.3839 38.3589C45.6248 36.5692 41.7112 36.5546 37.8017 37.8724C35.7133 38.5782 34.0196 39.85 33.0464 41.8904C32.4123 43.2594 32.1736 44.7785 32.3573 46.276C32.5766 48.379 33.4391 50.1374 35.0868 51.4552C37.1752 53.1259 39.6812 53.6835 42.2604 53.8255C44.3065 53.9481 46.3563 53.654 48.2854 52.9609C51.5829 51.7768 53.8426 49.1246 53.7486 45.6558Z" fill="#D50016"/>
<path d="M53.7485 45.6558C53.8425 49.1246 51.5828 51.7622 48.302 52.9651C46.3722 53.6582 44.3217 53.9523 42.2749 53.8297C39.6707 53.6877 37.1897 53.1384 35.1034 51.4594C33.4556 50.1416 32.5764 48.3999 32.3718 46.2802C32.1888 44.7825 32.4283 43.2634 33.063 41.8946C34.0362 39.8542 35.7299 38.5824 37.8183 37.8765C41.7257 36.5588 45.633 36.5734 49.4005 38.3631C52.32 39.7561 53.8007 42.141 53.7485 45.6558Z" fill="#370773"/>
</svg>
