<svg width="58" height="58" viewBox="0 0 58 58" fill="none" xmlns="http://www.w3.org/2000/svg">
<path d="M49.1316 8.86708C46.5018 6.22624 43.358 4.15318 39.8948 2.77621C36.4316 1.39924 32.7227 0.747656 28.9975 0.861771C25.3651 0.796691 21.7555 1.44807 18.3749 2.77868C14.9943 4.10929 11.9091 6.09305 9.29562 8.61657C6.68209 11.1401 4.59148 14.1539 3.14327 17.4858C1.69506 20.8176 0.917641 24.4023 0.85544 28.0347C0.85544 28.3596 0.85544 28.6871 0.85544 29.0119C0.366853 44.2843 12.501 57.0278 27.7841 57.3848H28.9975C44.2806 57.7499 57.0107 45.6185 57.2604 30.3354V28.8804C57.3678 25.1631 56.7006 21.4641 55.3012 18.0186C53.9017 14.5732 51.8007 11.4566 49.1316 8.86708Z" fill="#F9A024"/>
<path d="M28.9975 57.9915C21.4778 58.1229 14.211 55.277 8.78028 50.0741C3.3496 44.8712 0.195203 37.7329 0.00439813 30.2146V29.0011C-0.127641 21.4813 2.71794 14.214 7.92099 8.7832C13.124 3.35236 20.2628 0.198182 27.7814 0.00807507H28.9948C32.7143 -0.080756 36.4148 0.564057 39.885 1.90569C43.3552 3.24732 46.5271 5.25949 49.2195 7.82723C51.9119 10.395 54.072 13.468 55.5765 16.8708C57.081 20.2735 57.9004 23.9394 57.9879 27.6589V29.0011C58.0874 32.7233 57.4499 36.4285 56.1122 39.9034C54.7744 43.3783 52.7628 46.5544 50.193 49.249C47.6231 51.9436 44.5459 54.1034 41.1382 55.6042C37.7306 57.1051 34.0598 57.9173 30.3371 57.9942L28.9975 57.9915ZM28.9975 1.46847C21.8757 1.30469 14.9793 3.96978 9.81835 8.88011C4.65744 13.7904 1.6527 20.5458 1.46211 27.6669V29.0092C1.2205 43.9299 12.8634 56.303 27.9049 56.5446H28.9975C32.5318 56.6561 36.053 56.0643 39.3567 54.8036C42.6604 53.543 45.6807 51.6385 48.2423 49.2008C50.8038 46.7632 52.8555 43.8409 54.2783 40.6037C55.701 37.3665 56.4665 33.8789 56.5301 30.3434V29.0011C56.8952 14.2039 45.0081 1.83088 30.2216 1.58927L28.9975 1.46847Z" fill="#ED017F"/>
<path d="M14.4419 19.4201C15.4363 18.5209 16.7393 18.0401 18.0794 18.0778C19.5785 18.0536 21.0661 18.3426 22.4472 18.9261C23.9474 19.5258 25.3719 20.2998 26.6914 21.2321L27.2982 20.7462C26.4498 19.0469 25.1156 17.7127 23.5398 16.6228C21.8373 15.6611 19.9139 15.1588 17.9586 15.1651C16.921 15.1915 15.8957 15.3967 14.9278 15.7718C13.9459 16.1617 13.1041 16.8379 12.5117 17.7127C11.905 18.4402 11.5399 19.412 11.1694 20.2603C10.9084 21.1655 10.8263 22.1129 10.9278 23.0496H11.7761C12.4116 21.6728 13.3183 20.4383 14.4419 19.4201ZM32.7585 16.7597C33.9692 15.9114 35.4269 15.4174 36.882 14.9396C38.0954 14.5771 39.5504 14.8188 40.7638 15.5463C42.0613 16.3554 43.21 17.3815 44.1598 18.5798L44.8873 18.3355C44.7665 17.4872 44.5222 16.3946 43.9155 15.6671C43.476 14.746 42.8077 13.953 41.9746 13.3637C41.247 12.6362 40.1571 12.2711 39.1853 12.0215C38.1481 11.7772 37.0682 11.7772 36.031 12.0215C34.1853 12.4701 32.4929 13.4033 31.1285 14.7247C29.7642 16.0461 28.7773 17.7078 28.27 19.5382L28.9975 19.9033L32.635 16.6281L32.7585 16.7597ZM45.7356 35.7958C45.1658 37.2214 44.3478 38.5348 43.3195 39.6749C42.8363 40.1608 42.3504 40.7675 41.6229 41.2534L39.8028 42.5957C37.1204 44.0292 34.2042 44.9737 31.1907 45.385C28.1681 45.8495 25.0866 45.7676 22.0928 45.1433C20.6233 44.7781 19.1996 44.2486 17.8486 43.5648C16.3935 42.9581 15.1801 41.989 13.8459 41.0172L13.4808 41.3823C15.4235 44.1895 18.2369 46.2784 21.4861 47.3259C24.7498 48.5143 28.2722 48.8073 31.6874 48.1742C35.104 47.7266 38.3554 46.435 41.1477 44.4158C43.9315 42.2889 45.7643 39.1501 46.2483 35.6803H45.7356V35.7958ZM28.5116 26.6925L29.6042 36.7595L30.2109 36.6387L28.9975 26.6925H28.5116Z" fill="#ED017F"/>
<path d="M49.1316 8.86708C46.5018 6.22624 43.358 4.15318 39.8948 2.77621C36.4316 1.39924 32.7227 0.747656 28.9975 0.861771C25.3651 0.796691 21.7555 1.44807 18.3749 2.77868C14.9943 4.10929 11.9091 6.09305 9.29562 8.61657C6.68209 11.1401 4.59148 14.1539 3.14327 17.4858C1.69506 20.8176 0.917641 24.4023 0.85544 28.0347C0.85544 28.3596 0.85544 28.6871 0.85544 29.0119C0.366853 44.2843 12.501 57.0278 27.7841 57.3848H28.9975C44.2806 57.7499 57.0107 45.6185 57.2604 30.3354V28.8804C57.3678 25.1631 56.7006 21.4641 55.3012 18.0186C53.9017 14.5732 51.8007 11.4566 49.1316 8.86708Z" fill="#F9A024"/>
<path d="M28.9975 57.9915C21.4778 58.1229 14.211 55.277 8.78028 50.0741C3.3496 44.8712 0.195203 37.7329 0.00439813 30.2146V29.0011C-0.127641 21.4813 2.71794 14.214 7.92099 8.7832C13.124 3.35236 20.2628 0.198182 27.7814 0.00807507H28.9948C32.7143 -0.080756 36.4148 0.564057 39.885 1.90569C43.3552 3.24732 46.5271 5.25949 49.2195 7.82723C51.9119 10.395 54.072 13.468 55.5765 16.8708C57.081 20.2735 57.9004 23.9394 57.9879 27.6589V29.0011C58.0874 32.7233 57.4499 36.4285 56.1122 39.9034C54.7744 43.3783 52.7628 46.5544 50.193 49.249C47.6231 51.9436 44.5459 54.1034 41.1382 55.6042C37.7306 57.1051 34.0598 57.9173 30.3371 57.9942L28.9975 57.9915ZM28.9975 1.46847C21.8757 1.30469 14.9793 3.96978 9.81835 8.88011C4.65744 13.7904 1.6527 20.5458 1.46211 27.6669V29.0092C1.2205 43.9299 12.8634 56.303 27.9049 56.5446H28.9975C32.5318 56.6561 36.053 56.0643 39.3567 54.8036C42.6604 53.543 45.6807 51.6385 48.2423 49.2008C50.8038 46.7632 52.8555 43.8409 54.2783 40.6037C55.701 37.3665 56.4665 33.8789 56.5301 30.3434V29.0011C56.8952 14.2039 45.0081 1.83088 30.2216 1.58927L28.9975 1.46847Z" fill="#ED017F"/>
<path d="M14.4419 19.4201C15.4363 18.5209 16.7393 18.0401 18.0794 18.0778C19.5785 18.0536 21.0661 18.3426 22.4472 18.9261C23.9474 19.5258 25.3719 20.2998 26.6914 21.2321L27.2982 20.7462C26.4498 19.0469 25.1156 17.7127 23.5398 16.6228C21.8373 15.6611 19.9139 15.1588 17.9586 15.1651C16.921 15.1915 15.8957 15.3967 14.9278 15.7718C13.9459 16.1617 13.1041 16.8379 12.5117 17.7127C11.905 18.4402 11.5399 19.412 11.1694 20.2603C10.9084 21.1655 10.8263 22.1129 10.9278 23.0496H11.7761C12.4116 21.6728 13.3183 20.4383 14.4419 19.4201ZM32.7585 16.7597C33.9692 15.9114 35.4269 15.4174 36.882 14.9396C38.0954 14.5771 39.5504 14.8188 40.7638 15.5463C42.0613 16.3554 43.21 17.3815 44.1598 18.5798L44.8873 18.3355C44.7665 17.4872 44.5222 16.3946 43.9155 15.6671C43.476 14.746 42.8077 13.953 41.9746 13.3637C41.247 12.6362 40.1571 12.2711 39.1853 12.0215C38.1481 11.7772 37.0682 11.7772 36.031 12.0215C34.1853 12.4701 32.4929 13.4033 31.1285 14.7247C29.7642 16.0461 28.7773 17.7078 28.27 19.5382L28.9975 19.9033L32.635 16.6281L32.7585 16.7597ZM45.7356 35.7958C45.1658 37.2214 44.3478 38.5348 43.3195 39.6749C42.8363 40.1608 42.3504 40.7675 41.6229 41.2534L39.8028 42.5957C37.1204 44.0292 34.2042 44.9737 31.1907 45.385C28.1681 45.8495 25.0866 45.7676 22.0928 45.1433C20.6233 44.7781 19.1996 44.2486 17.8486 43.5648C16.3935 42.9581 15.1801 41.989 13.8459 41.0172L13.4808 41.3823C15.4235 44.1895 18.2369 46.2784 21.4861 47.3259C24.7498 48.5143 28.2722 48.8073 31.6874 48.1742C35.104 47.7266 38.3554 46.435 41.1477 44.4158C43.9315 42.2889 45.7643 39.1501 46.2483 35.6803H45.7356V35.7958ZM28.5116 26.6925L29.6042 36.7595L30.2109 36.6387L28.9975 26.6925H28.5116Z" fill="#ED017F"/>
</svg>
