<svg width="69" height="69" viewBox="0 0 69 69" fill="none" xmlns="http://www.w3.org/2000/svg">
<path fill-rule="evenodd" clip-rule="evenodd" d="M34.5 69C53.5539 69 69 53.5538 69 34.5C69 15.4462 53.5539 0 34.5 0C15.4462 0 0 15.4462 0 34.5C0 53.5538 15.4462 69 34.5 69ZM46.9509 52.5548C43.4089 55.0138 39.1086 56.4546 34.4722 56.4546C22.3624 56.4546 12.5455 46.6252 12.5455 34.5001C12.5455 22.3749 22.3624 12.5456 34.4722 12.5456C46.582 12.5456 56.3989 22.3749 56.3989 34.5001C56.3989 37.2068 55.9097 39.7991 55.015 42.1932C51.5447 40.9335 47.6768 40.5569 44.1351 41.4075C45.545 39.44 46.3751 37.0279 46.3751 34.4215C46.3751 27.796 41.0108 22.4249 34.3938 22.4249C27.7766 22.4249 22.4124 27.796 22.4124 34.4215C22.4124 41.047 27.7766 46.4181 34.3938 46.4181C35.919 46.4181 37.3778 46.1327 38.7195 45.6124C42.0768 47.5606 44.9714 50.3567 46.9509 52.5548ZM58.3674 49.5775C56.8032 52.0484 54.866 54.2596 52.6347 56.132C50.1909 52.9073 45.2504 48.0377 39.7972 44.9284C44.8359 41.1511 52.6414 43.5666 58.3674 49.5775Z" fill="#3E2284"/>
</svg>
