<svg width="73" height="73" viewBox="0 0 73 73" fill="none" xmlns="http://www.w3.org/2000/svg">
<path fill-rule="evenodd" clip-rule="evenodd" d="M32.625 0.206285C25.5155 0.965345 18.7856 3.79573 13.2706 8.34607C7.7556 12.8964 3.69848 18.9663 1.60292 25.8022C-0.492647 32.6381 -0.534375 39.9389 1.48292 46.7983C3.50021 53.6576 7.48767 59.7735 12.9503 64.3866C17.5625 68.2815 23.0688 70.9717 28.976 72.2161C34.8831 73.4605 41.0067 73.2203 46.7982 71.5171C52.5898 69.8138 57.8685 66.7007 62.1615 62.4565C66.4545 58.2123 69.6277 52.9695 71.3971 47.1978C73.1664 41.4261 73.4766 35.3057 72.2998 29.3847C71.1229 23.4637 68.4959 17.927 64.6539 13.2706C60.812 8.61415 55.8751 4.98334 50.2854 2.70335C44.6956 0.423361 38.6277 -0.434608 32.625 0.206285ZM32.7607 1.02041C42.1388 0.0760296 51.5096 2.88017 58.8274 8.82064C66.1453 14.7611 70.8158 23.3554 71.8193 32.7274C72.8228 42.0993 70.0778 51.4876 64.1836 58.8428C58.2893 66.1979 49.7246 70.9225 40.3592 71.9851C35.6839 72.5155 30.9499 72.1161 26.4296 70.8099C21.9093 69.5037 17.6919 67.3165 14.0201 64.374C10.3484 61.4316 7.2948 57.7921 5.03508 53.665C2.77536 49.5378 1.35413 45.0046 0.853174 40.326C0.352223 35.6475 0.781447 30.9161 2.11614 26.4041C3.45083 21.8921 5.66463 17.6886 8.63016 14.0355C11.5957 10.3824 15.2544 7.35178 19.3957 5.11813C23.537 2.88447 28.0791 1.49185 32.7607 1.02041Z" fill="#ACBB16"/>
<path fill-rule="evenodd" clip-rule="evenodd" d="M35.0674 2.51297C30.0434 2.746 25.134 4.09329 20.6948 6.45728C16.2556 8.82127 12.3975 12.1428 9.40007 16.1814C6.40259 20.22 4.34066 24.8746 3.36355 29.8082C2.38645 34.7418 2.51862 39.8309 3.75051 44.7072C4.9824 49.5834 7.28319 54.1247 10.4863 58.0023C13.6893 61.8798 17.7146 64.9966 22.2705 67.127C26.8265 69.2573 31.7992 70.3479 36.8285 70.3199C41.8579 70.2918 46.818 69.1457 51.3499 66.9646C55.7948 64.7583 59.7038 61.6074 62.8035 57.7323C65.9031 53.8572 68.1186 49.3515 69.2947 44.5306C70.4709 39.7097 70.5793 34.69 69.6125 29.8228C68.6457 24.9556 66.6269 20.3585 63.6975 16.3531C63.1548 15.4033 62.4763 14.9962 61.7979 14.0464C58.5223 10.2063 54.4089 7.16938 49.7745 5.16977C45.1401 3.17016 40.1085 2.26121 35.0674 2.51297ZM35.8815 32.5C36.0172 32.7713 36.0172 32.3643 36.0172 32.907L35.3388 35.4851L34.6603 38.7416C33.5748 37.1133 32.7607 33.5855 32.3536 31.4145C31.8109 27.7509 32.3536 25.8513 32.4893 22.4591C31.9466 23.8159 31.6752 25.7156 31.5395 27.3438C30.1826 26.1226 30.0469 25.0371 28.1473 24.3587C30.0469 25.8513 30.8611 27.6152 31.1325 30.736C31.2681 34.5353 31.8109 35.6208 32.4893 38.8773C31.2681 38.0632 30.5897 37.249 29.6399 36.1635C24.8908 30.736 23.3983 34.3996 21.4986 27.2081C21.3629 29.9219 21.9057 30.1933 22.5841 32.0929C21.0916 32.0929 19.599 31.8215 18.3778 32.6356C21.4986 32.907 23.6696 33.3141 25.7049 34.8066C30.0469 37.9275 35.4745 46.7472 35.7458 52.8531C34.389 52.1747 33.0321 49.1895 26.9261 46.8829C24.8908 46.2044 23.2626 45.933 21.4986 44.9832C20.5488 44.3048 18.5135 42.4052 18.5135 40.9126C18.5135 42.6765 20.1417 44.8475 20.8202 45.3903L14.4429 45.6617C18.7849 46.0687 20.8202 45.6617 24.6194 47.1542C27.1975 48.2397 30.1826 50.1394 31.6752 51.6319C32.625 52.7174 35.6101 55.1598 35.0674 56.6524L32.4893 63.0297C31.6752 65.2007 31.8109 65.3364 31.5395 67.7788C23.6849 66.5692 16.583 62.4211 11.6708 56.1738C6.75863 49.9265 4.40295 42.0465 5.08041 34.1282C5.60214 28.213 7.77922 22.5644 11.3623 17.8291C14.9455 13.0938 19.7898 9.46338 25.3404 7.35356C30.8911 5.24373 36.9238 4.7398 42.7476 5.89948C48.5714 7.05916 53.9509 9.83556 58.27 13.9107L59.0841 14.8605C63.1305 19.0666 65.9279 24.3148 67.1638 30.0189C68.3998 35.723 68.0256 41.6584 66.0831 47.1621C64.1406 52.6659 60.7063 57.5212 56.1637 61.1858C51.6212 64.8504 46.1493 67.1801 40.3592 67.9145C39.4094 63.8438 39.8165 62.2156 40.902 58.2806C42.1232 54.0743 42.8016 53.8029 45.5154 51.6319C51.8927 46.7472 54.6064 46.7472 60.7124 44.5762C58.4057 44.4405 56.6417 44.8475 54.4707 45.2546C55.5562 43.355 56.099 43.0836 56.3704 40.3698C55.8276 45.3903 49.993 46.2044 44.7012 49.4609L40.7663 52.1747C38.3239 47.2899 41.8518 45.6617 45.5154 40.3698C46.4652 39.013 47.822 36.2992 48.2291 34.1282C48.7719 30.736 49.586 30.3289 51.6213 28.4293C49.993 28.9721 49.4503 29.9219 48.5005 30.736L48.0934 28.2936C47.9577 32.2286 47.822 35.8921 44.0228 39.2843C44.8369 34.2639 44.5655 33.8568 42.9373 29.7862C44.5655 34.8066 43.2087 39.5557 39.9522 43.355L37.1027 46.4758C36.6956 44.1691 36.4243 41.4553 36.4243 39.013C36.4243 37.7918 36.8313 33.7211 37.6455 32.5C37.9168 30.736 39.8165 27.6152 40.6306 26.394L43.7514 22.5947L44.8369 21.5092C44.1585 21.9163 42.3945 23.1375 41.9875 23.6803V20.8308L41.309 18.6598C41.5804 20.1524 41.9875 20.9665 41.4447 22.8661C40.3592 26.394 36.1529 29.9219 36.0172 32.0929V28.565C34.5246 29.1078 33.0321 30.736 33.8462 32.907L34.6603 31.0074L34.2533 33.0427C35.4745 32.7713 35.3388 32.907 35.8815 32.5Z" fill="#293737"/>
<path fill-rule="evenodd" clip-rule="evenodd" d="M47.6864 22.1877C49.1789 21.5093 50.8072 19.881 53.7923 19.7453C51.757 20.5595 49.3146 21.3736 48.0934 22.8662C51.35 26.2584 54.4708 21.5093 55.692 20.5595C56.5061 19.881 57.3202 19.7453 58.1343 19.0669C56.099 18.3885 53.928 17.5743 51.4856 18.1171C49.3146 18.5241 47.415 19.7453 47.6864 22.1877ZM49.3146 50.2751C52.9782 49.868 53.3853 50.4108 56.3704 50.9535C53.3853 50.8178 52.7068 50.2751 49.3146 51.0892C51.8927 56.1097 55.0135 52.039 59.7626 52.1747C56.9132 47.9684 49.9931 46.6115 49.3146 50.2751ZM15.7998 21.9163L16.2068 22.052L16.3425 22.1877L17.1566 22.4591C17.6994 22.4591 17.9708 22.7305 18.3778 22.8662C20.6845 23.816 22.9912 26.394 25.0265 22.4591C23.8053 21.645 21.0916 21.2379 19.4633 21.2379C22.0414 21.1022 22.8555 21.2379 25.0265 21.7807C24.4838 20.0167 22.7198 19.3383 20.4132 19.7453C18.1065 20.0167 17.2923 21.2379 15.7998 21.9163ZM57.4559 42.4052C58.6771 41.3197 58.8128 40.3699 60.5767 39.4201C59.8983 40.5056 58.4057 41.4554 57.9986 43.0836C62.3407 44.5762 61.3908 41.8624 64.783 37.1134C61.1195 36.7063 56.6418 38.6059 57.4559 42.4052ZM40.2236 16.7602C40.3592 15.6747 38.8667 13.6394 38.4596 12.961C39.8165 14.0465 39.9522 14.8606 40.6306 15.8104L41.0377 16.3531C41.5804 14.1821 40.7663 13.0966 39.5451 11.8755C38.4596 10.9256 36.8314 9.97582 34.9317 10.1115C37.2384 13.6394 35.6102 17.71 40.2236 16.7602ZM49.7217 35.8922C51.0786 37.1134 50.5358 36.0279 53.6566 39.2844C53.3853 38.4702 50.5358 36.842 49.1789 36.2992C47.8221 40.0985 51.8927 40.3699 53.3853 40.9126C54.3351 41.184 54.8778 41.7268 55.5563 41.9981C55.2849 35.6208 49.8574 34.8067 49.7217 35.8922ZM35.4745 27.2082C35.7459 25.8513 35.4745 24.6301 35.4745 23.4089L35.6102 23.6803C35.8816 24.3587 36.0172 25.0372 36.0172 26.9368C38.4596 25.4442 36.8314 20.6952 33.5749 18.9312C33.9819 22.5948 31.2682 26.394 35.4745 27.2082ZM12.1362 28.0223C14.1715 29.1078 14.3072 29.2435 15.7998 30.4647C17.2923 31.8215 19.192 31.4145 20.0061 29.6505L16.2068 28.0223C17.8351 28.158 18.7849 28.7007 20.1418 29.1078C19.599 26.5297 16.4782 26.2584 14.1715 26.9368L12.1362 28.0223ZM10.2366 39.5557C11.7291 40.7769 11.8648 40.7769 13.2217 42.6766C14.0358 44.0334 15.5284 44.7119 17.2923 43.2193C16.8853 42.2695 14.9856 40.9126 13.9001 40.5056C15.6641 40.9126 16.4782 42.1338 17.6994 42.6766C17.428 39.2844 13.4931 38.6059 10.2366 39.5557ZM27.3332 57.8736C28.6901 53.9386 31.9466 55.4312 31.5395 51.7676C30.1827 52.1747 28.6901 53.5316 28.283 54.6171C28.9615 52.7175 30.454 51.9033 31.1325 51.2249C27.4689 47.9684 25.5693 55.5669 27.3332 57.8736ZM29.7756 47.4256C30.1827 45.9331 30.1827 45.526 30.1827 43.7621C30.5897 44.8476 30.454 46.3401 30.1827 47.5613C32.7607 47.2899 33.0321 45.526 31.9466 43.355C31.2682 41.7268 29.7756 40.7769 28.5544 39.9628C28.6901 41.5911 29.0972 41.9981 28.6901 43.8978C28.283 45.7974 28.283 46.8829 29.7756 47.4256ZM28.9615 34.3996L28.6901 29.6505L29.5042 34.2639C31.6752 32.907 30.454 28.565 27.1975 26.8011C27.4689 30.1933 24.8908 33.9926 28.9615 34.3996ZM53.6566 29.1078L57.863 28.8364C56.3704 29.1078 54.7421 28.9721 53.6566 29.7862C54.8778 33.3141 57.863 29.9219 60.5767 29.7862C60.3053 29.1078 60.5767 29.5149 59.8983 29.1078L59.2198 28.565C57.3202 27.3439 54.4708 27.0725 53.6566 29.1078ZM30.5897 22.7305C30.5897 21.7807 30.047 21.1022 29.7756 20.1524L30.454 20.9665L30.9968 22.1877C30.9968 22.1877 31.4039 22.052 31.5395 21.2379C31.6752 19.474 29.2329 17.303 26.6548 17.0316L27.7403 20.8308C28.0117 22.4591 28.6901 22.8662 30.5897 22.7305ZM17.428 52.8531C18.3778 51.7676 18.5135 51.2249 19.599 50.5465C20.6845 49.7323 21.4987 49.5966 21.363 47.8327C20.4132 47.697 20.1418 48.2398 19.3277 48.6468C19.8704 47.8327 20.2775 47.697 20.8202 47.1543C17.6994 44.5762 16.4782 49.868 17.428 52.8531ZM18.1065 38.7416C19.3277 38.1989 19.599 37.6561 21.0916 37.3847C22.5842 36.9777 23.3983 36.9777 23.3983 35.2137C21.9057 35.3494 21.77 35.6208 20.5488 36.0279C21.77 35.2137 21.9057 35.3494 23.2626 34.8067C22.5842 32.2286 18.7849 33.4498 18.1065 38.7416ZM43.2087 48.3755L44.8369 45.3903C44.4299 46.4758 44.0228 47.1543 43.7514 48.6468C47.0079 48.6468 45.9224 46.8829 47.1436 42.8123C44.9726 43.355 42.2589 45.526 43.2087 48.3755ZM38.8667 41.0483L39.9522 37.7918L39.2737 41.184C42.5303 41.5911 41.3091 37.9275 41.8518 35.2137C40.2236 35.7565 36.6957 39.2844 38.8667 41.0483ZM44.8369 53.3959L45.1083 53.5316L45.5154 53.6673L47.415 54.6171C46.3295 54.3457 45.9224 54.0743 44.4299 53.9386C44.7013 57.3308 47.1436 56.1097 50.1288 56.9238C49.8574 55.5669 49.0433 54.6171 48.3648 53.9386C47.6864 53.2602 45.9224 52.1747 44.8369 53.3959ZM11.1864 34.3996C12.679 34.2639 13.2217 34.1282 14.5786 34.671C15.9355 35.0781 16.7496 35.0781 17.1566 33.9926C16.2068 33.3141 15.5284 33.5855 14.4429 33.3141L17.2923 33.5855C17.2923 29.5149 12.2719 32.2286 11.1864 34.3996ZM35.4745 18.5241C35.7459 17.8457 35.0674 17.0316 34.6604 16.0818C35.0674 16.6245 35.6102 17.5743 36.1529 17.9814C36.8314 16.8959 35.7459 15.539 35.0674 15.132C34.2533 14.4535 33.3035 14.1821 32.0823 14.0465C33.4392 17.1673 33.3035 18.9312 35.4745 18.5241ZM53.1139 25.0372C54.1994 24.7658 54.6065 24.3587 55.692 24.3587C54.8778 24.6301 53.7923 24.9015 53.2496 25.4442C53.928 26.394 54.8778 26.9368 56.099 25.8513L58.8128 24.223C57.3202 23.2732 53.7923 22.4591 53.1139 25.0372ZM25.1622 53.2602C25.2979 52.1747 25.2979 51.632 25.705 50.6821C27.0618 48.2398 25.9763 47.2899 25.1622 49.0539L24.7552 50.4108C24.7552 49.1896 25.1622 48.9182 25.4336 47.9684C22.1771 47.9684 23.1269 51.632 25.1622 53.2602ZM38.0526 32.2286H39.9522L38.1882 33.0427C39.1381 35.2137 40.6306 33.7212 42.8016 32.6357L43.3444 32.2286C42.5303 31.8215 41.0377 30.736 39.1381 31.4145L38.4596 31.8215V31.9572L38.3239 32.0929L38.0526 32.2286ZM50.4001 33.5855C51.2143 33.3141 51.8927 33.0427 52.8425 33.0427C51.8927 33.1784 51.0786 33.3141 50.4001 33.9926C51.6213 36.0279 53.1139 34.1282 53.928 33.5855L55.1492 33.0427C53.7923 32.2286 51.0786 31.2788 50.4001 33.5855ZM35.8816 32.5L36.4243 31.9572V28.4294C34.9317 28.9721 33.4392 30.6004 34.2533 32.6357L35.0674 30.736L34.6604 32.907C35.4745 32.7714 35.3388 32.907 35.8816 32.5ZM47.415 26.394L46.8723 24.3587L47.1436 24.7658L47.6864 25.7156L48.0934 26.1227C49.7217 24.0873 47.1436 22.7305 44.7013 22.5948L44.9726 23.1375C46.7366 25.8513 45.6511 26.394 47.415 26.394ZM45.7868 19.0669L46.0581 18.9312C47.415 18.5241 47.1436 15.9461 45.5154 14.5892C44.5656 17.0316 44.0228 18.5241 45.7868 19.0669ZM25.2979 41.184C25.9763 40.5056 25.705 40.2342 26.7905 39.013C27.0618 38.6059 27.4689 38.4702 27.4689 37.7918C27.1975 36.842 27.0618 37.3847 26.3834 37.7918C26.7905 37.1134 27.1975 36.842 26.2477 36.7063C25.705 36.7063 25.2979 37.1134 25.0265 37.5204C24.4838 38.8773 25.0265 40.0985 25.2979 41.184ZM38.0526 24.7658L38.731 24.3587L39.1381 23.6803L38.731 25.0372C41.3091 25.5799 40.3592 21.645 39.2737 20.9665C38.3239 23.6803 37.6455 23.1375 38.0526 24.7658ZM45.7868 34.2639L46.6009 33.3141L46.1938 34.3996C47.8221 33.9926 48.2291 31.8215 47.2793 30.4647L47.1436 30.6004C47.0079 31.2788 47.1436 30.6004 47.0079 30.8717C45.9224 32.0929 44.2942 33.0427 45.7868 34.2639ZM45.7868 41.184L47.415 40.7769C46.6009 41.0483 46.6009 40.9126 45.9224 41.5911C46.4652 42.2695 47.0079 42.5409 48.0934 41.8624L49.7217 40.7769L49.586 40.3699L48.9076 40.0985L47.6864 39.9628C46.6009 39.9628 46.1938 40.3699 45.7868 41.184ZM57.4559 46.7472L58.8128 46.4758C58.27 46.7472 57.9986 46.6115 57.5916 47.2899C58.5414 48.3755 58.9485 47.9684 60.9838 46.6115L61.3908 46.2044C60.034 45.7974 58.27 44.8476 57.4559 46.7472ZM24.8908 45.7974L25.5693 44.5762L25.2979 46.0688C27.4689 45.7974 26.6548 44.4405 27.0618 42.4052C25.8407 42.6766 23.8053 44.3048 24.8908 45.7974ZM22.5842 44.4405C22.9912 43.8978 22.8555 43.8978 22.8555 43.2193L22.9912 43.6264L23.1269 43.8978L23.3983 44.3048C23.8053 42.5409 23.2626 41.184 21.77 40.3699C21.9057 42.4052 20.6845 44.0334 22.5842 44.4405ZM50.2645 45.2546L50.5358 44.8476L50.8072 45.526C53.3853 45.3903 51.4856 42.4052 50.6715 41.8624C50.5358 43.355 49.586 44.4405 50.2645 45.2546ZM22.5842 28.2937L23.1269 28.4294H23.6697C22.7198 28.565 22.8555 28.565 22.5842 29.1078C23.2626 29.5149 23.6697 29.7862 24.4838 29.2435L26.2477 28.2937C25.1622 27.6152 23.3983 26.9368 22.5842 28.2937ZM46.4652 29.2435C47.0079 28.4294 46.3295 29.1078 46.6009 28.7007L47.0079 28.4294C46.6009 27.3439 45.7868 27.0725 44.5656 26.9368C45.5154 29.1078 45.244 29.2435 46.4652 29.2435ZM42.5303 29.2435L42.1232 27.8866L42.9373 28.8364C43.073 27.4795 42.2589 26.9368 40.902 26.8011C41.3091 28.2937 41.0377 29.1078 42.5303 29.2435Z" fill="#ACBB16"/>
</svg>
