<svg width="44" height="44" viewBox="0 0 44 44" fill="none" xmlns="http://www.w3.org/2000/svg">
<circle cx="22" cy="22" r="22" fill="#F1E7FE"/>
<path d="M21.9421 5.22034H22.2626C22.2787 5.33253 22.3695 5.32718 22.4475 5.32718C23.1976 5.33127 23.9468 5.37943 24.6913 5.47143C25.8621 5.60568 27.0163 5.85843 28.136 6.22577C28.9026 6.49276 29.652 6.80677 30.3798 7.16603C30.9529 7.46352 31.5007 7.80729 32.0178 8.1939C32.6044 8.60313 33.1258 9.10852 33.6398 9.60643C34.1913 10.1482 34.6921 10.7394 35.1356 11.3726C35.7938 12.2808 36.2842 13.2681 36.7576 14.2799C36.9264 14.6496 37.0386 15.0343 37.185 15.4125C37.4468 16.1032 37.6578 16.8121 37.8164 17.5335C37.9692 18.2237 38.0739 18.9385 38.1626 19.6448C38.3053 20.7289 38.3884 21.82 38.4116 22.9132C38.4191 23.3299 38.387 23.7477 38.3795 24.1569C38.3563 25.0655 38.281 25.972 38.1541 26.8719C38.0579 27.5782 37.9617 28.2845 37.8004 28.9832C37.5959 29.8678 37.3303 30.7372 37.0055 31.585C36.8545 32.0154 36.6664 32.4319 36.4434 32.8298C36.436 32.8298 36.4274 32.8212 36.4199 32.8212C36.4125 32.8212 36.436 32.8298 36.4434 32.8298C36.443 32.8907 36.4295 32.9508 36.4039 33.0061C36.155 33.5125 35.8259 33.9773 35.5684 34.4838C35.2873 35.0372 34.8375 35.4956 34.4604 35.9796C33.8853 36.6975 33.2215 37.3394 32.4847 37.8901C31.8854 38.3671 31.2463 38.7917 30.5743 39.1594C30.1651 39.3731 29.7548 39.6082 29.3221 39.7855C29.0015 39.9223 28.6468 40.0099 28.3262 40.1467C27.5783 40.4598 26.7919 40.604 26.013 40.8049C25.7726 40.8645 25.5284 40.9073 25.2821 40.9331C24.7126 40.9983 24.1421 41.0538 23.5726 41.1105C22.8813 41.166 22.191 41.1585 21.5008 41.1746C21.0071 41.1939 20.5126 41.1696 20.0231 41.1019C19.5177 41.0218 18.9952 41.0218 18.5059 40.9096C17.775 40.7408 17.0356 40.6125 16.3219 40.3956C15.5344 40.1627 14.7876 39.8251 14.0407 39.496C13.2938 39.1669 12.6196 38.6936 11.9454 38.2138C11.5041 37.9007 11.1184 37.5321 10.7092 37.1785C10.5885 37.0716 10.4955 36.953 10.379 36.8408C10.0323 36.5287 9.71275 36.1877 9.42382 35.8215C9.06267 35.3311 8.709 34.8417 8.38846 34.3256C7.53471 32.9494 6.89319 31.4524 6.48551 29.885C6.28463 29.1136 6.12436 28.3432 5.97157 27.5643C5.75787 26.3836 5.69056 25.1955 5.62645 24.0074C5.56803 23.1295 5.58662 22.2482 5.68201 21.3736C5.73009 20.9964 5.70659 20.6181 5.77069 20.241C5.87754 19.6148 5.93097 18.9802 6.05918 18.3626C6.18847 17.7215 6.34019 17.0804 6.51756 16.4393C6.74166 15.6254 7.02338 14.8284 7.36059 14.0545C7.52086 13.6773 7.73028 13.3162 7.91406 12.955C8.19449 12.4138 8.50853 11.8906 8.85432 11.3886C9.21571 10.8631 9.62105 10.3691 10.066 9.91202C10.5068 9.43907 10.9764 8.99374 11.4721 8.57856C11.9626 8.18525 12.4831 7.83086 13.0289 7.51863C13.5268 7.23014 14.0492 6.98439 14.5632 6.72368C14.9489 6.52281 15.3656 6.41062 15.7674 6.25783C16.4003 6.03106 17.0465 5.84336 17.7024 5.69581C18.1083 5.60836 18.5184 5.54132 18.9311 5.49493C19.6855 5.38809 20.4323 5.28658 21.1952 5.30261H21.7295C21.8213 5.32505 21.9261 5.35283 21.9421 5.22034ZM22.1269 39.2898C23.014 39.2764 23.898 39.1827 24.7682 39.0098C25.4508 38.8663 26.1179 38.6566 26.7598 38.3837C27.5483 38.0488 28.2926 37.6182 28.9759 37.1015C29.6363 36.5991 30.2396 36.0258 30.7752 35.392C31.2354 34.8569 31.6467 34.2815 32.0039 33.6728C32.1717 33.3683 32.3565 33.0627 32.5093 32.7421C32.8552 32.0001 33.1581 31.2388 33.4165 30.462C33.5286 30.1169 33.6419 29.7718 33.722 29.4267C33.9698 28.4161 34.1575 27.3918 34.2841 26.3591C34.3962 25.4434 34.4208 24.5288 34.4764 23.6131C34.5245 22.7583 34.4443 21.9185 34.3888 21.068C34.3365 20.2842 34.2398 19.504 34.0992 18.7312C33.8182 17.1734 33.409 15.6476 32.7497 14.2019C32.3821 13.3593 31.9273 12.5575 31.3928 11.8096C30.7987 10.9987 30.1565 10.2272 29.3541 9.59361C28.4463 8.85373 27.4234 8.26757 26.326 7.8584C24.9265 7.35312 23.4456 7.11113 21.9581 7.14466C21.629 7.15214 21.3074 7.16817 20.9783 7.19274C20.45 7.22451 19.9245 7.2927 19.4055 7.39682C18.3454 7.60383 17.3225 7.96906 16.371 8.48026C15.9472 8.70203 15.5417 8.95714 15.1583 9.24315C14.5528 9.71604 13.9888 10.2397 13.4723 10.8085C13.091 11.2398 12.7421 11.6987 12.4284 12.1815C11.9034 12.9785 11.4595 13.8261 11.1035 14.7116C10.8979 15.1909 10.7195 15.6814 10.5692 16.1808C10.2424 17.3157 9.99532 18.4721 9.82984 19.6416C9.68239 20.7389 9.64926 21.8255 9.59263 22.9175C9.55203 23.705 9.64072 24.4914 9.68132 25.2788C9.72106 26.1167 9.81744 26.951 9.96981 27.7759C10.2829 29.4373 10.7327 31.0593 11.4881 32.584C11.9206 33.5076 12.4584 34.3782 13.0908 35.1783C14.3166 36.7361 15.9508 37.923 17.8114 38.607C19.2046 39.106 20.6417 39.2577 22.1269 39.2898Z" fill="#F6D600"/>
<path d="M22.1269 39.2898C20.6492 39.2577 19.2046 39.106 17.8145 38.5921C16.9425 38.2748 16.1161 37.8436 15.357 37.3099C14.5064 36.7032 13.7447 35.9807 13.094 35.1633C12.4642 34.3614 11.9266 33.4912 11.4913 32.5691C10.7358 31.0433 10.2946 29.4213 9.97295 27.7609C9.81892 26.9359 9.72181 26.1012 9.68233 25.2628C9.64173 24.4754 9.55304 23.689 9.59365 22.9015C9.64173 21.8095 9.67378 20.7175 9.83405 19.6256C9.99954 18.4561 10.2466 17.2997 10.5734 16.1648C10.7237 15.6654 10.9021 15.1749 11.1077 14.6956C11.4672 13.8117 11.9109 12.9644 12.4326 12.1655C12.75 11.6853 13.0987 11.2267 13.4765 10.7925C13.993 10.2237 14.557 9.70003 15.1625 9.22714C15.5477 8.94374 15.953 8.68877 16.3753 8.46425C17.3238 7.95032 18.3459 7.58561 19.4055 7.38295C19.9249 7.2802 20.4507 7.21344 20.9793 7.18315C21.3084 7.16712 21.63 7.14254 21.9591 7.13506C23.4464 7.10578 24.9265 7.34764 26.3271 7.84881C27.4251 8.25654 28.4482 8.84284 29.3551 9.58401C30.1575 10.2176 30.7997 10.9891 31.3938 11.8C31.9248 12.5502 32.3794 13.3516 32.7507 14.1924C33.4175 15.638 33.8192 17.1638 34.1002 18.7216C34.2405 19.4948 34.3368 20.2753 34.3887 21.0594C34.4443 21.9142 34.5244 22.753 34.4763 23.6046C34.4208 24.5202 34.3962 25.4349 34.284 26.3505C34.1576 27.3818 33.9703 28.4047 33.723 29.4139C33.6344 29.759 33.5297 30.1126 33.4175 30.4492C33.1604 31.2269 32.8575 31.9886 32.5103 32.7304C32.3575 33.051 32.1812 33.3565 32.0049 33.6611C31.6515 34.2715 31.2397 34.8462 30.7751 35.377C29.6934 36.6791 28.3169 37.7047 26.7598 38.3688C26.1178 38.6416 25.4508 38.8513 24.7681 38.9949C23.8996 39.1801 23.0149 39.2789 22.1269 39.2898ZM24.5117 34.5361C24.6324 34.5361 24.7607 34.5447 24.8814 34.5361C25.0021 34.5276 25.1218 34.4966 25.25 34.4881C26.4019 34.4138 27.5208 34.0729 28.5185 33.4922C29.4796 32.9566 30.3407 32.2585 31.0636 31.429C31.6181 30.7943 32.1321 30.1201 32.4932 29.3658C33.1958 27.9295 33.4611 26.3186 33.2561 24.7329C33.1002 23.5741 32.7642 22.4468 32.2603 21.3917C31.4899 19.7303 30.3979 18.2761 29.1532 16.9512C28.0298 15.7413 26.7561 14.6803 25.3633 13.7938C24.4323 13.1935 23.4264 12.7183 22.3716 12.3802C21.2315 12.0191 20.0594 11.8182 18.8456 11.9315C18.3964 11.9666 17.9508 12.0381 17.5132 12.1452C16.3982 12.4415 15.3547 12.9605 14.4456 13.6709C13.4768 14.4034 12.6474 15.3038 11.9966 16.3293C10.9613 17.934 10.5366 19.8571 10.8 21.7486C10.9559 22.927 11.3001 24.0728 11.8193 25.1421C12.4582 26.4487 13.2653 27.6661 14.2201 28.7632C15.0757 29.769 16.0249 30.6913 17.0548 31.5177C18.1043 32.3648 19.2594 33.072 20.491 33.6215C21.7574 34.1899 23.1241 34.5008 24.5117 34.5361Z" fill="#F4B400"/>
<path d="M36.4439 32.8343C36.4363 32.8343 36.4275 32.8266 36.4199 32.8266C36.4242 32.8261 36.4286 32.8265 36.4327 32.8279C36.4369 32.8292 36.4407 32.8314 36.4439 32.8343Z" fill="#636363"/>
<path d="M24.5117 34.5361C23.1197 34.5013 21.7488 34.1873 20.4803 33.6129C19.2467 33.0671 18.0912 32.3596 17.0441 31.5091C16.0143 30.6818 15.0651 29.7588 14.2094 28.7524C13.2702 27.6359 12.4432 26.4552 11.8086 25.1303C11.2899 24.0627 10.9458 22.9188 10.7892 21.7422C10.5318 19.8485 10.9621 17.9252 12.002 16.3218C12.6524 15.2964 13.4819 14.3963 14.4509 13.6645C15.3591 12.9532 16.4024 12.4341 17.5174 12.1387C17.9553 12.0309 18.4013 11.9594 18.8509 11.925C20.0636 11.8128 21.2272 12.0137 22.3769 12.3748C23.4299 12.7174 24.4352 13.1924 25.3686 13.7884C26.7637 14.671 28.0377 15.7316 29.1585 16.9436C30.4107 18.2814 31.4974 19.7217 32.2688 21.38C32.7722 22.4348 33.1079 23.5617 33.2636 24.72C33.4704 26.3057 33.2051 27.9173 32.5007 29.3529C32.132 30.1158 31.6256 30.7826 31.0721 31.4172C30.3503 32.2478 29.489 32.946 28.527 33.4805C27.5297 34.0619 26.4106 34.4029 25.2585 34.4763C25.1378 34.4838 25.0171 34.5158 24.8889 34.5244C24.7635 34.5362 24.6375 34.5401 24.5117 34.5361ZM23.893 15.2896C23.1041 15.2875 22.3211 15.4261 21.5808 15.6989C19.9504 16.2855 18.5774 17.2813 17.3572 18.4929C16.7653 19.0679 16.2287 19.6971 15.7544 20.3724C14.686 21.9463 13.9316 23.6077 14.0994 25.5673C14.1415 26.1584 14.2883 26.7373 14.5332 27.2769C15.0197 28.3362 15.7622 29.2579 16.6936 29.9588C17.6135 30.679 18.7325 31.0994 19.8991 31.1629C20.6606 31.2006 21.4223 31.0918 22.1429 30.8424C23.877 30.2793 25.3387 29.276 26.6305 28.0077C27.3947 27.267 28.0663 26.4365 28.6307 25.5342C29.4972 24.1131 30.0838 22.6119 29.947 20.8927C29.8835 20.0958 29.6449 19.3227 29.2482 18.6286C28.8319 17.9062 28.289 17.2645 27.6455 16.7342C26.5642 15.8239 25.3227 15.2971 23.893 15.2896Z" fill="#EA6E00"/>
<path d="M23.893 15.2896C25.3312 15.3056 26.5589 15.8239 27.6434 16.7427C28.2866 17.2737 28.8295 17.9157 29.2461 18.6382C29.6423 19.3325 29.8809 20.1055 29.9449 20.9023C30.0806 22.6204 29.4951 24.1142 28.6275 25.5438C28.0681 26.449 27.3964 27.2797 26.6283 28.0162C25.3355 29.2856 23.8738 30.2889 22.1407 30.8509C21.4202 31.1003 20.6585 31.2091 19.8969 31.1714C18.7309 31.1045 17.6128 30.6841 16.6915 29.9662C15.7643 29.2612 15.023 28.3407 14.5321 27.2843C14.2885 26.7443 14.1417 26.1656 14.0983 25.5748C13.9295 23.6066 14.6849 21.9419 15.7523 20.3788C16.2246 19.7024 16.7614 19.0733 17.355 18.5004C18.5752 17.2877 19.9482 16.2918 21.5777 15.7063C22.3169 15.4249 23.1021 15.2836 23.893 15.2896ZM27.4992 23.3587C27.5227 21.5605 26.7683 20.3403 25.266 19.6255C23.3428 18.7098 21.3405 18.7023 19.3403 19.3765C18.2718 19.7377 17.4053 20.3884 16.9073 21.4323C16.5829 22.1327 16.4608 22.9099 16.5547 23.6761C16.6669 24.752 17.1082 25.6517 17.9512 26.3259C19.0197 27.1807 20.3019 27.466 21.6215 27.5386C22.6683 27.6014 23.717 27.4509 24.704 27.0963C26.3911 26.4905 27.5472 25.1335 27.4992 23.3587Z" fill="#D50016"/>
<path d="M27.4992 23.3588C27.5473 25.1335 26.3912 26.483 24.7126 27.0984C23.7253 27.453 22.6762 27.6035 21.629 27.5408C20.2966 27.4681 19.0273 27.1871 17.9599 26.3281C17.1168 25.6539 16.667 24.7628 16.5623 23.6783C16.4687 22.912 16.5912 22.1348 16.916 21.4345C17.4139 20.3905 18.2804 19.7398 19.3489 19.3787C21.348 18.7045 23.3471 18.712 25.2746 19.6277C26.7684 20.3403 27.5259 21.5605 27.4992 23.3588Z" fill="#370773"/>
</svg>
