<svg width="100" height="100" viewBox="0 0 100 100" fill="none" xmlns="http://www.w3.org/2000/svg">
<circle cx="50" cy="50" r="50" fill="#E0ECAC"/>
<path fill-rule="evenodd" clip-rule="evenodd" d="M41.9147 32.7154C43.4389 32.7154 44.9632 32.8731 46.4874 33.1884L44.6478 38.2342C43.8068 38.1291 42.9133 38.0765 42.0198 38.0765C39.7597 38.0765 37.6048 38.4444 35.555 39.1803L34.714 33.8192C36.9741 33.0833 39.3918 32.7154 41.9147 32.7154ZM39.0765 66.2486C38.2881 64.882 37.6573 63.4629 37.1843 62.0438L42.4929 61.0977C42.8082 61.8861 43.1761 62.6745 43.6492 63.4104C44.7529 65.4076 46.172 67.0895 47.8014 68.4561L43.6492 71.8725C41.8621 70.2957 40.3379 68.4035 39.0765 66.2486ZM82.3332 57.366C82.1755 58.5223 81.9653 59.626 81.7025 60.7298L79.3899 59.7312C79.6527 58.7851 79.9155 57.839 80.0731 56.8929L82.3332 57.366ZM79.1796 66.5639C78.4964 67.7728 77.6554 68.8766 76.7093 69.9278L74.5018 67.5626C75.3428 66.7742 76.0786 65.8807 76.7619 64.9346L79.1796 66.5639ZM72.6622 73.5544C72.084 73.9749 71.5059 74.3954 70.8752 74.7633C69.7714 75.394 68.6151 75.9196 67.4588 76.3401L66.4076 72.3981C67.7741 71.9776 69.1933 71.3995 70.5073 70.6111C70.7175 70.5059 70.8752 70.4008 71.0854 70.2957L72.6622 73.5544ZM63.254 77.4964C60.8362 77.9169 58.3659 77.9694 55.9482 77.6015L57.4724 72.9762C59.4171 73.3442 61.467 73.3442 63.5168 73.0814L63.254 77.4964ZM53.3202 77.0759L55.3175 72.5032C53.0574 71.8725 50.9024 70.8213 49.0103 69.4022L45.3836 73.2916C47.7488 75.0786 50.4819 76.3401 53.3202 77.0759ZM27.9338 74.6056C27.0403 73.9223 26.1467 73.1865 25.3583 72.3455L27.3556 70.8739C28.0389 71.6097 28.7222 72.293 29.5106 72.9237L27.9338 74.6056ZM21.5215 67.2998C20.8908 66.0909 20.3126 64.7769 19.8396 63.4629L22.9931 62.7271C23.3085 63.8308 23.6764 64.9346 24.1495 65.9858L21.5215 67.2998ZM18.7358 58.1544C18.6307 57.4185 18.6307 56.7353 18.6307 55.9994C18.6307 54.6854 18.7358 53.4765 18.946 52.2151L22.888 53.2663C22.5201 54.6854 22.3624 56.2097 22.3624 57.7339V58.3646L18.7358 58.1544ZM20.0498 48.0103C20.8908 45.6977 22.0996 43.5427 23.5713 41.6506L26.83 45.2246C25.5686 46.8014 24.5174 48.5359 23.729 50.4806L20.0498 48.0103ZM25.3583 39.6007L28.3017 43.6478C29.9836 42.0185 31.9809 40.6519 34.1358 39.7059L32.6116 34.6601C29.8785 35.8164 27.4082 37.4983 25.3583 39.6007ZM69.5086 51.8997C68.7202 53.2663 67.8267 54.5277 66.8281 55.6315L63.3591 51.5318C63.8847 50.8485 64.3577 50.1127 64.7782 49.3769C65.9345 47.3796 66.6704 45.3298 67.0909 43.2274L72.1366 45.1195C71.611 47.4847 70.7701 49.7448 69.5086 51.8997ZM40.2328 18.8922C41.284 18.4191 42.3352 18.0512 43.4389 17.7884L43.7017 20.2587C42.7556 20.469 41.8096 20.7317 40.9161 21.0997L40.2328 18.8922ZM49.7461 17C51.1127 17 52.5318 17.1577 53.8983 17.4205L52.9523 20.5215C51.8485 20.2062 50.6922 20.0485 49.5359 19.9434L49.7461 17ZM59.0492 19.1024C59.7325 19.4178 60.3632 19.7331 60.9939 20.101C62.0977 20.7317 63.1489 21.4676 64.095 22.256L61.2042 25.1468C60.153 24.1481 58.9441 23.2546 57.5775 22.4662C57.4198 22.3611 57.2096 22.256 57.0519 22.1509L59.0492 19.1024ZM67.196 25.3045C68.7728 27.1966 70.0342 29.3516 70.9277 31.5591L66.1973 32.6103C65.4615 30.7181 64.4629 28.9311 63.2014 27.3017L67.196 25.3045ZM71.8213 34.1345C72.5571 36.9727 72.8199 39.9687 72.452 42.912L67.3011 41.7031C67.5639 39.3379 67.4062 36.9727 66.8281 34.7127L71.8213 34.1345Z" fill="#B8D344"/>
<path fill-rule="evenodd" clip-rule="evenodd" d="M30.8246 48.641C31.613 47.327 32.5065 46.0656 33.5052 44.9093L36.9741 49.009C36.4485 49.6922 35.9755 50.4281 35.5024 51.2165C34.3987 53.1612 33.6103 55.2636 33.2424 57.366L28.1966 55.4213C28.7222 53.1086 29.5632 50.796 30.8246 48.641ZM61.2568 34.3448C62.0452 35.7113 62.6233 37.0779 63.1489 38.5496L57.8404 39.4956C57.525 38.7072 57.1045 37.9188 56.6841 37.1304C55.5277 35.1857 54.1086 33.5038 52.4793 32.0847L56.6841 28.7209C58.4185 30.2977 59.9953 32.1898 61.2568 34.3448ZM18 43.1748C18.1051 42.0711 18.3154 40.9673 18.6307 39.8636L20.9434 40.8622C20.628 41.7557 20.4178 42.7018 20.2601 43.7004L18 43.1748ZM21.1536 33.9768C21.8369 32.8205 22.6778 31.6642 23.5713 30.613L25.7789 32.9782C24.9905 33.8192 24.2021 34.7127 23.5713 35.6062L21.1536 33.9768ZM27.6185 26.9864C28.1966 26.5659 28.8273 26.198 29.458 25.8301C30.5618 25.1994 31.6656 24.6212 32.8219 24.2007L33.9256 28.1427C32.5065 28.5632 31.14 29.1413 29.7734 29.9297C29.6157 30.0349 29.4055 30.14 29.2478 30.2451L27.6185 26.9864ZM37.0792 23.0444C39.497 22.6239 41.9673 22.5714 44.385 22.9393L42.8608 27.5645C40.8635 27.2492 38.8137 27.1966 36.8164 27.512L37.0792 23.0444ZM47.013 23.4649L45.0158 28.0376C47.2758 28.6683 49.3782 29.7195 51.3229 31.1386L54.9496 27.2492C52.5318 25.5147 49.8513 24.2007 47.013 23.4649ZM58.4185 67.8254C56.8417 67.8254 55.3175 67.6677 53.8458 67.4049L55.6854 62.3066C56.5264 62.4117 57.4199 62.5168 58.2608 62.5168C60.5735 62.5168 62.7284 62.0964 64.7783 61.4131L65.5667 66.7216C63.3066 67.4575 60.9414 67.8254 58.4185 67.8254ZM72.3995 25.9877C73.293 26.671 74.1339 27.4069 74.9223 28.1953L72.925 29.7195C72.2943 28.9837 71.5585 28.3004 70.8227 27.6697L72.3995 25.9877ZM78.7592 33.2936C79.4425 34.5024 80.0206 35.7639 80.4937 37.0779L77.3401 37.8137C77.0247 36.71 76.6042 35.6062 76.1312 34.555L78.7592 33.2936ZM81.5974 42.439C81.65 43.1223 81.7025 43.8581 81.7025 44.5939C81.7025 45.8554 81.5974 47.1168 81.3872 48.3257L77.4452 47.2745C77.7606 45.8554 77.9708 44.3837 77.9708 42.8069C77.9708 42.5967 77.9708 42.3864 77.9182 42.1762L81.5974 42.439ZM80.2834 52.583C79.4425 54.8957 78.2336 57.0506 76.7619 58.9428L73.4506 55.3162C74.7646 53.7394 75.8158 52.0049 76.5517 50.1127L80.2834 52.583ZM74.9223 60.9401L71.979 56.9455C70.2971 58.5749 68.3523 59.8889 66.1448 60.8349L67.7216 65.9332C70.4547 64.7244 72.8725 63.0424 74.9223 60.9401ZM60.1004 81.7012C59.0492 82.1217 57.9981 82.4896 56.8943 82.805L56.5789 80.2821C57.525 80.1244 58.4711 79.809 59.4172 79.4937L60.1004 81.7012ZM50.5871 83.5408C49.168 83.5408 47.8014 83.3831 46.4349 83.1203L47.381 80.0193C48.4847 80.3346 49.641 80.5449 50.7448 80.65L50.5871 83.5408ZM41.2315 81.4384C40.6007 81.123 39.97 80.8077 39.3393 80.4398C38.2355 79.809 37.1843 79.0732 36.2383 78.2848L39.0765 75.394C40.1803 76.3927 41.3891 77.3387 42.7031 78.0746C42.9134 78.1797 43.0711 78.2848 43.2813 78.3899L41.2315 81.4384ZM33.1372 75.2363C31.5079 73.3442 30.299 71.2418 29.3529 68.9817L34.1359 67.9305C34.8192 69.8227 35.8178 71.6097 37.1318 73.2391L33.1372 75.2363ZM28.512 66.4063C27.7236 63.568 27.5133 60.6247 27.8287 57.6288L32.9796 58.8377C32.7168 61.2029 32.927 63.568 33.5052 65.8807L28.512 66.4063Z" fill="#34A853"/>
</svg>
