<svg width="60" height="41" viewBox="0 0 60 41" fill="none" xmlns="http://www.w3.org/2000/svg">
<path fill-rule="evenodd" clip-rule="evenodd" d="M34.3671 0H53.4574V19.0156H34.3671V0ZM11.288 28.6342V30.4945H14.5782V40.3361H16.8469V30.4193H19.9103V28.559L11.288 28.6355V28.6342ZM9.59352 30.9405V29.0802C7.77344 28.2622 5.68035 28.015 3.53728 29.0802C0.0227333 30.6423 -0.102878 38.3777 3.41295 39.8902C5.43169 40.9069 9.64222 40.4355 10.0665 39.5423V33.4187H5.8803V35.0305H7.72345V38.2541C1.66721 41.1796 0.545685 27.1218 9.59352 30.9405ZM23.6004 34.9311H25.7678C27.5623 35.0063 28.0365 38.3777 25.6935 38.3522H23.6004V34.9311ZM23.6004 30.1963H25.7678C27.5623 30.5187 26.915 33.1715 25.6935 33.2454H23.6004V30.1963ZM21.3574 28.387V40.2367H27.3136C30.3539 39.146 30.4795 34.461 27.3136 33.964C30.2296 33.6429 30.3796 28.3119 25.3449 28.3119L21.3574 28.387ZM31.8741 31.7088V33.4684C33.4686 33.0224 36.9331 31.7827 36.6088 34.4113C33.5685 34.2125 31.4998 34.7578 31.1512 36.641C30.5782 40.7082 34.9644 41.1044 36.8088 39.0964V40.0634H38.9019V32.923C38.3789 30.6168 34.9156 30.3199 31.8741 31.7088ZM33.6429 36.2957C34.1171 35.6752 35.6373 35.6994 36.6588 35.9976V37.5597C34.99 39.3435 32.2983 38.5268 33.6442 36.2945L33.6429 36.2957ZM43.2393 33.8162C43.7879 33.2212 46.7039 32.105 47.1525 33.8162V40.1131H49.4942V33.4442C48.9956 30.6665 46.3283 30.1709 43.0893 32.0553V31.0144H40.8719V40.1628H43.2137L43.2393 33.8162ZM56.8463 30.915L53.7816 35.005L57.0219 40.038L59.8379 39.9641L56.2746 35.1299L59.4893 30.9889L56.8476 30.915H56.8463ZM51.2399 27.9143H53.5573V40.038H51.2387V27.9156L51.2399 27.9143Z" fill="#ABABAB"/>
</svg>
