<svg width="363" height="208" viewBox="0 0 363 208" fill="none" xmlns="http://www.w3.org/2000/svg">
<g filter="url(#filter0_d_866_4761)">
<rect x="50" y="40" width="263" height="107.774" rx="8.04281" fill="white"/>
<path d="M67.9343 65.6122C67.3563 65.6122 66.8459 65.5146 66.403 65.3194C65.9601 65.1167 65.611 64.8315 65.3558 64.4637C65.1006 64.0883 64.9692 63.6342 64.9617 63.1012H66.4818C66.4968 63.469 66.6282 63.7806 66.8759 64.0358C67.1311 64.2835 67.4802 64.4074 67.9231 64.4074C68.3059 64.4074 68.6099 64.3173 68.8351 64.1371C69.0603 63.9495 69.1729 63.7017 69.1729 63.394C69.1729 63.0712 69.0716 62.8197 68.8689 62.6395C68.6737 62.4594 68.411 62.313 68.0807 62.2004C67.7504 62.0878 67.3976 61.9677 67.0223 61.8401C66.4142 61.6299 65.9488 61.3597 65.6261 61.0294C65.3108 60.6991 65.1531 60.2599 65.1531 59.712C65.1456 59.2466 65.2545 58.8487 65.4797 58.5184C65.7124 58.1806 66.0277 57.9216 66.4255 57.7415C66.8234 57.5538 67.2813 57.46 67.7992 57.46C68.3247 57.46 68.7863 57.5538 69.1842 57.7415C69.5896 57.9291 69.9048 58.1919 70.13 58.5297C70.3627 58.8675 70.4866 59.2691 70.5016 59.7345H68.959C68.9515 59.4567 68.8426 59.2128 68.6325 59.0026C68.4298 58.7849 68.1445 58.676 67.7767 58.676C67.4614 58.6685 67.1949 58.7474 66.9772 58.9125C66.7671 59.0701 66.662 59.3029 66.662 59.6106C66.662 59.8734 66.7445 60.0835 66.9097 60.2412C67.0748 60.3913 67.3 60.5189 67.5853 60.624C67.8705 60.7291 68.1971 60.8417 68.5649 60.9618C68.9552 61.0969 69.3118 61.2546 69.6346 61.4347C69.9574 61.6149 70.2164 61.8551 70.4115 62.1554C70.6067 62.4481 70.7043 62.8272 70.7043 63.2926C70.7043 63.7055 70.5992 64.0883 70.389 64.4411C70.1788 64.7939 69.8673 65.0792 69.4544 65.2969C69.0416 65.5071 68.5349 65.6122 67.9343 65.6122ZM74.6417 65.6122C74.0787 65.6122 73.5795 65.4921 73.1441 65.2519C72.7087 65.0116 72.3671 64.6738 72.1194 64.2385C71.8717 63.8031 71.7479 63.3001 71.7479 62.7296C71.7479 62.1516 71.868 61.6374 72.1082 61.187C72.3559 60.7366 72.6937 60.3876 73.1216 60.1398C73.557 59.8846 74.0674 59.757 74.6529 59.757C75.2009 59.757 75.6851 59.8771 76.1054 60.1173C76.5258 60.3575 76.8524 60.6878 77.0851 61.1082C77.3253 61.5211 77.4454 61.9827 77.4454 62.4932C77.4454 62.5757 77.4416 62.6621 77.4341 62.7521C77.4341 62.8422 77.4304 62.9361 77.4229 63.0336H73.1779C73.2079 63.469 73.358 63.8106 73.6283 64.0583C73.906 64.306 74.2401 64.4299 74.6304 64.4299C74.9232 64.4299 75.1671 64.3661 75.3623 64.2385C75.565 64.1033 75.7151 63.9307 75.8127 63.7205H77.2765C77.1714 64.0733 76.995 64.3961 76.7473 64.6889C76.5071 64.9741 76.2068 65.1993 75.8465 65.3645C75.4937 65.5296 75.0921 65.6122 74.6417 65.6122ZM74.6529 60.928C74.3001 60.928 73.9886 61.0294 73.7183 61.2321C73.4481 61.4272 73.2755 61.7275 73.2004 62.1328H75.9816C75.9591 61.765 75.824 61.4723 75.5762 61.2546C75.3285 61.0369 75.0207 60.928 74.6529 60.928ZM78.6576 65.4771V59.8921H79.93L80.0426 60.838C80.2152 60.5077 80.4629 60.2449 80.7857 60.0498C81.116 59.8546 81.5026 59.757 81.9455 59.757C82.6361 59.757 83.1728 59.9747 83.5557 60.4101C83.9385 60.8455 84.1299 61.4835 84.1299 62.3243V65.4771H82.6886V62.4594C82.6886 61.979 82.5911 61.6111 82.3959 61.3559C82.2007 61.1007 81.8967 60.9731 81.4838 60.9731C81.0785 60.9731 80.7444 61.1157 80.4817 61.401C80.2265 61.6862 80.0989 62.0841 80.0989 62.5945V65.4771H78.6576ZM86.2851 59.0251C86.0223 59.0251 85.8046 58.9463 85.632 58.7886C85.4668 58.631 85.3843 58.4321 85.3843 58.1919C85.3843 57.9517 85.4668 57.7565 85.632 57.6064C85.8046 57.4487 86.0223 57.3699 86.2851 57.3699C86.5478 57.3699 86.7617 57.4487 86.9269 57.6064C87.0995 57.7565 87.1858 57.9517 87.1858 58.1919C87.1858 58.4321 87.0995 58.631 86.9269 58.7886C86.7617 58.9463 86.5478 59.0251 86.2851 59.0251ZM85.5644 65.4771V59.8921H87.0057V65.4771H85.5644ZM91.1899 65.6122C90.6494 65.6122 90.1615 65.4883 89.7261 65.2406C89.2982 64.9929 88.9567 64.6513 88.7015 64.2159C88.4537 63.773 88.3299 63.2626 88.3299 62.6846C88.3299 62.1066 88.4575 61.5999 88.7127 61.1645C88.9679 60.7216 89.3095 60.3763 89.7374 60.1286C90.1727 59.8809 90.6607 59.757 91.2012 59.757C91.7341 59.757 92.2146 59.8809 92.6424 60.1286C93.0778 60.3763 93.4194 60.7216 93.6671 61.1645C93.9223 61.5999 94.0499 62.1066 94.0499 62.6846C94.0499 63.2626 93.9223 63.773 93.6671 64.2159C93.4194 64.6513 93.0778 64.9929 92.6424 65.2406C92.207 65.4883 91.7229 65.6122 91.1899 65.6122ZM91.1899 64.3623C91.5652 64.3623 91.8918 64.2234 92.1695 63.9457C92.4473 63.6604 92.5861 63.2401 92.5861 62.6846C92.5861 62.1291 92.4473 61.7125 92.1695 61.4347C91.8918 61.1495 91.569 61.0069 91.2012 61.0069C90.8183 61.0069 90.488 61.1495 90.2103 61.4347C89.94 61.7125 89.8049 62.1291 89.8049 62.6846C89.8049 63.2401 89.94 63.6604 90.2103 63.9457C90.488 64.2234 90.8146 64.3623 91.1899 64.3623ZM95.3386 65.4771V59.8921H96.6222L96.7573 60.9393C96.96 60.579 97.234 60.2937 97.5793 60.0835C97.9321 59.8658 98.345 59.757 98.8179 59.757V61.2771H98.4125C98.0973 61.2771 97.8158 61.3259 97.568 61.4235C97.3203 61.5211 97.1251 61.69 96.9825 61.9302C96.8474 62.1704 96.7798 62.5044 96.7798 62.9323V65.4771H95.3386ZM102.52 65.4771V57.5951H105.436C106.067 57.5951 106.588 57.7002 107.001 57.9104C107.414 58.1206 107.722 58.4096 107.925 58.7774C108.127 59.1452 108.229 59.5581 108.229 60.016C108.229 60.4514 108.131 60.853 107.936 61.2208C107.741 61.5811 107.437 61.8739 107.024 62.0991C106.611 62.3168 106.082 62.4256 105.436 62.4256H103.961V65.4771H102.52ZM103.961 61.2546H105.346C105.849 61.2546 106.209 61.1457 106.427 60.928C106.652 60.7028 106.765 60.3988 106.765 60.016C106.765 59.6256 106.652 59.3216 106.427 59.1039C106.209 58.8787 105.849 58.7661 105.346 58.7661H103.961V61.2546ZM109.326 65.4771V59.8921H110.609L110.744 60.9393C110.947 60.579 111.221 60.2937 111.566 60.0835C111.919 59.8658 112.332 59.757 112.805 59.757V61.2771H112.399C112.084 61.2771 111.803 61.3259 111.555 61.4235C111.307 61.5211 111.112 61.69 110.969 61.9302C110.834 62.1704 110.767 62.5044 110.767 62.9323V65.4771H109.326ZM116.371 65.6122C115.83 65.6122 115.342 65.4883 114.907 65.2406C114.479 64.9929 114.138 64.6513 113.882 64.2159C113.635 63.773 113.511 63.2626 113.511 62.6846C113.511 62.1066 113.638 61.5999 113.894 61.1645C114.149 60.7216 114.49 60.3763 114.918 60.1286C115.354 59.8809 115.842 59.757 116.382 59.757C116.915 59.757 117.395 59.8809 117.823 60.1286C118.259 60.3763 118.6 60.7216 118.848 61.1645C119.103 61.5999 119.231 62.1066 119.231 62.6846C119.231 63.2626 119.103 63.773 118.848 64.2159C118.6 64.6513 118.259 64.9929 117.823 65.2406C117.388 65.4883 116.904 65.6122 116.371 65.6122ZM116.371 64.3623C116.746 64.3623 117.073 64.2234 117.35 63.9457C117.628 63.6604 117.767 63.2401 117.767 62.6846C117.767 62.1291 117.628 61.7125 117.35 61.4347C117.073 61.1495 116.75 61.0069 116.382 61.0069C115.999 61.0069 115.669 61.1495 115.391 61.4347C115.121 61.7125 114.986 62.1291 114.986 62.6846C114.986 63.2401 115.121 63.6604 115.391 63.9457C115.669 64.2234 115.995 64.3623 116.371 64.3623ZM123.087 65.6122C122.561 65.6122 122.092 65.4846 121.679 65.2293C121.266 64.9741 120.94 64.625 120.7 64.1822C120.459 63.7393 120.339 63.2363 120.339 62.6733C120.339 62.1103 120.459 61.6111 120.7 61.1758C120.94 60.7329 121.266 60.3876 121.679 60.1398C122.092 59.8846 122.561 59.757 123.087 59.757C123.507 59.757 123.875 59.8358 124.19 59.9935C124.506 60.1511 124.761 60.3725 124.956 60.6578V57.3699H126.397V65.4771H125.114L124.956 64.6776C124.776 64.9253 124.536 65.143 124.235 65.3307C123.943 65.5183 123.56 65.6122 123.087 65.6122ZM123.391 64.3511C123.856 64.3511 124.235 64.1972 124.528 63.8894C124.828 63.5741 124.978 63.1725 124.978 62.6846C124.978 62.1967 124.828 61.7988 124.528 61.491C124.235 61.1758 123.856 61.0181 123.391 61.0181C122.933 61.0181 122.554 61.172 122.254 61.4798C121.953 61.7875 121.803 62.1854 121.803 62.6733C121.803 63.1613 121.953 63.5629 122.254 63.8781C122.554 64.1934 122.933 64.3511 123.391 64.3511ZM129.959 65.6122C129.261 65.6122 128.721 65.3945 128.338 64.9591C127.962 64.5237 127.775 63.8856 127.775 63.0449V59.8921H129.205V62.9098C129.205 63.3902 129.302 63.758 129.498 64.0133C129.693 64.2685 130 64.3961 130.421 64.3961C130.819 64.3961 131.145 64.2535 131.4 63.9682C131.663 63.683 131.795 63.2851 131.795 62.7747V59.8921H133.236V65.4771H131.963L131.851 64.5312C131.678 64.8615 131.427 65.1242 131.096 65.3194C130.774 65.5146 130.395 65.6122 129.959 65.6122ZM137.452 65.6122C136.881 65.6122 136.378 65.4883 135.943 65.2406C135.507 64.9929 135.162 64.6476 134.907 64.2047C134.659 63.7618 134.535 63.2551 134.535 62.6846C134.535 62.1141 134.659 61.6074 134.907 61.1645C135.162 60.7216 135.507 60.3763 135.943 60.1286C136.378 59.8809 136.881 59.757 137.452 59.757C138.165 59.757 138.765 59.9447 139.253 60.32C139.741 60.6878 140.053 61.1983 140.188 61.8514H138.668C138.593 61.5811 138.442 61.3709 138.217 61.2208C138 61.0632 137.741 60.9843 137.44 60.9843C137.042 60.9843 136.705 61.1345 136.427 61.4347C136.149 61.735 136.01 62.1516 136.01 62.6846C136.01 63.2176 136.149 63.6342 136.427 63.9344C136.705 64.2347 137.042 64.3848 137.44 64.3848C137.741 64.3848 138 64.3098 138.217 64.1596C138.442 64.0095 138.593 63.7956 138.668 63.5178H140.188C140.053 64.1484 139.741 64.6551 139.253 65.0379C138.765 65.4208 138.165 65.6122 137.452 65.6122ZM143.878 65.4771C143.293 65.4771 142.824 65.3344 142.471 65.0492C142.118 64.7639 141.942 64.2572 141.942 63.5291V61.0969H140.985V59.8921H141.942L142.111 58.3945H143.383V59.8921H144.892V61.0969H143.383V63.5403C143.383 63.8106 143.439 63.9982 143.552 64.1033C143.672 64.2009 143.875 64.2497 144.16 64.2497H144.858V65.4771H143.878ZM148.846 65.4771V57.5951H151.537C152.461 57.5951 153.219 57.7602 153.812 58.0905C154.412 58.4133 154.855 58.8712 155.14 59.4642C155.433 60.0498 155.58 60.7404 155.58 61.5361C155.58 62.3318 155.433 63.0261 155.14 63.6192C154.855 64.2047 154.412 64.6626 153.812 64.9929C153.219 65.3157 152.461 65.4771 151.537 65.4771H148.846ZM150.287 64.2385H151.47C152.13 64.2385 152.652 64.1334 153.035 63.9232C153.418 63.7055 153.692 63.3977 153.857 62.9999C154.022 62.5945 154.104 62.1066 154.104 61.5361C154.104 60.9731 154.022 60.4889 153.857 60.0835C153.692 59.6782 153.418 59.3667 153.035 59.149C152.652 58.9313 152.13 58.8224 151.47 58.8224H150.287V64.2385ZM159.531 65.6122C158.968 65.6122 158.469 65.4921 158.033 65.2519C157.598 65.0116 157.257 64.6738 157.009 64.2385C156.761 63.8031 156.637 63.3001 156.637 62.7296C156.637 62.1516 156.757 61.6374 156.998 61.187C157.245 60.7366 157.583 60.3876 158.011 60.1398C158.446 59.8846 158.957 59.757 159.542 59.757C160.09 59.757 160.574 59.8771 160.995 60.1173C161.415 60.3575 161.742 60.6878 161.974 61.1082C162.215 61.5211 162.335 61.9827 162.335 62.4932C162.335 62.5757 162.331 62.6621 162.324 62.7521C162.324 62.8422 162.32 62.9361 162.312 63.0336H158.067C158.097 63.469 158.247 63.8106 158.518 64.0583C158.795 64.306 159.129 64.4299 159.52 64.4299C159.813 64.4299 160.057 64.3661 160.252 64.2385C160.454 64.1033 160.604 63.9307 160.702 63.7205H162.166C162.061 64.0733 161.884 64.3961 161.637 64.6889C161.396 64.9741 161.096 65.1993 160.736 65.3645C160.383 65.5296 159.981 65.6122 159.531 65.6122ZM159.542 60.928C159.189 60.928 158.878 61.0294 158.608 61.2321C158.337 61.4272 158.165 61.7275 158.09 62.1328H160.871C160.848 61.765 160.713 61.4723 160.466 61.2546C160.218 61.0369 159.91 60.928 159.542 60.928ZM165.855 65.6122C165.36 65.6122 164.924 65.5334 164.549 65.3757C164.174 65.2106 163.874 64.9854 163.648 64.7001C163.423 64.4149 163.288 64.0846 163.243 63.7092H164.695C164.741 63.9269 164.861 64.1146 165.056 64.2722C165.258 64.4224 165.517 64.4974 165.833 64.4974C166.148 64.4974 166.377 64.4336 166.52 64.306C166.67 64.1784 166.745 64.032 166.745 63.8669C166.745 63.6267 166.64 63.4653 166.43 63.3827C166.219 63.2926 165.927 63.2063 165.551 63.1237C165.311 63.0712 165.067 63.0074 164.819 62.9323C164.572 62.8572 164.343 62.7634 164.132 62.6508C163.93 62.5307 163.765 62.3806 163.637 62.2004C163.509 62.0127 163.446 61.7838 163.446 61.5136C163.446 61.0181 163.641 60.6015 164.031 60.2637C164.429 59.9259 164.984 59.757 165.698 59.757C166.358 59.757 166.884 59.9109 167.274 60.2187C167.672 60.5264 167.908 60.9506 167.983 61.491H166.621C166.538 61.0782 166.227 60.8717 165.686 60.8717C165.416 60.8717 165.206 60.9243 165.056 61.0294C164.913 61.1345 164.842 61.2658 164.842 61.4235C164.842 61.5886 164.951 61.72 165.168 61.8176C165.386 61.9152 165.675 62.0052 166.035 62.0878C166.426 62.1779 166.782 62.2792 167.105 62.3918C167.435 62.4969 167.698 62.6583 167.893 62.876C168.088 63.0862 168.186 63.3902 168.186 63.7881C168.194 64.1334 168.103 64.4449 167.916 64.7226C167.728 65.0004 167.458 65.2181 167.105 65.3757C166.752 65.5334 166.336 65.6122 165.855 65.6122ZM170.24 59.0251C169.977 59.0251 169.759 58.9463 169.587 58.7886C169.422 58.631 169.339 58.4321 169.339 58.1919C169.339 57.9517 169.422 57.7565 169.587 57.6064C169.759 57.4487 169.977 57.3699 170.24 57.3699C170.503 57.3699 170.716 57.4487 170.882 57.6064C171.054 57.7565 171.141 57.9517 171.141 58.1919C171.141 58.4321 171.054 58.631 170.882 58.7886C170.716 58.9463 170.503 59.0251 170.24 59.0251ZM169.519 65.4771V59.8921H170.96V65.4771H169.519ZM174.829 63.8106C174.559 63.8106 174.308 63.7806 174.075 63.7205L173.658 64.1371C173.786 64.2047 173.959 64.261 174.176 64.306C174.394 64.3511 174.747 64.3961 175.235 64.4411C175.978 64.5087 176.518 64.6851 176.856 64.9704C177.194 65.2556 177.363 65.6497 177.363 66.1526C177.363 66.4829 177.273 66.7945 177.093 67.0872C176.912 67.3875 176.635 67.6277 176.259 67.8079C175.884 67.9955 175.404 68.0894 174.818 68.0894C174.022 68.0894 173.381 67.9392 172.893 67.639C172.405 67.3462 172.161 66.9033 172.161 66.3103C172.161 65.8073 172.405 65.372 172.893 65.0041C172.742 64.9366 172.611 64.8653 172.499 64.7902C172.393 64.7151 172.3 64.6363 172.217 64.5537V64.2948L173.197 63.2588C172.761 62.876 172.544 62.3843 172.544 61.7838C172.544 61.4085 172.634 61.0669 172.814 60.7591C173.001 60.4514 173.264 60.2074 173.602 60.0272C173.94 59.8471 174.349 59.757 174.829 59.757C175.145 59.757 175.437 59.802 175.708 59.8921H177.824V60.7704L176.867 60.838C177.018 61.1232 177.093 61.4385 177.093 61.7838C177.093 62.1591 177.003 62.5007 176.822 62.8084C176.642 63.1162 176.379 63.3602 176.034 63.5403C175.696 63.7205 175.295 63.8106 174.829 63.8106ZM174.829 62.7071C175.122 62.7071 175.362 62.6283 175.55 62.4706C175.745 62.313 175.843 62.0878 175.843 61.7951C175.843 61.5023 175.745 61.2771 175.55 61.1195C175.362 60.9618 175.122 60.883 174.829 60.883C174.522 60.883 174.274 60.9618 174.086 61.1195C173.899 61.2771 173.805 61.5023 173.805 61.7951C173.805 62.0878 173.899 62.313 174.086 62.4706C174.274 62.6283 174.522 62.7071 174.829 62.7071ZM173.478 66.1639C173.478 66.4417 173.606 66.6481 173.861 66.7832C174.124 66.9258 174.443 66.9971 174.818 66.9971C175.178 66.9971 175.471 66.9221 175.696 66.7719C175.922 66.6293 176.034 66.4341 176.034 66.1864C176.034 65.9837 175.959 65.8148 175.809 65.6797C175.666 65.5446 175.377 65.462 174.942 65.432C174.634 65.4095 174.349 65.3757 174.086 65.3307C173.868 65.4508 173.711 65.5821 173.613 65.7248C173.523 65.8674 173.478 66.0138 173.478 66.1639ZM178.875 65.4771V59.8921H180.148L180.26 60.838C180.433 60.5077 180.681 60.2449 181.004 60.0498C181.334 59.8546 181.72 59.757 182.163 59.757C182.854 59.757 183.391 59.9747 183.774 60.4101C184.156 60.8455 184.348 61.4835 184.348 62.3243V65.4771H182.907V62.4594C182.907 61.979 182.809 61.6111 182.614 61.3559C182.419 61.1007 182.115 60.9731 181.702 60.9731C181.296 60.9731 180.962 61.1157 180.7 61.401C180.444 61.6862 180.317 62.0841 180.317 62.5945V65.4771H178.875ZM188.44 65.6122C187.877 65.6122 187.377 65.4921 186.942 65.2519C186.507 65.0116 186.165 64.6738 185.917 64.2385C185.67 63.8031 185.546 63.3001 185.546 62.7296C185.546 62.1516 185.666 61.6374 185.906 61.187C186.154 60.7366 186.492 60.3876 186.92 60.1398C187.355 59.8846 187.865 59.757 188.451 59.757C188.999 59.757 189.483 59.8771 189.903 60.1173C190.324 60.3575 190.65 60.6878 190.883 61.1082C191.123 61.5211 191.243 61.9827 191.243 62.4932C191.243 62.5757 191.24 62.6621 191.232 62.7521C191.232 62.8422 191.228 62.9361 191.221 63.0336H186.976C187.006 63.469 187.156 63.8106 187.426 64.0583C187.704 64.306 188.038 64.4299 188.428 64.4299C188.721 64.4299 188.965 64.3661 189.16 64.2385C189.363 64.1033 189.513 63.9307 189.611 63.7205H191.074C190.969 64.0733 190.793 64.3961 190.545 64.6889C190.305 64.9741 190.005 65.1993 189.644 65.3645C189.292 65.5296 188.89 65.6122 188.44 65.6122ZM188.451 60.928C188.098 60.928 187.787 61.0294 187.516 61.2321C187.246 61.4272 187.073 61.7275 186.998 62.1328H189.78C189.757 61.765 189.622 61.4723 189.374 61.2546C189.126 61.0369 188.819 60.928 188.451 60.928ZM192.456 65.4771V59.8921H193.739L193.874 60.9393C194.077 60.579 194.351 60.2937 194.696 60.0835C195.049 59.8658 195.462 59.757 195.935 59.757V61.2771H195.53C195.214 61.2771 194.933 61.3259 194.685 61.4235C194.437 61.5211 194.242 61.69 194.099 61.9302C193.964 62.1704 193.897 62.5044 193.897 62.9323V65.4771H192.456Z" fill="#200E32"/>
<path opacity="0.7" d="M65.1917 82.9756V76.2196H69.3032V76.8856H66.0025V79.2598H68.811V79.9161H66.0025V82.9756H65.1917ZM70.2991 82.9756V76.0266H71.1098V82.9756H70.2991ZM74.1855 83.0914C73.6193 83.0914 73.1689 82.9209 72.8343 82.5799C72.4997 82.2324 72.3324 81.7016 72.3324 80.9874V78.1885H73.1431V80.9005C73.1431 81.8978 73.5517 82.3965 74.3688 82.3965C74.7871 82.3965 75.1313 82.2485 75.4015 81.9525C75.6782 81.6501 75.8166 81.2223 75.8166 80.6689V78.1885H76.6273V82.9756H75.8938L75.8359 82.1166C75.6879 82.419 75.4659 82.6571 75.1699 82.8308C74.8804 83.0045 74.5522 83.0914 74.1855 83.0914ZM79.8534 82.9756C79.4159 82.9756 79.0716 82.8694 78.8207 82.6571C78.5698 82.4448 78.4443 82.0619 78.4443 81.5086V78.8738H77.6143V78.1885H78.4443L78.5505 77.04H79.255V78.1885H80.6641V78.8738H79.255V81.5086C79.255 81.811 79.3161 82.0169 79.4384 82.1263C79.5606 82.2292 79.7762 82.2807 80.085 82.2807H80.5869V82.9756H79.8534ZM83.5858 82.9756C83.1482 82.9756 82.804 82.8694 82.5531 82.6571C82.3021 82.4448 82.1767 82.0619 82.1767 81.5086V78.8738H81.3466V78.1885H82.1767L82.2828 77.04H82.9874V78.1885H84.3965V78.8738H82.9874V81.5086C82.9874 81.811 83.0485 82.0169 83.1707 82.1263C83.293 82.2292 83.5085 82.2807 83.8174 82.2807H84.3193V82.9756H83.5858ZM87.4468 83.0914C86.9899 83.0914 86.5846 82.9885 86.2307 82.7826C85.8768 82.5702 85.5969 82.2775 85.391 81.9043C85.1916 81.5311 85.0918 81.0904 85.0918 80.582C85.0918 80.0802 85.1916 79.6426 85.391 79.2695C85.5905 78.8898 85.8672 78.5971 86.221 78.3912C86.5814 78.1789 86.9964 78.0727 87.4661 78.0727C87.9293 78.0727 88.3283 78.1789 88.6628 78.3912C89.0038 78.5971 89.2644 78.8705 89.4446 79.2115C89.6248 79.5526 89.7148 79.9193 89.7148 80.3118C89.7148 80.3826 89.7116 80.4534 89.7052 80.5241C89.7052 80.5949 89.7052 80.6753 89.7052 80.7654H85.8929C85.9122 81.1322 85.9958 81.4378 86.1438 81.6823C86.2982 81.9204 86.4881 82.1005 86.7133 82.2228C86.9449 82.345 87.1894 82.4062 87.4468 82.4062C87.7813 82.4062 88.0612 82.3289 88.2864 82.1745C88.5116 82.0201 88.6757 81.811 88.7786 81.5472H89.5797C89.451 81.9911 89.2033 82.3611 88.8366 82.6571C88.4762 82.9466 88.013 83.0914 87.4468 83.0914ZM87.4468 78.7579C87.0607 78.7579 86.7165 78.877 86.4141 79.115C86.1181 79.3467 85.9476 79.6877 85.9025 80.1381H88.9138C88.8945 79.707 88.7465 79.3692 88.4698 79.1247C88.1931 78.8802 87.8521 78.7579 87.4468 78.7579ZM90.7894 82.9756V78.1885H91.5229L91.5904 79.1054C91.7384 78.7901 91.9636 78.5392 92.266 78.3526C92.5684 78.166 92.9416 78.0727 93.3856 78.0727V78.922H93.1636C92.8805 78.922 92.6199 78.9735 92.3819 79.0764C92.1438 79.1729 91.954 79.3402 91.8124 79.5783C91.6709 79.8164 91.6001 80.1445 91.6001 80.5627V82.9756H90.7894ZM95.2607 82.9756L93.8612 78.1885H94.6719L95.6853 81.9429L96.8049 78.1885H97.7218L98.851 81.9429L99.8547 78.1885H100.675L99.2757 82.9756H98.4456L97.2682 79.0282L96.0907 82.9756H95.2607ZM102.995 83.0914C102.596 83.0914 102.264 83.0238 102.001 82.8887C101.737 82.7536 101.54 82.5734 101.412 82.3482C101.283 82.123 101.219 81.8785 101.219 81.6147C101.219 81.1257 101.405 80.7493 101.779 80.4855C102.152 80.2217 102.66 80.0898 103.303 80.0898H104.597V80.0319C104.597 79.6137 104.487 79.2984 104.269 79.0861C104.05 78.8673 103.757 78.7579 103.39 78.7579C103.075 78.7579 102.802 78.8384 102.57 78.9992C102.345 79.1536 102.203 79.3821 102.145 79.6845H101.315C101.347 79.337 101.463 79.0443 101.663 78.8062C101.869 78.5681 102.123 78.388 102.425 78.2657C102.728 78.137 103.049 78.0727 103.39 78.0727C104.059 78.0727 104.561 78.2528 104.896 78.6132C105.237 78.967 105.407 79.44 105.407 80.0319V82.9756H104.684L104.635 82.1166C104.5 82.3869 104.301 82.6185 104.037 82.8115C103.78 82.9981 103.432 83.0914 102.995 83.0914ZM103.12 82.4062C103.429 82.4062 103.693 82.3257 103.911 82.1649C104.137 82.004 104.307 81.7949 104.423 81.5375C104.539 81.2802 104.597 81.0099 104.597 80.7268V80.7172H103.371C102.895 80.7172 102.557 80.8008 102.358 80.9681C102.165 81.129 102.068 81.3316 102.068 81.5761C102.068 81.8271 102.158 82.0298 102.338 82.1842C102.525 82.3322 102.785 82.4062 103.12 82.4062ZM107.825 82.9756L106.01 78.1885H106.86L108.298 82.1938L109.745 78.1885H110.575L108.761 82.9756H107.825ZM113.385 83.0914C112.928 83.0914 112.523 82.9885 112.169 82.7826C111.815 82.5702 111.535 82.2775 111.329 81.9043C111.13 81.5311 111.03 81.0904 111.03 80.582C111.03 80.0802 111.13 79.6426 111.329 79.2695C111.529 78.8898 111.805 78.5971 112.159 78.3912C112.519 78.1789 112.934 78.0727 113.404 78.0727C113.867 78.0727 114.266 78.1789 114.601 78.3912C114.942 78.5971 115.203 78.8705 115.383 79.2115C115.563 79.5526 115.653 79.9193 115.653 80.3118C115.653 80.3826 115.65 80.4534 115.643 80.5241C115.643 80.5949 115.643 80.6753 115.643 80.7654H111.831C111.85 81.1322 111.934 81.4378 112.082 81.6823C112.236 81.9204 112.426 82.1005 112.651 82.2228C112.883 82.345 113.127 82.4062 113.385 82.4062C113.719 82.4062 113.999 82.3289 114.225 82.1745C114.45 82.0201 114.614 81.811 114.717 81.5472H115.518C115.389 81.9911 115.141 82.3611 114.775 82.6571C114.414 82.9466 113.951 83.0914 113.385 83.0914ZM113.385 78.7579C112.999 78.7579 112.655 78.877 112.352 79.115C112.056 79.3467 111.886 79.6877 111.841 80.1381H114.852C114.833 79.707 114.685 79.3692 114.408 79.1247C114.131 78.8802 113.79 78.7579 113.385 78.7579Z" fill="#200E32"/>
<path opacity="0.7" d="M65.0132 130.645V125.578H66.6781C67.0738 125.578 67.3995 125.643 67.6553 125.774C67.911 125.904 68.0992 126.08 68.2199 126.302C68.3453 126.524 68.4081 126.775 68.4081 127.055C68.4081 127.33 68.3477 127.579 68.2271 127.801C68.1065 128.023 67.9183 128.201 67.6625 128.336C67.4067 128.466 67.0786 128.532 66.6781 128.532H65.6212V130.645H65.0132ZM65.6212 128.018H66.6636C67.0689 128.018 67.3561 127.933 67.525 127.764C67.6987 127.591 67.7855 127.354 67.7855 127.055C67.7855 126.751 67.6987 126.514 67.525 126.346C67.3561 126.172 67.0689 126.085 66.6636 126.085H65.6212V128.018ZM70.5927 130.732C70.2549 130.732 69.9509 130.655 69.6806 130.5C69.4104 130.346 69.1956 130.129 69.0364 129.849C68.882 129.564 68.8048 129.231 68.8048 128.85C68.8048 128.469 68.8844 128.138 69.0436 127.858C69.2029 127.574 69.4176 127.354 69.6879 127.2C69.9629 127.045 70.2694 126.968 70.6072 126.968C70.945 126.968 71.249 127.045 71.5192 127.2C71.7895 127.354 72.0018 127.574 72.1562 127.858C72.3155 128.138 72.3951 128.469 72.3951 128.85C72.3951 129.231 72.3155 129.564 72.1562 129.849C71.997 130.129 71.7798 130.346 71.5047 130.5C71.2345 130.655 70.9305 130.732 70.5927 130.732ZM70.5927 130.211C70.8002 130.211 70.9932 130.16 71.1718 130.059C71.3503 129.958 71.4951 129.806 71.6061 129.603C71.7171 129.4 71.7726 129.149 71.7726 128.85C71.7726 128.551 71.7171 128.3 71.6061 128.097C71.4999 127.895 71.3576 127.743 71.179 127.641C71.0005 127.54 70.8098 127.489 70.6072 127.489C70.3997 127.489 70.2066 127.54 70.0281 127.641C69.8495 127.743 69.7048 127.895 69.5938 128.097C69.4828 128.3 69.4273 128.551 69.4273 128.85C69.4273 129.149 69.4828 129.4 69.5938 129.603C69.7048 129.806 69.8471 129.958 70.0208 130.059C70.1994 130.16 70.39 130.211 70.5927 130.211ZM74.6158 130.732C74.1864 130.732 73.8293 130.624 73.5445 130.406C73.2598 130.189 73.0933 129.895 73.0451 129.523H73.6676C73.7062 129.711 73.8051 129.876 73.9644 130.016C74.1284 130.151 74.348 130.218 74.6231 130.218C74.8788 130.218 75.067 130.165 75.1877 130.059C75.3083 129.948 75.3686 129.818 75.3686 129.668C75.3686 129.451 75.289 129.306 75.1298 129.234C74.9754 129.161 74.7558 129.096 74.4711 129.038C74.278 129 74.085 128.944 73.892 128.872C73.699 128.799 73.5373 128.698 73.407 128.568C73.2767 128.433 73.2116 128.257 73.2116 128.039C73.2116 127.726 73.3274 127.47 73.559 127.272C73.7955 127.069 74.114 126.968 74.5145 126.968C74.8957 126.968 75.207 127.065 75.4483 127.258C75.6944 127.446 75.8367 127.716 75.8753 128.068H75.2745C75.2504 127.885 75.1708 127.743 75.0357 127.641C74.9054 127.535 74.7292 127.482 74.5073 127.482C74.2901 127.482 74.1212 127.528 74.0006 127.62C73.8847 127.711 73.8268 127.832 73.8268 127.981C73.8268 128.126 73.9016 128.24 74.0512 128.322C74.2057 128.404 74.4132 128.474 74.6737 128.532C74.8957 128.58 75.1056 128.64 75.3035 128.713C75.5062 128.78 75.6703 128.884 75.7957 129.024C75.926 129.159 75.9912 129.357 75.9912 129.617C75.996 129.941 75.8729 130.209 75.622 130.421C75.3759 130.628 75.0405 130.732 74.6158 130.732ZM78.116 130.645C77.7878 130.645 77.5296 130.566 77.3414 130.406C77.1532 130.247 77.0591 129.96 77.0591 129.545V127.569H76.4366V127.055H77.0591L77.1387 126.194H77.6672V127.055H78.724V127.569H77.6672V129.545C77.6672 129.772 77.713 129.926 77.8047 130.008C77.8964 130.085 78.058 130.124 78.2897 130.124H78.6661V130.645H78.116ZM81.0117 130.732C80.6691 130.732 80.3651 130.655 80.0996 130.5C79.8342 130.341 79.6243 130.122 79.4699 129.842C79.3203 129.562 79.2455 129.231 79.2455 128.85C79.2455 128.474 79.3203 128.146 79.4699 127.866C79.6195 127.581 79.827 127.361 80.0924 127.207C80.3626 127.048 80.6739 126.968 81.0262 126.968C81.3736 126.968 81.6728 127.048 81.9238 127.207C82.1795 127.361 82.375 127.566 82.5101 127.822C82.6452 128.078 82.7128 128.353 82.7128 128.647C82.7128 128.701 82.7103 128.754 82.7055 128.807C82.7055 128.86 82.7055 128.92 82.7055 128.988H79.8463C79.8608 129.263 79.9235 129.492 80.0345 129.675C80.1503 129.854 80.2927 129.989 80.4616 130.081C80.6353 130.172 80.8187 130.218 81.0117 130.218C81.2626 130.218 81.4726 130.16 81.6415 130.044C81.8104 129.929 81.9334 129.772 82.0106 129.574H82.6114C82.5149 129.907 82.3291 130.184 82.0541 130.406C81.7838 130.624 81.4364 130.732 81.0117 130.732ZM81.0117 127.482C80.7222 127.482 80.464 127.571 80.2372 127.75C80.0152 127.924 79.8873 128.179 79.8535 128.517H82.112C82.0975 128.194 81.9865 127.94 81.779 127.757C81.5715 127.574 81.3157 127.482 81.0117 127.482ZM85.1473 130.732C84.7902 130.732 84.4766 130.65 84.2063 130.486C83.9409 130.322 83.7334 130.098 83.5838 129.813C83.439 129.528 83.3667 129.205 83.3667 128.843C83.3667 128.481 83.4415 128.16 83.5911 127.88C83.7406 127.595 83.9482 127.373 84.2136 127.214C84.479 127.05 84.7926 126.968 85.1546 126.968C85.4489 126.968 85.7095 127.028 85.9363 127.149C86.1631 127.27 86.3393 127.439 86.4647 127.656V125.434H87.0728V130.645H86.5227L86.4647 130.052C86.3489 130.225 86.1824 130.382 85.9653 130.522C85.7481 130.662 85.4755 130.732 85.1473 130.732ZM85.2125 130.204C85.4538 130.204 85.6661 130.148 85.8495 130.037C86.0377 129.921 86.1824 129.762 86.2838 129.559C86.39 129.357 86.443 129.12 86.443 128.85C86.443 128.58 86.39 128.343 86.2838 128.141C86.1824 127.938 86.0377 127.781 85.8495 127.67C85.6661 127.554 85.4538 127.497 85.2125 127.497C84.976 127.497 84.7637 127.554 84.5755 127.67C84.3921 127.781 84.2473 127.938 84.1412 128.141C84.0398 128.343 83.9892 128.58 83.9892 128.85C83.9892 129.12 84.0398 129.357 84.1412 129.559C84.2473 129.762 84.3921 129.921 84.5755 130.037C84.7637 130.148 84.976 130.204 85.2125 130.204ZM91.5938 130.732C91.2705 130.732 90.9785 130.674 90.718 130.558C90.4574 130.438 90.2474 130.259 90.0882 130.023C89.9338 129.786 89.8517 129.492 89.8421 129.14H90.4574C90.4622 129.429 90.5635 129.68 90.7614 129.892C90.9592 130.1 91.2367 130.204 91.5938 130.204C91.9509 130.204 92.2187 130.105 92.3973 129.907C92.5807 129.709 92.6724 129.47 92.6724 129.19C92.6724 128.954 92.6144 128.761 92.4986 128.611C92.3876 128.462 92.2356 128.351 92.0426 128.278C91.8544 128.206 91.6469 128.17 91.4201 128.17H91.0437V127.656H91.4201C91.7482 127.656 92.004 127.581 92.1874 127.431C92.3756 127.282 92.4697 127.072 92.4697 126.802C92.4697 126.575 92.3949 126.389 92.2453 126.244C92.1005 126.095 91.8834 126.02 91.5938 126.02C91.3139 126.02 91.0895 126.104 90.9206 126.273C90.7517 126.437 90.6576 126.645 90.6383 126.896H90.0231C90.0375 126.621 90.1099 126.377 90.2402 126.165C90.3753 125.952 90.5587 125.788 90.7903 125.672C91.022 125.552 91.2898 125.491 91.5938 125.491C91.922 125.491 92.1946 125.549 92.4118 125.665C92.6338 125.781 92.8002 125.935 92.9112 126.128C93.027 126.321 93.085 126.534 93.085 126.765C93.085 127.021 93.015 127.255 92.875 127.468C92.7351 127.675 92.5252 127.815 92.2453 127.887C92.5445 127.95 92.793 128.092 92.9909 128.314C93.1887 128.536 93.2876 128.828 93.2876 129.19C93.2876 129.47 93.2225 129.728 93.0922 129.965C92.9667 130.196 92.7785 130.382 92.5276 130.522C92.2766 130.662 91.9654 130.732 91.5938 130.732ZM97.7794 130.732C97.4223 130.732 97.1087 130.65 96.8384 130.486C96.573 130.322 96.3655 130.098 96.2159 129.813C96.0711 129.528 95.9987 129.205 95.9987 128.843C95.9987 128.481 96.0735 128.16 96.2231 127.88C96.3727 127.595 96.5802 127.373 96.8457 127.214C97.1111 127.05 97.4247 126.968 97.7867 126.968C98.081 126.968 98.3416 127.028 98.5684 127.149C98.7952 127.27 98.9714 127.439 99.0968 127.656V125.434H99.7049V130.645H99.1547L99.0968 130.052C98.981 130.225 98.8145 130.382 98.5974 130.522C98.3802 130.662 98.1076 130.732 97.7794 130.732ZM97.8446 130.204C98.0859 130.204 98.2982 130.148 98.4816 130.037C98.6698 129.921 98.8145 129.762 98.9159 129.559C99.022 129.357 99.0751 129.12 99.0751 128.85C99.0751 128.58 99.022 128.343 98.9159 128.141C98.8145 127.938 98.6698 127.781 98.4816 127.67C98.2982 127.554 98.0859 127.497 97.8446 127.497C97.6081 127.497 97.3958 127.554 97.2076 127.67C97.0242 127.781 96.8794 127.938 96.7733 128.141C96.6719 128.343 96.6213 128.58 96.6213 128.85C96.6213 129.12 96.6719 129.357 96.7733 129.559C96.8794 129.762 97.0242 129.921 97.2076 130.037C97.3958 130.148 97.6081 130.204 97.8446 130.204ZM101.89 130.732C101.591 130.732 101.343 130.681 101.145 130.58C100.947 130.479 100.8 130.344 100.703 130.175C100.607 130.006 100.559 129.822 100.559 129.625C100.559 129.258 100.698 128.976 100.978 128.778C101.258 128.58 101.639 128.481 102.122 128.481H103.092V128.438C103.092 128.124 103.01 127.887 102.846 127.728C102.682 127.564 102.462 127.482 102.187 127.482C101.951 127.482 101.746 127.542 101.572 127.663C101.403 127.779 101.297 127.95 101.253 128.177H100.631C100.655 127.916 100.742 127.697 100.891 127.518C101.046 127.34 101.237 127.205 101.463 127.113C101.69 127.016 101.931 126.968 102.187 126.968C102.689 126.968 103.065 127.103 103.316 127.373C103.572 127.639 103.7 127.994 103.7 128.438V130.645H103.157L103.121 130.001C103.02 130.204 102.87 130.377 102.672 130.522C102.479 130.662 102.219 130.732 101.89 130.732ZM101.985 130.218C102.216 130.218 102.414 130.158 102.578 130.037C102.747 129.917 102.875 129.76 102.962 129.567C103.049 129.374 103.092 129.171 103.092 128.959V128.951H102.173C101.816 128.951 101.562 129.014 101.413 129.14C101.268 129.26 101.196 129.412 101.196 129.596C101.196 129.784 101.263 129.936 101.398 130.052C101.538 130.163 101.734 130.218 101.985 130.218ZM104.897 132.238L105.787 130.298H105.577L104.151 127.055H104.81L105.997 129.849L107.257 127.055H107.887L105.534 132.238H104.897ZM109.692 130.732C109.262 130.732 108.905 130.624 108.62 130.406C108.336 130.189 108.169 129.895 108.121 129.523H108.743C108.782 129.711 108.881 129.876 109.04 130.016C109.204 130.151 109.424 130.218 109.699 130.218C109.955 130.218 110.143 130.165 110.263 130.059C110.384 129.948 110.444 129.818 110.444 129.668C110.444 129.451 110.365 129.306 110.206 129.234C110.051 129.161 109.832 129.096 109.547 129.038C109.354 129 109.161 128.944 108.968 128.872C108.775 128.799 108.613 128.698 108.483 128.568C108.352 128.433 108.287 128.257 108.287 128.039C108.287 127.726 108.403 127.47 108.635 127.272C108.871 127.069 109.19 126.968 109.59 126.968C109.972 126.968 110.283 127.065 110.524 127.258C110.77 127.446 110.913 127.716 110.951 128.068H110.35C110.326 127.885 110.247 127.743 110.111 127.641C109.981 127.535 109.805 127.482 109.583 127.482C109.366 127.482 109.197 127.528 109.076 127.62C108.961 127.711 108.903 127.832 108.903 127.981C108.903 128.126 108.977 128.24 109.127 128.322C109.281 128.404 109.489 128.474 109.75 128.532C109.972 128.58 110.181 128.64 110.379 128.713C110.582 128.78 110.746 128.884 110.871 129.024C111.002 129.159 111.067 129.357 111.067 129.617C111.072 129.941 110.949 130.209 110.698 130.421C110.452 130.628 110.116 130.732 109.692 130.732ZM115.046 130.732C114.746 130.732 114.498 130.681 114.3 130.58C114.102 130.479 113.955 130.344 113.858 130.175C113.762 130.006 113.714 129.822 113.714 129.625C113.714 129.258 113.854 128.976 114.134 128.778C114.413 128.58 114.795 128.481 115.277 128.481H116.247V128.438C116.247 128.124 116.165 127.887 116.001 127.728C115.837 127.564 115.617 127.482 115.342 127.482C115.106 127.482 114.901 127.542 114.727 127.663C114.558 127.779 114.452 127.95 114.409 128.177H113.786C113.81 127.916 113.897 127.697 114.047 127.518C114.201 127.34 114.392 127.205 114.619 127.113C114.845 127.016 115.087 126.968 115.342 126.968C115.844 126.968 116.221 127.103 116.472 127.373C116.727 127.639 116.855 127.994 116.855 128.438V130.645H116.312L116.276 130.001C116.175 130.204 116.025 130.377 115.827 130.522C115.634 130.662 115.374 130.732 115.046 130.732ZM115.14 130.218C115.371 130.218 115.569 130.158 115.733 130.037C115.902 129.917 116.03 129.76 116.117 129.567C116.204 129.374 116.247 129.171 116.247 128.959V128.951H115.328C114.971 128.951 114.717 129.014 114.568 129.14C114.423 129.26 114.351 129.412 114.351 129.596C114.351 129.784 114.418 129.936 114.553 130.052C114.693 130.163 114.889 130.218 115.14 130.218ZM119.186 129.516C118.983 129.516 118.798 129.49 118.629 129.436L118.267 129.777C118.32 129.815 118.385 129.849 118.462 129.878C118.544 129.902 118.66 129.926 118.81 129.95C118.959 129.97 119.169 129.991 119.439 130.016C119.922 130.049 120.267 130.16 120.475 130.348C120.682 130.537 120.786 130.783 120.786 131.087C120.786 131.294 120.728 131.492 120.612 131.68C120.501 131.869 120.327 132.023 120.091 132.144C119.859 132.264 119.56 132.325 119.193 132.325C118.87 132.325 118.583 132.281 118.332 132.194C118.081 132.112 117.886 131.984 117.746 131.811C117.606 131.642 117.536 131.427 117.536 131.166C117.536 131.031 117.572 130.884 117.644 130.725C117.717 130.57 117.852 130.423 118.05 130.283C117.944 130.24 117.852 130.194 117.775 130.146C117.702 130.093 117.635 130.035 117.572 129.972V129.806L118.187 129.198C117.903 128.956 117.76 128.638 117.76 128.242C117.76 128.006 117.816 127.791 117.927 127.598C118.038 127.405 118.199 127.253 118.412 127.142C118.624 127.026 118.882 126.968 119.186 126.968C119.394 126.968 119.582 126.997 119.751 127.055H121.075V127.511L120.402 127.54C120.542 127.743 120.612 127.977 120.612 128.242C120.612 128.479 120.554 128.693 120.438 128.886C120.327 129.079 120.166 129.234 119.953 129.35C119.746 129.461 119.49 129.516 119.186 129.516ZM119.186 129.017C119.442 129.017 119.645 128.951 119.794 128.821C119.949 128.686 120.026 128.493 120.026 128.242C120.026 127.996 119.949 127.808 119.794 127.677C119.645 127.542 119.442 127.475 119.186 127.475C118.926 127.475 118.718 127.542 118.564 127.677C118.414 127.808 118.339 127.996 118.339 128.242C118.339 128.493 118.414 128.686 118.564 128.821C118.718 128.951 118.926 129.017 119.186 129.017ZM118.129 131.109C118.129 131.35 118.231 131.528 118.433 131.644C118.636 131.765 118.889 131.825 119.193 131.825C119.493 131.825 119.731 131.76 119.91 131.63C120.093 131.499 120.185 131.326 120.185 131.109C120.185 130.954 120.122 130.819 119.997 130.703C119.871 130.592 119.64 130.527 119.302 130.508C119.037 130.488 118.807 130.464 118.614 130.435C118.416 130.542 118.286 130.655 118.223 130.776C118.161 130.901 118.129 131.012 118.129 131.109ZM123.256 130.732C122.918 130.732 122.614 130.655 122.344 130.5C122.074 130.346 121.859 130.129 121.7 129.849C121.545 129.564 121.468 129.231 121.468 128.85C121.468 128.469 121.548 128.138 121.707 127.858C121.866 127.574 122.081 127.354 122.351 127.2C122.626 127.045 122.933 126.968 123.27 126.968C123.608 126.968 123.912 127.045 124.182 127.2C124.453 127.354 124.665 127.574 124.819 127.858C124.979 128.138 125.058 128.469 125.058 128.85C125.058 129.231 124.979 129.564 124.819 129.849C124.66 130.129 124.443 130.346 124.168 130.5C123.898 130.655 123.594 130.732 123.256 130.732ZM123.256 130.211C123.463 130.211 123.656 130.16 123.835 130.059C124.013 129.958 124.158 129.806 124.269 129.603C124.38 129.4 124.436 129.149 124.436 128.85C124.436 128.551 124.38 128.3 124.269 128.097C124.163 127.895 124.021 127.743 123.842 127.641C123.664 127.54 123.473 127.489 123.27 127.489C123.063 127.489 122.87 127.54 122.691 127.641C122.513 127.743 122.368 127.895 122.257 128.097C122.146 128.3 122.09 128.551 122.09 128.85C122.09 129.149 122.146 129.4 122.257 129.603C122.368 129.806 122.51 129.958 122.684 130.059C122.863 130.16 123.053 130.211 123.256 130.211Z" fill="#200E32"/>
<rect x="249.462" y="53.6727" width="49.0612" height="19.3028" rx="9.65138" fill="#EBFFF3"/>
<path d="M271.917 65.9864C271.365 65.9864 270.88 65.8658 270.462 65.6245C270.049 65.3778 269.724 65.0347 269.489 64.595C269.258 64.1553 269.143 63.6486 269.143 63.0749C269.143 62.5012 269.258 61.9972 269.489 61.5629C269.724 61.1232 270.049 60.78 270.462 60.5334C270.88 60.2867 271.365 60.1634 271.917 60.1634C272.475 60.1634 272.96 60.2867 273.373 60.5334C273.791 60.78 274.116 61.1232 274.346 61.5629C274.577 61.9972 274.692 62.5012 274.692 63.0749C274.692 63.6486 274.577 64.1553 274.346 64.595C274.116 65.0347 273.791 65.3778 273.373 65.6245C272.96 65.8658 272.475 65.9864 271.917 65.9864ZM271.917 65.3912C272.33 65.3912 272.692 65.3001 273.003 65.1178C273.32 64.9301 273.564 64.6647 273.735 64.3215C273.912 63.973 274.001 63.5575 274.001 63.0749C274.001 62.5923 273.912 62.1795 273.735 61.8363C273.564 61.4932 273.32 61.2304 273.003 61.0481C272.692 60.8605 272.33 60.7666 271.917 60.7666C271.505 60.7666 271.14 60.8605 270.824 61.0481C270.513 61.2304 270.269 61.4932 270.092 61.8363C269.92 62.1795 269.834 62.5923 269.834 63.0749C269.834 63.5575 269.92 63.973 270.092 64.3215C270.269 64.6647 270.513 64.9301 270.824 65.1178C271.14 65.3001 271.505 65.3912 271.917 65.3912ZM275.667 65.8899V60.2599H277.517C277.956 60.2599 278.318 60.3323 278.602 60.4771C278.887 60.6218 279.096 60.8176 279.23 61.0642C279.369 61.3109 279.439 61.5897 279.439 61.9007C279.439 62.2063 279.372 62.4824 279.238 62.7291C279.104 62.9757 278.895 63.1741 278.61 63.3242C278.326 63.469 277.962 63.5414 277.517 63.5414H276.342V65.8899H275.667ZM276.342 62.9704H277.501C277.951 62.9704 278.27 62.8765 278.458 62.6889C278.651 62.4958 278.747 62.2331 278.747 61.9007C278.747 61.5629 278.651 61.3001 278.458 61.1125C278.27 60.9194 277.951 60.8229 277.501 60.8229H276.342V62.9704ZM280.324 65.8899V60.2599H283.807V60.8149H281V62.7773H283.566V63.3242H281V65.3349H283.807V65.8899H280.324ZM284.864 65.8899V60.2599H285.54L288.54 64.7719V60.2599H289.215V65.8899H288.54L285.54 61.3779V65.8899H284.864Z" fill="#060613"/>
<g clip-path="url(#clip0_866_4761)">
<path d="M264.665 66.5912C263.435 67.5959 259.592 67.5959 258.386 66.5912C257.156 65.5866 257.281 61.2917 258.386 60.1615C259.491 59.0313 263.56 59.0313 264.665 60.1615C265.77 61.2917 265.896 65.5866 264.665 66.5912Z" fill="#00B249"/>
<g opacity="0.2">
<path opacity="0.2" d="M261.551 64.8342C260.446 65.7132 259.215 66.1653 258.06 66.1904C257.206 64.7337 257.382 61.1923 258.387 60.1626C259.291 59.2333 262.129 59.0575 263.761 59.6351C264.163 61.2928 263.334 63.4026 261.551 64.8342Z" fill="white"/>
</g>
<path d="M260.948 65.5619C260.773 65.5619 260.597 65.4865 260.496 65.3358L259.09 63.5274C258.889 63.2763 258.939 62.9247 259.19 62.7237C259.441 62.5228 259.793 62.573 259.994 62.8242L260.948 64.0549L263.058 61.3172C263.259 61.0661 263.611 61.0158 263.862 61.2168C264.113 61.4177 264.163 61.7693 263.962 62.0205L261.4 65.3358C261.275 65.4614 261.124 65.5619 260.948 65.5619Z" fill="white"/>
</g>
<g clip-path="url(#clip1_866_4761)">
<path d="M289.676 116.407H278.477C277.565 116.407 276.764 117.157 276.764 118.045V134.613C276.764 134.91 276.846 135.158 276.98 135.35C277.139 135.578 277.396 135.71 277.671 135.709C277.932 135.709 278.209 135.594 278.465 135.375L283.476 131.121C283.63 130.988 283.853 130.913 284.084 130.913C284.315 130.913 284.537 130.988 284.692 131.121L289.686 135.374C289.943 135.594 290.201 135.71 290.461 135.71C290.9 135.71 291.329 135.371 291.329 134.613V118.045C291.329 117.157 290.589 116.407 289.676 116.407Z" fill="#00CC53"/>
</g>
<rect opacity="0.04" x="111.125" y="93.8868" width="46.6483" height="19.3028" rx="2.41284" fill="#060613"/>
<path opacity="0.7" d="M118.155 105.908V100.278H121.581V100.833H118.83V102.812H121.171V103.359H118.83V105.908H118.155ZM123.867 106.005C123.395 106.005 123.019 105.863 122.741 105.578C122.462 105.289 122.322 104.847 122.322 104.251V101.919H122.998V104.179C122.998 105.01 123.338 105.426 124.019 105.426C124.368 105.426 124.655 105.302 124.88 105.056C125.111 104.804 125.226 104.447 125.226 103.986V101.919H125.901V105.908H125.29L125.242 105.192C125.119 105.444 124.934 105.643 124.687 105.788C124.446 105.932 124.172 106.005 123.867 106.005ZM127.013 105.908V100.117H127.689V105.908H127.013ZM128.796 105.908V100.117H129.472V105.908H128.796ZM130.499 103.857V103.286H133.684V103.857H130.499ZM136.279 105.908C135.915 105.908 135.628 105.82 135.419 105.643C135.21 105.466 135.105 105.147 135.105 104.686V102.49H134.413V101.919H135.105L135.193 100.962H135.781V101.919H136.955V102.49H135.781V104.686C135.781 104.938 135.832 105.109 135.933 105.2C136.035 105.286 136.215 105.329 136.472 105.329H136.89V105.908H136.279ZM138.223 101.034C138.089 101.034 137.977 100.991 137.886 100.906C137.8 100.814 137.757 100.702 137.757 100.568C137.757 100.439 137.8 100.332 137.886 100.246C137.977 100.16 138.089 100.117 138.223 100.117C138.352 100.117 138.462 100.16 138.553 100.246C138.644 100.332 138.69 100.439 138.69 100.568C138.69 100.702 138.644 100.814 138.553 100.906C138.462 100.991 138.352 101.034 138.223 101.034ZM137.886 105.908V101.919H138.561V105.908H137.886ZM139.737 105.908V101.919H140.349L140.397 102.498C140.526 102.284 140.697 102.117 140.912 101.999C141.126 101.881 141.367 101.822 141.636 101.822C141.952 101.822 142.223 101.887 142.448 102.015C142.678 102.144 142.855 102.34 142.979 102.603C143.118 102.361 143.308 102.171 143.55 102.032C143.796 101.892 144.062 101.822 144.346 101.822C144.823 101.822 145.204 101.967 145.488 102.257C145.772 102.541 145.914 102.981 145.914 103.576V105.908H145.247V103.648C145.247 103.235 145.164 102.924 144.997 102.715C144.831 102.506 144.593 102.402 144.282 102.402C143.96 102.402 143.692 102.528 143.477 102.78C143.268 103.026 143.164 103.38 143.164 103.841V105.908H142.488V103.648C142.488 103.235 142.405 102.924 142.239 102.715C142.073 102.506 141.834 102.402 141.523 102.402C141.207 102.402 140.941 102.528 140.727 102.78C140.518 103.026 140.413 103.38 140.413 103.841V105.908H139.737ZM148.726 106.005C148.345 106.005 148.007 105.919 147.712 105.747C147.417 105.57 147.184 105.326 147.012 105.015C146.846 104.704 146.763 104.337 146.763 103.914C146.763 103.495 146.846 103.131 147.012 102.82C147.179 102.503 147.409 102.259 147.704 102.088C148.004 101.911 148.35 101.822 148.742 101.822C149.128 101.822 149.46 101.911 149.739 102.088C150.023 102.259 150.24 102.487 150.39 102.772C150.541 103.056 150.616 103.361 150.616 103.688C150.616 103.747 150.613 103.806 150.608 103.865C150.608 103.924 150.608 103.991 150.608 104.066H147.431C147.447 104.372 147.516 104.627 147.64 104.83C147.768 105.029 147.927 105.179 148.114 105.281C148.307 105.383 148.511 105.434 148.726 105.434C149.004 105.434 149.238 105.369 149.425 105.241C149.613 105.112 149.75 104.938 149.835 104.718H150.503C150.396 105.088 150.189 105.396 149.884 105.643C149.583 105.884 149.197 106.005 148.726 106.005ZM148.726 102.393C148.404 102.393 148.117 102.493 147.865 102.691C147.618 102.884 147.476 103.168 147.439 103.544H149.948C149.932 103.184 149.809 102.903 149.578 102.699C149.348 102.495 149.063 102.393 148.726 102.393Z" fill="#200E32"/>
<rect opacity="0.04" x="64.4775" y="93.8868" width="41.8226" height="19.3028" rx="2.41284" fill="#61556E"/>
<path opacity="0.7" d="M73.9754 106.005C73.4232 106.005 72.946 105.884 72.5438 105.643C72.147 105.396 71.8387 105.056 71.6189 104.621C71.3991 104.182 71.2891 103.672 71.2891 103.093C71.2891 102.519 71.3991 102.015 71.6189 101.581C71.8387 101.141 72.147 100.798 72.5438 100.552C72.946 100.305 73.4232 100.182 73.9754 100.182C74.6189 100.182 75.1417 100.337 75.5438 100.648C75.9513 100.954 76.2113 101.383 76.3239 101.935H75.576C75.4902 101.587 75.3132 101.308 75.0451 101.099C74.7824 100.884 74.4258 100.777 73.9754 100.777C73.5733 100.777 73.2221 100.871 72.9218 101.058C72.6216 101.241 72.3883 101.506 72.2221 101.855C72.0613 102.198 71.9808 102.611 71.9808 103.093C71.9808 103.576 72.0613 103.991 72.2221 104.34C72.3883 104.683 72.6216 104.948 72.9218 105.136C73.2221 105.318 73.5733 105.41 73.9754 105.41C74.4258 105.41 74.7824 105.308 75.0451 105.104C75.3132 104.895 75.4902 104.619 75.576 104.276H76.3239C76.2113 104.817 75.9513 105.241 75.5438 105.546C75.1417 105.852 74.6189 106.005 73.9754 106.005ZM78.5818 106.005C78.2493 106.005 77.9732 105.948 77.7534 105.836C77.5335 105.723 77.37 105.573 77.2628 105.385C77.1555 105.198 77.1019 104.994 77.1019 104.774C77.1019 104.367 77.2574 104.053 77.5684 103.833C77.8794 103.613 78.303 103.503 78.8391 103.503H79.9169V103.455C79.9169 103.107 79.8257 102.844 79.6434 102.667C79.4611 102.485 79.2172 102.393 78.9115 102.393C78.6488 102.393 78.4209 102.461 78.2279 102.595C78.0402 102.723 77.9223 102.914 77.874 103.166H77.1823C77.2091 102.876 77.3057 102.632 77.4719 102.434C77.6434 102.235 77.8552 102.085 78.1073 101.983C78.3593 101.876 78.6274 101.822 78.9115 101.822C79.4692 101.822 79.8874 101.973 80.1662 102.273C80.4504 102.568 80.5925 102.962 80.5925 103.455V105.908H79.9893L79.9491 105.192C79.8365 105.418 79.6702 105.611 79.4504 105.771C79.2359 105.927 78.9464 106.005 78.5818 106.005ZM78.6863 105.434C78.9437 105.434 79.1635 105.367 79.3458 105.233C79.5335 105.099 79.6756 104.924 79.7721 104.71C79.8686 104.495 79.9169 104.27 79.9169 104.034V104.026H78.8954C78.4987 104.026 78.2172 104.096 78.051 104.235C77.8901 104.369 77.8097 104.538 77.8097 104.742C77.8097 104.951 77.8847 105.12 78.0349 105.249C78.1904 105.372 78.4075 105.434 78.6863 105.434ZM81.606 105.908V101.919H82.2173L82.2575 102.635C82.3862 102.383 82.5711 102.184 82.8124 102.04C83.0537 101.895 83.3272 101.822 83.6328 101.822C84.1046 101.822 84.48 101.967 84.7588 102.257C85.043 102.541 85.1851 102.981 85.1851 103.576V105.908H84.5095V103.648C84.5095 102.817 84.1663 102.402 83.48 102.402C83.1368 102.402 82.85 102.528 82.6194 102.78C82.3942 103.026 82.2816 103.38 82.2816 103.841V105.908H81.606ZM87.5357 106.005C87.2033 106.005 86.9271 105.948 86.7073 105.836C86.4874 105.723 86.3239 105.573 86.2167 105.385C86.1094 105.198 86.0558 104.994 86.0558 104.774C86.0558 104.367 86.2113 104.053 86.5223 103.833C86.8333 103.613 87.2569 103.503 87.7931 103.503H88.8708V103.455C88.8708 103.107 88.7796 102.844 88.5973 102.667C88.415 102.485 88.1711 102.393 87.8654 102.393C87.6027 102.393 87.3748 102.461 87.1818 102.595C86.9941 102.723 86.8762 102.914 86.8279 103.166H86.1362C86.1631 102.876 86.2596 102.632 86.4258 102.434C86.5974 102.235 86.8092 102.085 87.0612 101.983C87.3132 101.876 87.5813 101.822 87.8654 101.822C88.4231 101.822 88.8413 101.973 89.1201 102.273C89.4043 102.568 89.5464 102.962 89.5464 103.455V105.908H88.9432L88.903 105.192C88.7904 105.418 88.6242 105.611 88.4043 105.771C88.1898 105.927 87.9003 106.005 87.5357 106.005ZM87.6402 105.434C87.8976 105.434 88.1175 105.367 88.2998 105.233C88.4874 105.099 88.6295 104.924 88.726 104.71C88.8225 104.495 88.8708 104.27 88.8708 104.034V104.026H87.8494C87.4526 104.026 87.1711 104.096 87.0049 104.235C86.844 104.369 86.7636 104.538 86.7636 104.742C86.7636 104.951 86.8386 105.12 86.9888 105.249C87.1443 105.372 87.3614 105.434 87.6402 105.434ZM92.3695 106.005C91.9728 106.005 91.6242 105.914 91.324 105.731C91.0291 105.549 90.7985 105.3 90.6323 104.983C90.4714 104.667 90.391 104.308 90.391 103.906C90.391 103.503 90.4741 103.147 90.6403 102.836C90.8066 102.519 91.0371 102.273 91.332 102.096C91.6269 101.914 91.9754 101.822 92.3776 101.822C92.7047 101.822 92.9942 101.889 93.2462 102.024C93.4982 102.158 93.6939 102.345 93.8333 102.587V100.117H94.5089V105.908H93.8977L93.8333 105.249C93.7047 105.442 93.5197 105.616 93.2784 105.771C93.0371 105.927 92.7342 106.005 92.3695 106.005ZM92.4419 105.418C92.71 105.418 92.9459 105.356 93.1497 105.233C93.3588 105.104 93.5197 104.927 93.6323 104.702C93.7502 104.477 93.8092 104.214 93.8092 103.914C93.8092 103.613 93.7502 103.351 93.6323 103.125C93.5197 102.9 93.3588 102.726 93.1497 102.603C92.9459 102.474 92.71 102.41 92.4419 102.41C92.1792 102.41 91.9433 102.474 91.7342 102.603C91.5304 102.726 91.3696 102.9 91.2516 103.125C91.139 103.351 91.0827 103.613 91.0827 103.914C91.0827 104.214 91.139 104.477 91.2516 104.702C91.3696 104.927 91.5304 105.104 91.7342 105.233C91.9433 105.356 92.1792 105.418 92.4419 105.418ZM96.9373 106.005C96.6049 106.005 96.3287 105.948 96.1089 105.836C95.8891 105.723 95.7255 105.573 95.6183 105.385C95.511 105.198 95.4574 104.994 95.4574 104.774C95.4574 104.367 95.6129 104.053 95.9239 103.833C96.2349 103.613 96.6585 103.503 97.1947 103.503H98.2724V103.455C98.2724 103.107 98.1813 102.844 97.999 102.667C97.8166 102.485 97.5727 102.393 97.2671 102.393C97.0043 102.393 96.7764 102.461 96.5834 102.595C96.3957 102.723 96.2778 102.914 96.2295 103.166H95.5378C95.5647 102.876 95.6612 102.632 95.8274 102.434C95.999 102.235 96.2108 102.085 96.4628 101.983C96.7148 101.876 96.9829 101.822 97.2671 101.822C97.8247 101.822 98.2429 101.973 98.5217 102.273C98.8059 102.568 98.948 102.962 98.948 103.455V105.908H98.3448L98.3046 105.192C98.192 105.418 98.0258 105.611 97.8059 105.771C97.5914 105.927 97.3019 106.005 96.9373 106.005ZM97.0419 105.434C97.2992 105.434 97.5191 105.367 97.7014 105.233C97.889 105.099 98.0311 104.924 98.1276 104.71C98.2241 104.495 98.2724 104.27 98.2724 104.034V104.026H97.251C96.8542 104.026 96.5727 104.096 96.4065 104.235C96.2456 104.369 96.1652 104.538 96.1652 104.742C96.1652 104.951 96.2403 105.12 96.3904 105.249C96.5459 105.372 96.763 105.434 97.0419 105.434Z" fill="#200E32"/>
<rect opacity="0.04" x="162.6" y="93.8868" width="96.5138" height="19.3028" rx="2.41284" fill="#060613"/>
<path opacity="0.7" d="M171.092 106.608V105.989C170.567 105.93 170.151 105.742 169.846 105.426C169.54 105.109 169.387 104.707 169.387 104.219H170.095C170.095 104.503 170.178 104.758 170.344 104.983C170.516 105.203 170.765 105.345 171.092 105.41V103.23C171.055 103.219 171.014 103.208 170.972 103.198C170.934 103.182 170.896 103.168 170.859 103.158C170.425 103.007 170.103 102.822 169.894 102.603C169.685 102.377 169.58 102.085 169.58 101.726C169.575 101.308 169.706 100.959 169.974 100.68C170.248 100.402 170.62 100.241 171.092 100.198V99.5463H171.647V100.198C172.098 100.251 172.457 100.42 172.725 100.705C172.993 100.989 173.13 101.335 173.135 101.742H172.427C172.427 101.544 172.363 101.353 172.234 101.171C172.106 100.983 171.91 100.857 171.647 100.793V102.739C171.69 102.75 171.733 102.763 171.776 102.78C171.819 102.796 171.864 102.809 171.913 102.82C172.181 102.916 172.422 103.029 172.636 103.158C172.851 103.286 173.017 103.452 173.135 103.656C173.258 103.86 173.32 104.12 173.32 104.436C173.32 104.688 173.258 104.927 173.135 105.152C173.012 105.377 172.824 105.568 172.572 105.723C172.325 105.879 172.017 105.97 171.647 105.997V106.608H171.092ZM170.28 101.662C170.28 101.908 170.352 102.096 170.497 102.225C170.642 102.348 170.84 102.455 171.092 102.546V100.777C170.851 100.814 170.655 100.911 170.505 101.066C170.355 101.217 170.28 101.415 170.28 101.662ZM172.62 104.477C172.62 104.166 172.529 103.935 172.347 103.785C172.165 103.635 171.931 103.511 171.647 103.415V105.426C171.958 105.388 172.197 105.281 172.363 105.104C172.535 104.927 172.62 104.718 172.62 104.477ZM174.833 105.908V101.034L173.924 101.235V100.769L175.058 100.278H175.517V105.908H174.833ZM178.901 106.005C178.402 106.005 177.971 105.884 177.606 105.643C177.247 105.396 176.971 105.056 176.777 104.621C176.584 104.182 176.488 103.672 176.488 103.093C176.488 102.514 176.584 102.007 176.777 101.573C176.971 101.133 177.247 100.793 177.606 100.552C177.971 100.305 178.402 100.182 178.901 100.182C179.399 100.182 179.828 100.305 180.188 100.552C180.547 100.793 180.823 101.133 181.016 101.573C181.209 102.007 181.306 102.514 181.306 103.093C181.306 103.672 181.209 104.182 181.016 104.621C180.823 105.056 180.547 105.396 180.188 105.643C179.828 105.884 179.399 106.005 178.901 106.005ZM178.901 105.41C179.228 105.41 179.52 105.318 179.777 105.136C180.04 104.948 180.244 104.683 180.389 104.34C180.539 103.991 180.614 103.576 180.614 103.093C180.614 102.611 180.539 102.198 180.389 101.855C180.244 101.511 180.04 101.249 179.777 101.066C179.52 100.879 179.228 100.785 178.901 100.785C178.568 100.785 178.273 100.879 178.016 101.066C177.759 101.249 177.555 101.511 177.405 101.855C177.255 102.198 177.18 102.611 177.18 103.093C177.18 103.576 177.255 103.991 177.405 104.34C177.555 104.683 177.759 104.948 178.016 105.136C178.273 105.318 178.568 105.41 178.901 105.41ZM181.459 106.865L181.926 105.088H182.625L181.926 106.865H181.459ZM185.663 106.005C185.165 106.005 184.733 105.884 184.368 105.643C184.009 105.396 183.733 105.056 183.54 104.621C183.347 104.182 183.251 103.672 183.251 103.093C183.251 102.514 183.347 102.007 183.54 101.573C183.733 101.133 184.009 100.793 184.368 100.552C184.733 100.305 185.165 100.182 185.663 100.182C186.162 100.182 186.591 100.305 186.95 100.552C187.309 100.793 187.586 101.133 187.779 101.573C187.972 102.007 188.068 102.514 188.068 103.093C188.068 103.672 187.972 104.182 187.779 104.621C187.586 105.056 187.309 105.396 186.95 105.643C186.591 105.884 186.162 106.005 185.663 106.005ZM185.663 105.41C185.99 105.41 186.283 105.318 186.54 105.136C186.803 104.948 187.007 104.683 187.151 104.34C187.301 103.991 187.376 103.576 187.376 103.093C187.376 102.611 187.301 102.198 187.151 101.855C187.007 101.511 186.803 101.249 186.54 101.066C186.283 100.879 185.99 100.785 185.663 100.785C185.331 100.785 185.036 100.879 184.779 101.066C184.521 101.249 184.318 101.511 184.167 101.855C184.017 102.198 183.942 102.611 183.942 103.093C183.942 103.576 184.017 103.991 184.167 104.34C184.318 104.683 184.521 104.948 184.779 105.136C185.036 105.318 185.331 105.41 185.663 105.41ZM191.24 106.005C190.741 106.005 190.31 105.884 189.945 105.643C189.586 105.396 189.31 105.056 189.117 104.621C188.924 104.182 188.827 103.672 188.827 103.093C188.827 102.514 188.924 102.007 189.117 101.573C189.31 101.133 189.586 100.793 189.945 100.552C190.31 100.305 190.741 100.182 191.24 100.182C191.739 100.182 192.168 100.305 192.527 100.552C192.886 100.793 193.162 101.133 193.355 101.573C193.548 102.007 193.645 102.514 193.645 103.093C193.645 103.672 193.548 104.182 193.355 104.621C193.162 105.056 192.886 105.396 192.527 105.643C192.168 105.884 191.739 106.005 191.24 106.005ZM191.24 105.41C191.567 105.41 191.859 105.318 192.117 105.136C192.379 104.948 192.583 104.683 192.728 104.34C192.878 103.991 192.953 103.576 192.953 103.093C192.953 102.611 192.878 102.198 192.728 101.855C192.583 101.511 192.379 101.249 192.117 101.066C191.859 100.879 191.567 100.785 191.24 100.785C190.907 100.785 190.613 100.879 190.355 101.066C190.098 101.249 189.894 101.511 189.744 101.855C189.594 102.198 189.519 102.611 189.519 103.093C189.519 103.576 189.594 103.991 189.744 104.34C189.894 104.683 190.098 104.948 190.355 105.136C190.613 105.318 190.907 105.41 191.24 105.41ZM196.816 106.005C196.318 106.005 195.886 105.884 195.522 105.643C195.162 105.396 194.886 105.056 194.693 104.621C194.5 104.182 194.404 103.672 194.404 103.093C194.404 102.514 194.5 102.007 194.693 101.573C194.886 101.133 195.162 100.793 195.522 100.552C195.886 100.305 196.318 100.182 196.816 100.182C197.315 100.182 197.744 100.305 198.103 100.552C198.463 100.793 198.739 101.133 198.932 101.573C199.125 102.007 199.221 102.514 199.221 103.093C199.221 103.672 199.125 104.182 198.932 104.621C198.739 105.056 198.463 105.396 198.103 105.643C197.744 105.884 197.315 106.005 196.816 106.005ZM196.816 105.41C197.144 105.41 197.436 105.318 197.693 105.136C197.956 104.948 198.16 104.683 198.304 104.34C198.455 103.991 198.53 103.576 198.53 103.093C198.53 102.611 198.455 102.198 198.304 101.855C198.16 101.511 197.956 101.249 197.693 101.066C197.436 100.879 197.144 100.785 196.816 100.785C196.484 100.785 196.189 100.879 195.932 101.066C195.674 101.249 195.471 101.511 195.321 101.855C195.17 102.198 195.095 102.611 195.095 103.093C195.095 103.576 195.17 103.991 195.321 104.34C195.471 104.683 195.674 104.948 195.932 105.136C196.189 105.318 196.484 105.41 196.816 105.41ZM200.077 103.857V103.286H203.262V103.857H200.077ZM205.785 106.608V105.989C205.259 105.93 204.844 105.742 204.538 105.426C204.232 105.109 204.08 104.707 204.08 104.219H204.787C204.787 104.503 204.87 104.758 205.037 104.983C205.208 105.203 205.458 105.345 205.785 105.41V103.23C205.747 103.219 205.707 103.208 205.664 103.198C205.626 103.182 205.589 103.168 205.551 103.158C205.117 103.007 204.795 102.822 204.586 102.603C204.377 102.377 204.273 102.085 204.273 101.726C204.267 101.308 204.399 100.959 204.667 100.68C204.94 100.402 205.313 100.241 205.785 100.198V99.5463H206.34V100.198C206.79 100.251 207.149 100.42 207.417 100.705C207.685 100.989 207.822 101.335 207.828 101.742H207.12C207.12 101.544 207.055 101.353 206.927 101.171C206.798 100.983 206.602 100.857 206.34 100.793V102.739C206.382 102.75 206.425 102.763 206.468 102.78C206.511 102.796 206.557 102.809 206.605 102.82C206.873 102.916 207.114 103.029 207.329 103.158C207.543 103.286 207.71 103.452 207.828 103.656C207.951 103.86 208.013 104.12 208.013 104.436C208.013 104.688 207.951 104.927 207.828 105.152C207.704 105.377 207.517 105.568 207.265 105.723C207.018 105.879 206.71 105.97 206.34 105.997V106.608H205.785ZM204.972 101.662C204.972 101.908 205.045 102.096 205.189 102.225C205.334 102.348 205.533 102.455 205.785 102.546V100.777C205.543 100.814 205.348 100.911 205.198 101.066C205.047 101.217 204.972 101.415 204.972 101.662ZM207.313 104.477C207.313 104.166 207.222 103.935 207.039 103.785C206.857 103.635 206.624 103.511 206.34 103.415V105.426C206.651 105.388 206.889 105.281 207.055 105.104C207.227 104.927 207.313 104.718 207.313 104.477ZM209.526 105.908V101.034L208.617 101.235V100.769L209.751 100.278H210.209V105.908H209.526ZM211.309 105.908V105.434C211.69 105.133 212.049 104.83 212.387 104.525C212.73 104.214 213.033 103.908 213.296 103.608C213.564 103.308 213.773 103.013 213.923 102.723C214.079 102.434 214.156 102.155 214.156 101.887C214.156 101.688 214.121 101.503 214.052 101.332C213.987 101.16 213.88 101.024 213.73 100.922C213.58 100.814 213.376 100.761 213.119 100.761C212.872 100.761 212.666 100.817 212.499 100.93C212.333 101.037 212.207 101.182 212.121 101.364C212.041 101.546 212.001 101.742 212.001 101.951H211.349C211.349 101.581 211.427 101.265 211.583 101.002C211.738 100.734 211.95 100.53 212.218 100.391C212.486 100.251 212.789 100.182 213.127 100.182C213.625 100.182 214.033 100.324 214.349 100.608C214.671 100.887 214.832 101.305 214.832 101.863C214.832 102.195 214.749 102.525 214.583 102.852C214.416 103.174 214.205 103.487 213.947 103.793C213.69 104.093 213.414 104.375 213.119 104.637C212.829 104.9 212.558 105.136 212.306 105.345H215.025V105.908H211.309ZM215.421 106.865L215.888 105.088H216.587L215.888 106.865H215.421ZM219.625 106.005C219.127 106.005 218.695 105.884 218.33 105.643C217.971 105.396 217.695 105.056 217.502 104.621C217.309 104.182 217.213 103.672 217.213 103.093C217.213 102.514 217.309 102.007 217.502 101.573C217.695 101.133 217.971 100.793 218.33 100.552C218.695 100.305 219.127 100.182 219.625 100.182C220.124 100.182 220.553 100.305 220.912 100.552C221.271 100.793 221.548 101.133 221.741 101.573C221.934 102.007 222.03 102.514 222.03 103.093C222.03 103.672 221.934 104.182 221.741 104.621C221.548 105.056 221.271 105.396 220.912 105.643C220.553 105.884 220.124 106.005 219.625 106.005ZM219.625 105.41C219.952 105.41 220.245 105.318 220.502 105.136C220.765 104.948 220.969 104.683 221.113 104.34C221.263 103.991 221.339 103.576 221.339 103.093C221.339 102.611 221.263 102.198 221.113 101.855C220.969 101.511 220.765 101.249 220.502 101.066C220.245 100.879 219.952 100.785 219.625 100.785C219.293 100.785 218.998 100.879 218.741 101.066C218.483 101.249 218.28 101.511 218.129 101.855C217.979 102.198 217.904 102.611 217.904 103.093C217.904 103.576 217.979 103.991 218.129 104.34C218.28 104.683 218.483 104.948 218.741 105.136C218.998 105.318 219.293 105.41 219.625 105.41ZM225.202 106.005C224.703 106.005 224.272 105.884 223.907 105.643C223.548 105.396 223.272 105.056 223.079 104.621C222.886 104.182 222.789 103.672 222.789 103.093C222.789 102.514 222.886 102.007 223.079 101.573C223.272 101.133 223.548 100.793 223.907 100.552C224.272 100.305 224.703 100.182 225.202 100.182C225.701 100.182 226.13 100.305 226.489 100.552C226.848 100.793 227.124 101.133 227.317 101.573C227.51 102.007 227.607 102.514 227.607 103.093C227.607 103.672 227.51 104.182 227.317 104.621C227.124 105.056 226.848 105.396 226.489 105.643C226.13 105.884 225.701 106.005 225.202 106.005ZM225.202 105.41C225.529 105.41 225.821 105.318 226.079 105.136C226.341 104.948 226.545 104.683 226.69 104.34C226.84 103.991 226.915 103.576 226.915 103.093C226.915 102.611 226.84 102.198 226.69 101.855C226.545 101.511 226.341 101.249 226.079 101.066C225.821 100.879 225.529 100.785 225.202 100.785C224.87 100.785 224.575 100.879 224.317 101.066C224.06 101.249 223.856 101.511 223.706 101.855C223.556 102.198 223.481 102.611 223.481 103.093C223.481 103.576 223.556 103.991 223.706 104.34C223.856 104.683 224.06 104.948 224.317 105.136C224.575 105.318 224.87 105.41 225.202 105.41ZM230.779 106.005C230.28 106.005 229.848 105.884 229.484 105.643C229.124 105.396 228.848 105.056 228.655 104.621C228.462 104.182 228.366 103.672 228.366 103.093C228.366 102.514 228.462 102.007 228.655 101.573C228.848 101.133 229.124 100.793 229.484 100.552C229.848 100.305 230.28 100.182 230.779 100.182C231.277 100.182 231.706 100.305 232.065 100.552C232.425 100.793 232.701 101.133 232.894 101.573C233.087 102.007 233.183 102.514 233.183 103.093C233.183 103.672 233.087 104.182 232.894 104.621C232.701 105.056 232.425 105.396 232.065 105.643C231.706 105.884 231.277 106.005 230.779 106.005ZM230.779 105.41C231.106 105.41 231.398 105.318 231.655 105.136C231.918 104.948 232.122 104.683 232.266 104.34C232.417 103.991 232.492 103.576 232.492 103.093C232.492 102.611 232.417 102.198 232.266 101.855C232.122 101.511 231.918 101.249 231.655 101.066C231.398 100.879 231.106 100.785 230.779 100.785C230.446 100.785 230.151 100.879 229.894 101.066C229.636 101.249 229.433 101.511 229.283 101.855C229.132 102.198 229.057 102.611 229.057 103.093C229.057 103.576 229.132 103.991 229.283 104.34C229.433 104.683 229.636 104.948 229.894 105.136C230.151 105.318 230.446 105.41 230.779 105.41ZM233.467 106.672L235.486 99.7635H236.154L234.135 106.672H233.467ZM237.373 107.678L238.362 105.522H238.129L236.545 101.919H237.277L238.596 105.023L239.995 101.919H240.695L238.081 107.678H237.373ZM242.825 106.005C242.444 106.005 242.106 105.919 241.811 105.747C241.516 105.57 241.283 105.326 241.111 105.015C240.945 104.704 240.862 104.337 240.862 103.914C240.862 103.495 240.945 103.131 241.111 102.82C241.278 102.503 241.508 102.259 241.803 102.088C242.103 101.911 242.449 101.822 242.841 101.822C243.227 101.822 243.559 101.911 243.838 102.088C244.122 102.259 244.339 102.487 244.489 102.772C244.64 103.056 244.715 103.361 244.715 103.688C244.715 103.747 244.712 103.806 244.707 103.865C244.707 103.924 244.707 103.991 244.707 104.066H241.53C241.546 104.372 241.615 104.627 241.739 104.83C241.867 105.029 242.026 105.179 242.213 105.281C242.406 105.383 242.61 105.434 242.825 105.434C243.103 105.434 243.337 105.369 243.524 105.241C243.712 105.112 243.849 104.938 243.934 104.718H244.602C244.495 105.088 244.288 105.396 243.983 105.643C243.682 105.884 243.296 106.005 242.825 106.005ZM242.825 102.393C242.503 102.393 242.216 102.493 241.964 102.691C241.717 102.884 241.575 103.168 241.538 103.544H244.047C244.031 103.184 243.908 102.903 243.677 102.699C243.446 102.495 243.162 102.393 242.825 102.393ZM246.937 106.005C246.605 106.005 246.329 105.948 246.109 105.836C245.889 105.723 245.725 105.573 245.618 105.385C245.511 105.198 245.457 104.994 245.457 104.774C245.457 104.367 245.613 104.053 245.924 103.833C246.235 103.613 246.658 103.503 247.194 103.503H248.272V103.455C248.272 103.107 248.181 102.844 247.999 102.667C247.816 102.485 247.572 102.393 247.267 102.393C247.004 102.393 246.776 102.461 246.583 102.595C246.396 102.723 246.278 102.914 246.229 103.166H245.538C245.564 102.876 245.661 102.632 245.827 102.434C245.999 102.235 246.211 102.085 246.463 101.983C246.715 101.876 246.983 101.822 247.267 101.822C247.824 101.822 248.243 101.973 248.522 102.273C248.806 102.568 248.948 102.962 248.948 103.455V105.908H248.345L248.304 105.192C248.192 105.418 248.026 105.611 247.806 105.771C247.591 105.927 247.302 106.005 246.937 106.005ZM247.042 105.434C247.299 105.434 247.519 105.367 247.701 105.233C247.889 105.099 248.031 104.924 248.127 104.71C248.224 104.495 248.272 104.27 248.272 104.034V104.026H247.251C246.854 104.026 246.572 104.096 246.406 104.235C246.245 104.369 246.165 104.538 246.165 104.742C246.165 104.951 246.24 105.12 246.39 105.249C246.546 105.372 246.763 105.434 247.042 105.434ZM249.961 105.908V101.919H250.573L250.629 102.683C250.752 102.42 250.94 102.211 251.192 102.056C251.444 101.9 251.755 101.822 252.125 101.822V102.53H251.94C251.704 102.53 251.487 102.573 251.288 102.659C251.09 102.739 250.932 102.879 250.814 103.077C250.696 103.276 250.637 103.549 250.637 103.897V105.908H249.961Z" fill="#200E32"/>
</g>
<defs>
<filter id="filter0_d_866_4761" x="0" y="0" width="363" height="207.774" filterUnits="userSpaceOnUse" color-interpolation-filters="sRGB">
<feFlood flood-opacity="0" result="BackgroundImageFix"/>
<feColorMatrix in="SourceAlpha" type="matrix" values="0 0 0 0 0 0 0 0 0 0 0 0 0 0 0 0 0 0 127 0" result="hardAlpha"/>
<feOffset dy="10"/>
<feGaussianBlur stdDeviation="25"/>
<feColorMatrix type="matrix" values="0 0 0 0 0.541176 0 0 0 0 0.584314 0 0 0 0 0.619608 0 0 0 0.15 0"/>
<feBlend mode="normal" in2="BackgroundImageFix" result="effect1_dropShadow_866_4761"/>
<feBlend mode="normal" in="SourceGraphic" in2="effect1_dropShadow_866_4761" result="shape"/>
</filter>
<clipPath id="clip0_866_4761">
<rect width="8.04281" height="8.04281" fill="white" transform="translate(257.505 59.3027)"/>
</clipPath>
<clipPath id="clip1_866_4761">
<rect width="19.3028" height="19.3028" fill="white" transform="translate(274.395 116.407)"/>
</clipPath>
</defs>
</svg>
