<svg width="147" height="47" viewBox="0 0 147 47" fill="none" xmlns="http://www.w3.org/2000/svg">
<g filter="url(#filter0_f_864_4626)">
<rect x="3.68945" y="3.80994" width="139.326" height="39.525" rx="4.94062" fill="white"/>
<path d="M50.4634 27.6675L47.3923 19.3672H48.7322L51.2223 26.3632L53.7242 19.3672H55.0522L51.9811 27.6675H50.4634ZM56.7786 20.6716C56.5415 20.6716 56.3438 20.6004 56.1857 20.4581C56.0355 20.3079 55.9604 20.1222 55.9604 19.9008C55.9604 19.6795 56.0355 19.4977 56.1857 19.3554C56.3438 19.2052 56.5415 19.1301 56.7786 19.1301C57.0158 19.1301 57.2094 19.2052 57.3596 19.3554C57.5177 19.4977 57.5968 19.6795 57.5968 19.9008C57.5968 20.1222 57.5177 20.3079 57.3596 20.4581C57.2094 20.6004 57.0158 20.6716 56.7786 20.6716ZM56.1502 27.6675V21.7862H57.4071V27.6675H56.1502ZM61.8172 27.8098C61.2401 27.8098 60.7263 27.6833 60.2757 27.4303C59.8331 27.1695 59.4852 26.8098 59.2323 26.3513C58.9793 25.8928 58.8528 25.3592 58.8528 24.7505C58.8528 24.1339 58.9754 23.5925 59.2204 23.1261C59.4734 22.6597 59.8212 22.296 60.2639 22.0352C60.7145 21.7743 61.2362 21.6439 61.8291 21.6439C62.4061 21.6439 62.9081 21.7743 63.335 22.0352C63.7618 22.2881 64.0938 22.628 64.331 23.0549C64.5681 23.4818 64.6867 23.9521 64.6867 24.466C64.6867 24.545 64.6828 24.632 64.6749 24.7268C64.6749 24.8138 64.6709 24.9126 64.663 25.0233H60.086C60.1255 25.5924 60.3113 26.0272 60.6433 26.3276C60.9832 26.6201 61.3745 26.7663 61.8172 26.7663C62.1729 26.7663 62.4694 26.6873 62.7065 26.5292C62.9516 26.3632 63.1334 26.1418 63.252 25.8651H64.5089C64.3508 26.4185 64.0346 26.8809 63.5603 27.2525C63.0939 27.624 62.5128 27.8098 61.8172 27.8098ZM61.8172 22.6755C61.3982 22.6755 61.0267 22.802 60.7026 23.0549C60.3785 23.3 60.1809 23.6715 60.1097 24.1695H63.4298C63.4061 23.711 63.2441 23.3474 62.9437 23.0786C62.6433 22.8099 62.2678 22.6755 61.8172 22.6755ZM66.9332 27.6675L65.202 21.7862H66.4589L67.5972 26.2209L68.8778 21.7862H70.277L71.5576 26.2209L72.6959 21.7862H73.9528L72.2216 27.6675H70.9291L69.5774 23.0431L68.2256 27.6675H66.9332ZM77.9757 27.6675V21.7862H79.1022L79.2089 22.9008C79.4144 22.5134 79.699 22.2091 80.0627 21.9877C80.4342 21.7585 80.8808 21.6439 81.4025 21.6439V22.9601H81.0587C80.7109 22.9601 80.3986 23.0193 80.1219 23.1379C79.8532 23.2486 79.6358 23.4423 79.4698 23.7189C79.3117 23.9877 79.2326 24.3632 79.2326 24.8454V27.6675H77.9757ZM85.069 27.8098C84.492 27.8098 83.9781 27.6833 83.5275 27.4303C83.0849 27.1695 82.737 26.8098 82.4841 26.3513C82.2311 25.8928 82.1046 25.3592 82.1046 24.7505C82.1046 24.1339 82.2272 23.5925 82.4722 23.1261C82.7252 22.6597 83.073 22.296 83.5157 22.0352C83.9663 21.7743 84.488 21.6439 85.0809 21.6439C85.6579 21.6439 86.1599 21.7743 86.5868 22.0352C87.0136 22.2881 87.3457 22.628 87.5828 23.0549C87.82 23.4818 87.9385 23.9521 87.9385 24.466C87.9385 24.545 87.9346 24.632 87.9267 24.7268C87.9267 24.8138 87.9227 24.9126 87.9148 25.0233H83.3378C83.3773 25.5924 83.5631 26.0272 83.8951 26.3276C84.235 26.6201 84.6263 26.7663 85.069 26.7663C85.4247 26.7663 85.7212 26.6873 85.9583 26.5292C86.2034 26.3632 86.3852 26.1418 86.5038 25.8651H87.7607C87.6026 26.4185 87.2864 26.8809 86.8121 27.2525C86.3457 27.624 85.7647 27.8098 85.069 27.8098ZM85.069 22.6755C84.6501 22.6755 84.2785 22.802 83.9544 23.0549C83.6303 23.3 83.4327 23.6715 83.3615 24.1695H86.6816C86.6579 23.711 86.4959 23.3474 86.1955 23.0786C85.8951 22.8099 85.5196 22.6755 85.069 22.6755ZM91.5905 27.8098C90.8474 27.8098 90.2347 27.628 89.7525 27.2643C89.2703 26.9007 88.9937 26.4185 88.9225 25.8177H90.1913C90.2545 26.0865 90.4047 26.3197 90.6419 26.5173C90.879 26.707 91.1912 26.8019 91.5786 26.8019C91.958 26.8019 92.2347 26.7228 92.4086 26.5647C92.5825 26.4066 92.6695 26.2248 92.6695 26.0193C92.6695 25.7189 92.547 25.5173 92.3019 25.4146C92.0648 25.3039 91.7327 25.2051 91.3059 25.1181C90.9739 25.047 90.6419 24.9521 90.3098 24.8335C89.9857 24.715 89.713 24.549 89.4917 24.3355C89.2782 24.1142 89.1715 23.8177 89.1715 23.4462C89.1715 22.9324 89.3691 22.5055 89.7644 22.1656C90.1596 21.8178 90.713 21.6439 91.4244 21.6439C92.0806 21.6439 92.6102 21.802 93.0134 22.1182C93.4244 22.4344 93.6655 22.881 93.7367 23.4581H92.5272C92.4877 23.2051 92.3691 23.0075 92.1715 22.8652C91.9817 22.7229 91.7248 22.6518 91.4007 22.6518C91.0845 22.6518 90.8395 22.719 90.6656 22.8533C90.4917 22.9798 90.4047 23.1458 90.4047 23.3514C90.4047 23.5569 90.5233 23.7189 90.7604 23.8375C91.0055 23.9561 91.3256 24.0628 91.7209 24.1577C92.1161 24.2446 92.4798 24.3474 92.8118 24.466C93.1517 24.5766 93.4244 24.7426 93.6299 24.964C93.8355 25.1853 93.9382 25.5094 93.9382 25.9363C93.9461 26.4738 93.7367 26.9205 93.3098 27.2762C92.8908 27.6319 92.3177 27.8098 91.5905 27.8098ZM97.4803 27.8098C96.7688 27.8098 96.2076 27.5884 95.7965 27.1458C95.3934 26.7031 95.1918 26.043 95.1918 25.1655V21.7862H96.4487V25.0351C96.4487 26.1734 96.9151 26.7426 97.8479 26.7426C98.3143 26.7426 98.6977 26.5766 98.9981 26.2446C99.2984 25.9126 99.4486 25.4383 99.4486 24.8217V21.7862H100.706V27.6675H99.5909L99.4961 26.6359C99.3143 26.9995 99.0455 27.288 98.6898 27.5015C98.3419 27.707 97.9388 27.8098 97.4803 27.8098ZM102.304 27.6675V21.7862H103.419L103.526 22.6162C103.715 22.3158 103.964 22.0786 104.273 21.9047C104.589 21.7308 104.953 21.6439 105.364 21.6439C106.296 21.6439 106.945 22.0115 107.308 22.7466C107.522 22.4067 107.806 22.1379 108.162 21.9403C108.526 21.7427 108.917 21.6439 109.336 21.6439C110.071 21.6439 110.648 21.8652 111.067 22.3079C111.486 22.7506 111.696 23.4106 111.696 24.2881V27.6675H110.439V24.4185C110.439 23.2802 110.004 22.711 109.134 22.711C108.692 22.711 108.328 22.8771 108.043 23.2091C107.767 23.5411 107.628 24.0154 107.628 24.632V27.6675H106.372V24.4185C106.372 23.2802 105.933 22.711 105.055 22.711C104.621 22.711 104.261 22.8771 103.976 23.2091C103.7 23.5411 103.561 24.0154 103.561 24.632V27.6675H102.304ZM115.917 27.8098C115.34 27.8098 114.826 27.6833 114.376 27.4303C113.933 27.1695 113.585 26.8098 113.332 26.3513C113.079 25.8928 112.953 25.3592 112.953 24.7505C112.953 24.1339 113.075 23.5925 113.32 23.1261C113.573 22.6597 113.921 22.296 114.364 22.0352C114.814 21.7743 115.336 21.6439 115.929 21.6439C116.506 21.6439 117.008 21.7743 117.435 22.0352C117.862 22.2881 118.194 22.628 118.431 23.0549C118.668 23.4818 118.787 23.9521 118.787 24.466C118.787 24.545 118.783 24.632 118.775 24.7268C118.775 24.8138 118.771 24.9126 118.763 25.0233H114.186C114.225 25.5924 114.411 26.0272 114.743 26.3276C115.083 26.6201 115.474 26.7663 115.917 26.7663C116.273 26.7663 116.569 26.6873 116.806 26.5292C117.051 26.3632 117.233 26.1418 117.352 25.8651H118.609C118.451 26.4185 118.134 26.8809 117.66 27.2525C117.194 27.624 116.613 27.8098 115.917 27.8098ZM115.917 22.6755C115.498 22.6755 115.127 22.802 114.802 23.0549C114.478 23.3 114.281 23.6715 114.21 24.1695H117.53C117.506 23.711 117.344 23.3474 117.043 23.0786C116.743 22.8099 116.368 22.6755 115.917 22.6755Z" fill="#265D77"/>
<g clip-path="url(#clip0_864_4626)">
<path d="M37.97 28.809L39.042 18.8577L31.6267 18.0588L30.5546 28.0102L37.97 28.809Z" fill="#132F3B"/>
<path d="M28.3283 28.151L35.7676 27.6282L35.066 17.6447L27.6267 18.1675L28.3283 28.151Z" fill="#388CB2"/>
<path d="M33.3291 27.7997L35.7693 27.6281L35.0672 17.6438L33.3291 17.766V27.7997Z" fill="#265D77"/>
<path d="M29.6953 29.5012H36.4583V19.6132H29.6953V29.5012Z" fill="#B7E4F8"/>
<path d="M36.4594 19.6132H33.3291V29.5013H36.4594V19.6132Z" fill="#6FC8F1"/>
<path d="M35.346 24.5883H30.8115V25.2835H35.346V24.5883Z" fill="#265D77"/>
<path d="M35.345 25.8248H30.8105V26.5201H35.345V25.8248Z" fill="#265D77"/>
<path d="M35.345 27.0618H30.8105V27.757H35.345V27.0618Z" fill="#265D77"/>
<path d="M35.344 24.5883H33.3281V25.2835H35.344V24.5883Z" fill="#132F3B"/>
<path d="M35.3431 27.0618H33.3271V27.757H35.3431V27.0618Z" fill="#132F3B"/>
<path d="M35.3431 25.8248H33.3271V26.5201H35.3431V25.8248Z" fill="#132F3B"/>
<path d="M30.7393 22.5861C30.7393 21.9134 31.2554 21.441 31.9594 21.441C32.388 21.441 32.7259 21.5975 32.9417 21.879L32.4756 22.2951C32.3473 22.1324 32.194 22.0385 31.9969 22.0385C31.6904 22.0385 31.4839 22.2513 31.4839 22.586C31.4839 22.9208 31.6904 23.1335 31.9969 23.1335C32.194 23.1335 32.3473 23.0396 32.4756 22.8769L32.9417 23.293C32.7259 23.5746 32.388 23.731 31.9594 23.731C31.2554 23.7311 30.7393 23.2587 30.7393 22.5861Z" fill="#265D77"/>
<path d="M35.4949 21.4908L34.5689 23.6808H33.8431L32.917 21.4908H33.7116L34.2341 22.7704L34.7691 21.4908H35.4949Z" fill="#265D77"/>
<path d="M34.7701 21.4917L34.2351 22.7713L33.7126 21.4917H33.3291V22.4639L33.844 23.6817H34.5699L35.4959 21.4917H34.7701Z" fill="#132F3B"/>
</g>
</g>
<defs>
<filter id="filter0_f_864_4626" x="0.689453" y="0.809937" width="145.325" height="45.525" filterUnits="userSpaceOnUse" color-interpolation-filters="sRGB">
<feFlood flood-opacity="0" result="BackgroundImageFix"/>
<feBlend mode="normal" in="SourceGraphic" in2="BackgroundImageFix" result="shape"/>
<feGaussianBlur stdDeviation="1.5" result="effect1_foregroundBlur_864_4626"/>
</filter>
<clipPath id="clip0_864_4626">
<rect width="11.8575" height="11.8575" fill="white" transform="translate(27.4053 17.6438)"/>
</clipPath>
</defs>
</svg>
