<svg width="137" height="56" viewBox="0 0 137 56" fill="none" xmlns="http://www.w3.org/2000/svg">
<rect opacity="0.1" width="137" height="56" rx="5" fill="#DF0202"/>
<path d="M59.065 33V22.5H62.68C63.51 22.5 64.19 22.64 64.72 22.92C65.26 23.2 65.66 23.58 65.92 24.06C66.18 24.53 66.31 25.055 66.31 25.635C66.31 26.285 66.135 26.875 65.785 27.405C65.445 27.935 64.91 28.315 64.18 28.545L66.415 33H64.57L62.53 28.77H60.655V33H59.065ZM60.655 27.57H62.59C63.31 27.57 63.835 27.395 64.165 27.045C64.505 26.695 64.675 26.24 64.675 25.68C64.675 25.12 64.51 24.675 64.18 24.345C63.85 24.005 63.315 23.835 62.575 23.835H60.655V27.57ZM71.1569 33.18C70.4269 33.18 69.7769 33.02 69.2069 32.7C68.6469 32.37 68.2069 31.915 67.8869 31.335C67.5669 30.755 67.4069 30.08 67.4069 29.31C67.4069 28.53 67.5619 27.845 67.8719 27.255C68.1919 26.665 68.6319 26.205 69.1919 25.875C69.7619 25.545 70.4219 25.38 71.1719 25.38C71.9019 25.38 72.5369 25.545 73.0769 25.875C73.6169 26.195 74.0369 26.625 74.3369 27.165C74.6369 27.705 74.7869 28.3 74.7869 28.95C74.7869 29.05 74.7819 29.16 74.7719 29.28C74.7719 29.39 74.7669 29.515 74.7569 29.655H68.9669C69.0169 30.375 69.2519 30.925 69.6719 31.305C70.1019 31.675 70.5969 31.86 71.1569 31.86C71.6069 31.86 71.9819 31.76 72.2819 31.56C72.5919 31.35 72.8219 31.07 72.9719 30.72H74.5619C74.3619 31.42 73.9619 32.005 73.3619 32.475C72.7719 32.945 72.0369 33.18 71.1569 33.18ZM71.1569 26.685C70.6269 26.685 70.1569 26.845 69.7469 27.165C69.3369 27.475 69.0869 27.945 68.9969 28.575H73.1969C73.1669 27.995 72.9619 27.535 72.5819 27.195C72.2019 26.855 71.7269 26.685 71.1569 26.685ZM77.3816 24.15C77.0816 24.15 76.8316 24.06 76.6316 23.88C76.4416 23.69 76.3466 23.455 76.3466 23.175C76.3466 22.895 76.4416 22.665 76.6316 22.485C76.8316 22.295 77.0816 22.2 77.3816 22.2C77.6816 22.2 77.9266 22.295 78.1166 22.485C78.3166 22.665 78.4166 22.895 78.4166 23.175C78.4166 23.455 78.3166 23.69 78.1166 23.88C77.9266 24.06 77.6816 24.15 77.3816 24.15ZM75.0116 36.3V34.95H75.5966C75.9466 34.95 76.1966 34.875 76.3466 34.725C76.4966 34.585 76.5716 34.345 76.5716 34.005V25.56H78.1616V34.02C78.1616 34.83 77.9566 35.41 77.5466 35.76C77.1366 36.12 76.5666 36.3 75.8366 36.3H75.0116ZM83.7399 33.18C83.0099 33.18 82.3599 33.02 81.7899 32.7C81.2299 32.37 80.7899 31.915 80.4699 31.335C80.1499 30.755 79.9899 30.08 79.9899 29.31C79.9899 28.53 80.1449 27.845 80.4549 27.255C80.7749 26.665 81.2149 26.205 81.7749 25.875C82.3449 25.545 83.0049 25.38 83.7549 25.38C84.4849 25.38 85.1199 25.545 85.6599 25.875C86.1999 26.195 86.6199 26.625 86.9199 27.165C87.2199 27.705 87.3699 28.3 87.3699 28.95C87.3699 29.05 87.3649 29.16 87.3549 29.28C87.3549 29.39 87.3499 29.515 87.3399 29.655H81.5499C81.5999 30.375 81.8349 30.925 82.2549 31.305C82.6849 31.675 83.1799 31.86 83.7399 31.86C84.1899 31.86 84.5649 31.76 84.8649 31.56C85.1749 31.35 85.4049 31.07 85.5549 30.72H87.1449C86.9449 31.42 86.5449 32.005 85.9449 32.475C85.3549 32.945 84.6199 33.18 83.7399 33.18ZM83.7399 26.685C83.2099 26.685 82.7399 26.845 82.3299 27.165C81.9199 27.475 81.6699 27.945 81.5799 28.575H85.7799C85.7499 27.995 85.5449 27.535 85.1649 27.195C84.7849 26.855 84.3099 26.685 83.7399 26.685ZM92.5446 33.18C91.8146 33.18 91.1596 33.015 90.5796 32.685C90.0096 32.355 89.5596 31.9 89.2296 31.32C88.9096 30.73 88.7496 30.05 88.7496 29.28C88.7496 28.51 88.9096 27.835 89.2296 27.255C89.5596 26.665 90.0096 26.205 90.5796 25.875C91.1596 25.545 91.8146 25.38 92.5446 25.38C93.4646 25.38 94.2346 25.62 94.8546 26.1C95.4846 26.58 95.8896 27.23 96.0696 28.05H94.4046C94.3046 27.64 94.0846 27.32 93.7446 27.09C93.4046 26.86 93.0046 26.745 92.5446 26.745C92.1546 26.745 91.7946 26.845 91.4646 27.045C91.1346 27.235 90.8696 27.52 90.6696 27.9C90.4696 28.27 90.3696 28.73 90.3696 29.28C90.3696 29.83 90.4696 30.295 90.6696 30.675C90.8696 31.045 91.1346 31.33 91.4646 31.53C91.7946 31.73 92.1546 31.83 92.5446 31.83C93.0046 31.83 93.4046 31.715 93.7446 31.485C94.0846 31.255 94.3046 30.93 94.4046 30.51H96.0696C95.8996 31.31 95.4996 31.955 94.8696 32.445C94.2396 32.935 93.4646 33.18 92.5446 33.18ZM100.768 33C100.038 33 99.4576 32.825 99.0276 32.475C98.5976 32.115 98.3826 31.48 98.3826 30.57V26.895H97.1076V25.56H98.3826L98.5776 23.67H99.9726V25.56H102.073V26.895H99.9726V30.57C99.9726 30.98 100.058 31.265 100.228 31.425C100.408 31.575 100.713 31.65 101.143 31.65H101.998V33H100.768Z" fill="#DF0202"/>
<g clip-path="url(#clip0_907_4771)">
<path d="M41.0994 28.0103L45.772 23.3376C46.0761 23.0336 46.0761 22.5422 45.772 22.2383C45.468 21.9343 44.9766 21.9343 44.6727 22.2383L39.9999 26.911L35.3274 22.2383C35.0233 21.9343 34.532 21.9343 34.2281 22.2383C33.924 22.5422 33.924 23.0336 34.2281 23.3376L38.9006 28.0103L34.2281 32.683C33.924 32.9869 33.924 33.4784 34.2281 33.7823C34.3795 33.9339 34.5787 34.0101 34.7777 34.0101C34.9767 34.0101 35.1758 33.9339 35.3274 33.7823L39.9999 29.1096L44.6727 33.7823C44.8243 33.9339 45.0233 34.0101 45.2223 34.0101C45.4213 34.0101 45.6204 33.9339 45.772 33.7823C46.0761 33.4784 46.0761 32.9869 45.772 32.683L41.0994 28.0103Z" fill="#DF0202"/>
</g>
<defs>
<clipPath id="clip0_907_4771">
<rect width="12" height="12" fill="white" transform="translate(34 22)"/>
</clipPath>
</defs>
</svg>
