<svg width="199" height="56" viewBox="0 0 199 56" fill="none" xmlns="http://www.w3.org/2000/svg">
<rect width="199" height="56" rx="5" fill="#00B249"/>
<path d="M33.065 33V22.5H36.68C37.51 22.5 38.19 22.64 38.72 22.92C39.26 23.2 39.66 23.58 39.92 24.06C40.18 24.53 40.31 25.055 40.31 25.635C40.31 26.285 40.135 26.875 39.785 27.405C39.445 27.935 38.91 28.315 38.18 28.545L40.415 33H38.57L36.53 28.77H34.655V33H33.065ZM34.655 27.57H36.59C37.31 27.57 37.835 27.395 38.165 27.045C38.505 26.695 38.675 26.24 38.675 25.68C38.675 25.12 38.51 24.675 38.18 24.345C37.85 24.005 37.315 23.835 36.575 23.835H34.655V27.57ZM45.1569 33.18C44.4269 33.18 43.7769 33.02 43.2069 32.7C42.6469 32.37 42.2069 31.915 41.8869 31.335C41.5669 30.755 41.4069 30.08 41.4069 29.31C41.4069 28.53 41.5619 27.845 41.8719 27.255C42.1919 26.665 42.6319 26.205 43.1919 25.875C43.7619 25.545 44.4219 25.38 45.1719 25.38C45.9019 25.38 46.5369 25.545 47.0769 25.875C47.6169 26.195 48.0369 26.625 48.3369 27.165C48.6369 27.705 48.7869 28.3 48.7869 28.95C48.7869 29.05 48.7819 29.16 48.7719 29.28C48.7719 29.39 48.7669 29.515 48.7569 29.655H42.9669C43.0169 30.375 43.2519 30.925 43.6719 31.305C44.1019 31.675 44.5969 31.86 45.1569 31.86C45.6069 31.86 45.9819 31.76 46.2819 31.56C46.5919 31.35 46.8219 31.07 46.9719 30.72H48.5619C48.3619 31.42 47.9619 32.005 47.3619 32.475C46.7719 32.945 46.0369 33.18 45.1569 33.18ZM45.1569 26.685C44.6269 26.685 44.1569 26.845 43.7469 27.165C43.3369 27.475 43.0869 27.945 42.9969 28.575H47.1969C47.1669 27.995 46.9619 27.535 46.5819 27.195C46.2019 26.855 45.7269 26.685 45.1569 26.685ZM52.2287 33L49.4387 25.56H51.1037L53.1737 31.485L55.2437 25.56H56.8937L54.1187 33H52.2287ZM59.1003 24.15C58.8003 24.15 58.5503 24.06 58.3503 23.88C58.1603 23.69 58.0653 23.455 58.0653 23.175C58.0653 22.895 58.1603 22.665 58.3503 22.485C58.5503 22.295 58.8003 22.2 59.1003 22.2C59.4003 22.2 59.6453 22.295 59.8353 22.485C60.0353 22.665 60.1353 22.895 60.1353 23.175C60.1353 23.455 60.0353 23.69 59.8353 23.88C59.6453 24.06 59.4003 24.15 59.1003 24.15ZM58.3053 33V25.56H59.8953V33H58.3053ZM65.4743 33.18C64.7443 33.18 64.0943 33.02 63.5243 32.7C62.9643 32.37 62.5243 31.915 62.2043 31.335C61.8843 30.755 61.7243 30.08 61.7243 29.31C61.7243 28.53 61.8793 27.845 62.1893 27.255C62.5093 26.665 62.9493 26.205 63.5093 25.875C64.0793 25.545 64.7393 25.38 65.4893 25.38C66.2193 25.38 66.8543 25.545 67.3943 25.875C67.9343 26.195 68.3543 26.625 68.6543 27.165C68.9543 27.705 69.1043 28.3 69.1043 28.95C69.1043 29.05 69.0993 29.16 69.0893 29.28C69.0893 29.39 69.0843 29.515 69.0743 29.655H63.2843C63.3343 30.375 63.5693 30.925 63.9893 31.305C64.4193 31.675 64.9143 31.86 65.4743 31.86C65.9243 31.86 66.2993 31.76 66.5993 31.56C66.9093 31.35 67.1393 31.07 67.2893 30.72H68.8793C68.6793 31.42 68.2793 32.005 67.6793 32.475C67.0893 32.945 66.3543 33.18 65.4743 33.18ZM65.4743 26.685C64.9443 26.685 64.4743 26.845 64.0643 27.165C63.6543 27.475 63.4043 27.945 63.3143 28.575H67.5143C67.4843 27.995 67.2793 27.535 66.8993 27.195C66.5193 26.855 66.0443 26.685 65.4743 26.685ZM71.9461 33L69.7561 25.56H71.3461L72.7861 31.17L74.4061 25.56H76.1761L77.7961 31.17L79.2361 25.56H80.8261L78.6361 33H77.0011L75.2911 27.15L73.5811 33H71.9461ZM85.3002 33L89.1702 22.5H90.9102L94.7502 33H93.0702L92.1702 30.435H87.8802L86.9802 33H85.3002ZM88.3302 29.175H91.7202L90.0252 24.39L88.3302 29.175ZM96.1544 36.3V25.56H97.5794L97.7444 26.715C97.9844 26.365 98.3144 26.055 98.7344 25.785C99.1544 25.515 99.6944 25.38 100.354 25.38C101.074 25.38 101.709 25.55 102.259 25.89C102.809 26.23 103.239 26.695 103.549 27.285C103.869 27.875 104.029 28.545 104.029 29.295C104.029 30.045 103.869 30.715 103.549 31.305C103.239 31.885 102.809 32.345 102.259 32.685C101.709 33.015 101.069 33.18 100.339 33.18C99.7594 33.18 99.2444 33.065 98.7944 32.835C98.3544 32.605 98.0044 32.28 97.7444 31.86V36.3H96.1544ZM100.069 31.8C100.749 31.8 101.309 31.57 101.749 31.11C102.189 30.64 102.409 30.03 102.409 29.28C102.409 28.79 102.309 28.355 102.109 27.975C101.909 27.595 101.634 27.3 101.284 27.09C100.934 26.87 100.529 26.76 100.069 26.76C99.3894 26.76 98.8294 26.995 98.3894 27.465C97.9594 27.935 97.7444 28.54 97.7444 29.28C97.7444 30.03 97.9594 30.64 98.3894 31.11C98.8294 31.57 99.3894 31.8 100.069 31.8ZM105.749 36.3V25.56H107.174L107.339 26.715C107.579 26.365 107.909 26.055 108.329 25.785C108.749 25.515 109.289 25.38 109.949 25.38C110.669 25.38 111.304 25.55 111.854 25.89C112.404 26.23 112.834 26.695 113.144 27.285C113.464 27.875 113.624 28.545 113.624 29.295C113.624 30.045 113.464 30.715 113.144 31.305C112.834 31.885 112.404 32.345 111.854 32.685C111.304 33.015 110.664 33.18 109.934 33.18C109.354 33.18 108.839 33.065 108.389 32.835C107.949 32.605 107.599 32.28 107.339 31.86V36.3H105.749ZM109.664 31.8C110.344 31.8 110.904 31.57 111.344 31.11C111.784 30.64 112.004 30.03 112.004 29.28C112.004 28.79 111.904 28.355 111.704 27.975C111.504 27.595 111.229 27.3 110.879 27.09C110.529 26.87 110.124 26.76 109.664 26.76C108.984 26.76 108.424 26.995 107.984 27.465C107.554 27.935 107.339 28.54 107.339 29.28C107.339 30.03 107.554 30.64 107.984 31.11C108.424 31.57 108.984 31.8 109.664 31.8ZM115.344 33V22.2H116.934V33H115.344ZM119.847 24.15C119.547 24.15 119.297 24.06 119.097 23.88C118.907 23.69 118.812 23.455 118.812 23.175C118.812 22.895 118.907 22.665 119.097 22.485C119.297 22.295 119.547 22.2 119.847 22.2C120.147 22.2 120.392 22.295 120.582 22.485C120.782 22.665 120.882 22.895 120.882 23.175C120.882 23.455 120.782 23.69 120.582 23.88C120.392 24.06 120.147 24.15 119.847 24.15ZM119.052 33V25.56H120.642V33H119.052ZM126.266 33.18C125.536 33.18 124.881 33.015 124.301 32.685C123.731 32.355 123.281 31.9 122.951 31.32C122.631 30.73 122.471 30.05 122.471 29.28C122.471 28.51 122.631 27.835 122.951 27.255C123.281 26.665 123.731 26.205 124.301 25.875C124.881 25.545 125.536 25.38 126.266 25.38C127.186 25.38 127.956 25.62 128.576 26.1C129.206 26.58 129.611 27.23 129.791 28.05H128.126C128.026 27.64 127.806 27.32 127.466 27.09C127.126 26.86 126.726 26.745 126.266 26.745C125.876 26.745 125.516 26.845 125.186 27.045C124.856 27.235 124.591 27.52 124.391 27.9C124.191 28.27 124.091 28.73 124.091 29.28C124.091 29.83 124.191 30.295 124.391 30.675C124.591 31.045 124.856 31.33 125.186 31.53C125.516 31.73 125.876 31.83 126.266 31.83C126.726 31.83 127.126 31.715 127.466 31.485C127.806 31.255 128.026 30.93 128.126 30.51H129.791C129.621 31.31 129.221 31.955 128.591 32.445C127.961 32.935 127.186 33.18 126.266 33.18ZM134.036 33.18C133.406 33.18 132.886 33.075 132.476 32.865C132.066 32.655 131.761 32.38 131.561 32.04C131.361 31.69 131.261 31.31 131.261 30.9C131.261 30.18 131.541 29.61 132.101 29.19C132.661 28.77 133.461 28.56 134.501 28.56H136.451V28.425C136.451 27.845 136.291 27.41 135.971 27.12C135.661 26.83 135.256 26.685 134.756 26.685C134.316 26.685 133.931 26.795 133.601 27.015C133.281 27.225 133.086 27.54 133.016 27.96H131.426C131.476 27.42 131.656 26.96 131.966 26.58C132.286 26.19 132.686 25.895 133.166 25.695C133.656 25.485 134.191 25.38 134.771 25.38C135.811 25.38 136.616 25.655 137.186 26.205C137.756 26.745 138.041 27.485 138.041 28.425V33H136.661L136.526 31.725C136.316 32.135 136.011 32.48 135.611 32.76C135.211 33.04 134.686 33.18 134.036 33.18ZM134.351 31.89C134.781 31.89 135.141 31.79 135.431 31.59C135.731 31.38 135.961 31.105 136.121 30.765C136.291 30.425 136.396 30.05 136.436 29.64H134.666C134.036 29.64 133.586 29.75 133.316 29.97C133.056 30.19 132.926 30.465 132.926 30.795C132.926 31.135 133.051 31.405 133.301 31.605C133.561 31.795 133.911 31.89 134.351 31.89ZM142.868 33C142.138 33 141.558 32.825 141.128 32.475C140.698 32.115 140.483 31.48 140.483 30.57V26.895H139.208V25.56H140.483L140.678 23.67H142.073V25.56H144.173V26.895H142.073V30.57C142.073 30.98 142.158 31.265 142.328 31.425C142.508 31.575 142.813 31.65 143.243 31.65H144.098V33H142.868ZM146.713 24.15C146.413 24.15 146.163 24.06 145.963 23.88C145.773 23.69 145.678 23.455 145.678 23.175C145.678 22.895 145.773 22.665 145.963 22.485C146.163 22.295 146.413 22.2 146.713 22.2C147.013 22.2 147.258 22.295 147.448 22.485C147.648 22.665 147.748 22.895 147.748 23.175C147.748 23.455 147.648 23.69 147.448 23.88C147.258 24.06 147.013 24.15 146.713 24.15ZM145.918 33V25.56H147.508V33H145.918ZM153.087 33.18C152.377 33.18 151.737 33.02 151.167 32.7C150.607 32.37 150.162 31.915 149.832 31.335C149.502 30.745 149.337 30.06 149.337 29.28C149.337 28.5 149.502 27.82 149.832 27.24C150.172 26.65 150.627 26.195 151.197 25.875C151.767 25.545 152.402 25.38 153.102 25.38C153.812 25.38 154.447 25.545 155.007 25.875C155.577 26.195 156.027 26.65 156.357 27.24C156.697 27.82 156.867 28.5 156.867 29.28C156.867 30.06 156.697 30.745 156.357 31.335C156.027 31.915 155.577 32.37 155.007 32.7C154.437 33.02 153.797 33.18 153.087 33.18ZM153.087 31.815C153.467 31.815 153.817 31.72 154.137 31.53C154.467 31.34 154.732 31.06 154.932 30.69C155.132 30.31 155.232 29.84 155.232 29.28C155.232 28.72 155.132 28.255 154.932 27.885C154.742 27.505 154.482 27.22 154.152 27.03C153.832 26.84 153.482 26.745 153.102 26.745C152.722 26.745 152.367 26.84 152.037 27.03C151.717 27.22 151.457 27.505 151.257 27.885C151.057 28.255 150.957 28.72 150.957 29.28C150.957 29.84 151.057 30.31 151.257 30.69C151.457 31.06 151.717 31.34 152.037 31.53C152.357 31.72 152.707 31.815 153.087 31.815ZM158.586 33V25.56H159.996L160.116 26.865C160.346 26.405 160.681 26.045 161.121 25.785C161.571 25.515 162.086 25.38 162.666 25.38C163.566 25.38 164.271 25.66 164.781 26.22C165.301 26.78 165.561 27.615 165.561 28.725V33H163.986V28.89C163.986 27.45 163.396 26.73 162.216 26.73C161.626 26.73 161.136 26.94 160.746 27.36C160.366 27.78 160.176 28.38 160.176 29.16V33H158.586Z" fill="white"/>
</svg>
