<svg width="24" height="24" viewBox="0 0 24 24" fill="none" xmlns="http://www.w3.org/2000/svg">
<path d="M14.2969 12C14.2969 13.2686 13.2686 14.2969 12 14.2969C10.7314 14.2969 9.70312 13.2686 9.70312 12C9.70312 10.7314 10.7314 9.70312 12 9.70312C13.2686 9.70312 14.2969 10.7314 14.2969 12Z" fill="#00CC53"/>
<path d="M17.3723 7.93622C17.2619 7.63702 17.0858 7.36621 16.8569 7.14392C16.6346 6.91504 16.364 6.73889 16.0646 6.62848C15.8218 6.53418 15.457 6.42194 14.7852 6.39136C14.0585 6.35822 13.8406 6.35107 12.0007 6.35107C10.1607 6.35107 9.94281 6.35803 9.21625 6.39117C8.54443 6.42194 8.1795 6.53418 7.93689 6.62848C7.63751 6.73889 7.3667 6.91504 7.14459 7.14392C6.91571 7.36621 6.73956 7.63684 6.62897 7.93622C6.53467 8.17902 6.42242 8.54395 6.39185 9.21576C6.3587 9.94232 6.35156 10.1602 6.35156 12.0002C6.35156 13.8401 6.3587 14.058 6.39185 14.7847C6.42242 15.4565 6.53467 15.8213 6.62897 16.0641C6.73956 16.3635 6.91553 16.6341 7.14441 16.8564C7.3667 17.0853 7.63733 17.2614 7.93671 17.3718C8.1795 17.4663 8.54443 17.5786 9.21625 17.6091C9.94281 17.6423 10.1605 17.6492 12.0005 17.6492C13.8408 17.6492 14.0587 17.6423 14.785 17.6091C15.4568 17.5786 15.8218 17.4663 16.0646 17.3718C16.6655 17.14 17.1405 16.665 17.3723 16.0641C17.4666 15.8213 17.5789 15.4565 17.6096 14.7847C17.6428 14.058 17.6497 13.8401 17.6497 12.0002C17.6497 10.1602 17.6428 9.94232 17.6096 9.21576C17.579 8.54395 17.4668 8.17902 17.3723 7.93622ZM12.0007 15.5384C10.0464 15.5384 8.46222 13.9543 8.46222 12.0001C8.46222 10.0458 10.0464 8.46173 12.0007 8.46173C13.9548 8.46173 15.5391 10.0458 15.5391 12.0001C15.5391 13.9543 13.9548 15.5384 12.0007 15.5384ZM15.679 9.14874C15.2223 9.14874 14.8521 8.7785 14.8521 8.32184C14.8521 7.86517 15.2223 7.49493 15.679 7.49493C16.1356 7.49493 16.5059 7.86517 16.5059 8.32184C16.5057 8.7785 16.1356 9.14874 15.679 9.14874Z" fill="#00CC53"/>
<path d="M12 0C5.3736 0 0 5.3736 0 12C0 18.6264 5.3736 24 12 24C18.6264 24 24 18.6264 24 12C24 5.3736 18.6264 0 12 0ZM18.8491 14.8409C18.8157 15.5744 18.6991 16.0752 18.5288 16.5135C18.1708 17.4391 17.4391 18.1708 16.5135 18.5288C16.0754 18.6991 15.5744 18.8156 14.8411 18.8491C14.1063 18.8826 13.8715 18.8906 12.0002 18.8906C10.1287 18.8906 9.8941 18.8826 9.15912 18.8491C8.42578 18.8156 7.9248 18.6991 7.48663 18.5288C7.02667 18.3558 6.61029 18.0846 6.26605 17.7339C5.91559 17.3899 5.64441 16.9733 5.47137 16.5135C5.30109 16.0754 5.18445 15.5744 5.15112 14.8411C5.11725 14.1061 5.10938 13.8713 5.10938 12C5.10938 10.1287 5.11725 9.89392 5.15094 9.15912C5.18427 8.4256 5.30072 7.9248 5.47101 7.48645C5.64404 7.02667 5.91541 6.61011 6.26605 6.26605C6.61011 5.91541 7.02667 5.64423 7.48645 5.47119C7.9248 5.3009 8.4256 5.18445 9.15912 5.15094C9.89392 5.11743 10.1287 5.10938 12 5.10938C13.8713 5.10938 14.1061 5.11743 14.8409 5.15112C15.5744 5.18445 16.0752 5.3009 16.5135 5.47101C16.9733 5.64404 17.3899 5.91541 17.7341 6.26605C18.0846 6.61029 18.356 7.02667 18.5288 7.48645C18.6993 7.9248 18.8157 8.4256 18.8492 9.15912C18.8828 9.89392 18.8906 10.1287 18.8906 12C18.8906 13.8713 18.8828 14.1061 18.8491 14.8409Z" fill="#00CC53"/>
</svg>
