<svg width="172" height="41" viewBox="0 0 172 41" fill="none" xmlns="http://www.w3.org/2000/svg">
<path d="M108.334 12.6436V40.3661H100.294V36.3174C99.4733 37.7241 98.282 38.8783 96.8501 39.6542C95.3682 40.4339 93.7143 40.8289 92.04 40.8031C88.5768 40.8031 85.9885 39.8365 84.2752 37.9034C82.5619 35.9702 81.7071 33.0539 81.7107 29.1545V12.6436H89.9566V29.3194C89.9566 32.6727 91.3959 34.3494 94.2746 34.3494C95.9861 34.3494 97.3714 33.7667 98.4305 32.6013C99.4897 31.4359 100.018 29.9049 100.016 28.0084V12.6436H108.334ZM139.86 0V40.3661H131.713V36.2652C130.869 37.6904 129.638 38.8466 128.162 39.5993C126.555 40.4198 124.771 40.8332 122.967 40.8031C120.715 40.8403 118.504 40.2017 116.618 38.9698C114.716 37.6983 113.21 35.9171 112.273 33.8299C111.234 31.631 110.714 29.1069 110.714 26.2575C110.714 23.4081 111.234 20.9023 112.273 18.74C113.209 16.6896 114.706 14.9458 116.591 13.7101C118.496 12.5083 120.712 11.8919 122.965 11.9372C124.729 11.9155 126.474 12.319 128.05 13.1136C129.518 13.8401 130.75 14.9675 131.604 16.3652V0H139.86ZM130.086 32.4089C131.186 31.0071 131.735 28.9914 131.735 26.3619C131.735 23.7727 131.179 21.7773 130.067 20.3755C128.955 18.9737 127.397 18.2719 125.394 18.27C123.351 18.27 121.765 18.9627 120.637 20.348C119.508 21.7333 118.943 23.7013 118.943 26.252C118.943 28.876 119.508 30.9081 120.637 32.3484C121.765 33.7887 123.351 34.5088 125.394 34.5088C127.423 34.5125 128.987 33.8125 130.086 32.4089ZM171.387 12.6436V40.3661H163.237V36.2652C162.393 37.6914 161.16 38.8478 159.683 39.5993C158.077 40.4176 156.294 40.8291 154.491 40.7976C152.241 40.8585 150.023 40.249 148.12 39.0465C146.216 37.844 144.713 36.1029 143.802 34.0443C142.763 31.8766 142.243 29.3707 142.243 26.5268C142.243 23.6829 142.763 21.1487 143.802 18.9242C144.734 16.8271 146.241 15.0365 148.147 13.7595C150.033 12.5326 152.242 11.8979 154.491 11.9372C156.301 11.9082 158.088 12.3415 159.683 13.1961C161.156 13.9788 162.386 15.1511 163.237 16.5851V12.6436H171.387ZM161.599 32.4336C162.699 31.0483 163.248 29.0437 163.248 26.4197C163.248 23.7956 162.699 21.78 161.599 20.3727C160.5 18.9673 158.932 18.2654 156.896 18.2673C154.86 18.2691 153.275 18.9993 152.138 20.4579C151.01 21.9238 150.444 23.9477 150.443 26.5296C150.441 29.1115 150.997 31.0886 152.111 32.4611C153.223 33.8262 154.818 34.5097 156.896 34.5116C158.936 34.5134 160.503 33.8217 161.599 32.4364V32.4336ZM80.0313 40.7564H69.7873L58.7653 28.187V40.7564H50.404V0H58.7653V24.7512L69.287 12.7371H79.3112L67.4042 26.2053L80.0313 40.7564ZM27.4971 40.7702L11.4507 22.2995L20.2133 40.7702H14.1389L5.20037 21.9394L8.9165 40.7702H5.18388L1.46501 21.9119V40.7702H0V0H1.46501V20.3397L5.2361 0H8.95773L5.17014 20.4277L14.2818 0H20.2903L11.2143 20.3535L27.695 0H37.1118L20.0649 21.0571L37.1915 40.7702H27.4971Z" fill="#AFAFAF"/>
</svg>
