<svg width="21" height="21" viewBox="0 0 21 21" fill="none" xmlns="http://www.w3.org/2000/svg">
<g clip-path="url(#clip0)">
<path d="M10.4001 0C6.57717 0 3.4668 3.11037 3.4668 6.93335C3.4668 8.081 3.75373 9.21891 4.2992 10.2282L10.021 20.5766C10.0972 20.7145 10.2423 20.8 10.4001 20.8C10.558 20.8 10.7031 20.7145 10.7793 20.5766L16.5032 10.2248C17.0466 9.21891 17.3335 8.08096 17.3335 6.93331C17.3335 3.11037 14.2231 0 10.4001 0ZM10.4001 10.4C8.48866 10.4 6.93349 8.84483 6.93349 6.93335C6.93349 5.02186 8.48866 3.46669 10.4001 3.46669C12.3116 3.46669 13.8668 5.02186 13.8668 6.93335C13.8668 8.84483 12.3116 10.4 10.4001 10.4Z" fill="#060613"/>
</g>
<defs>
<clipPath id="clip0">
<rect width="20.8" height="20.8" fill="white"/>
</clipPath>
</defs>
</svg>
