<svg width="253" height="56" viewBox="0 0 253 56" fill="none" xmlns="http://www.w3.org/2000/svg">
<path d="M71.179 48.3635C65.8215 48.3635 62.923 46.2099 62.4834 41.9026H63.967C64.2692 45.3379 66.6183 47.0555 71.0142 47.0555C73.6792 47.0555 75.5612 46.5402 76.6602 45.5096C77.7591 44.4526 78.3086 42.6822 78.3086 40.1982V21.2119H79.7922V40.4361C79.7922 45.721 76.9212 48.3635 71.179 48.3635Z" fill="white"/>
<path d="M98.8867 48.3635C94.3534 48.3635 90.8092 47.148 88.2541 44.7169C85.699 42.2858 84.4214 38.9298 84.4214 34.649C84.4214 30.421 85.699 27.1443 88.2541 24.8189C90.8367 22.4935 94.3809 21.3308 98.8867 21.3308C103.392 21.3308 106.937 22.4935 109.519 24.8189C112.129 27.1443 113.434 30.421 113.434 34.649C113.434 38.9563 112.129 42.3254 109.519 44.7565C106.909 47.1612 103.365 48.3635 98.8867 48.3635ZM98.8867 22.6389C94.8205 22.6389 91.6335 23.6959 89.3256 25.8099C87.0452 27.8974 85.9051 30.8438 85.9051 34.649C85.9051 38.4542 87.059 41.4798 89.3668 43.726C91.6747 45.9457 94.848 47.0555 98.8867 47.0555C102.98 47.0555 106.181 45.9589 108.489 43.7656C110.797 41.5459 111.951 38.507 111.951 34.649C111.951 30.791 110.769 27.8049 108.407 25.6909C106.126 23.6562 102.953 22.6389 98.8867 22.6389Z" fill="white"/>
<path d="M130.489 48.0861H117.425V21.2119H131.025C133.58 21.2119 135.668 21.7404 137.289 22.7974C139.13 24.013 140.05 25.7966 140.05 28.1485C140.05 30.9495 138.306 32.9049 134.816 34.0148C138.91 34.8604 140.957 37.1065 140.957 40.7532C140.957 43.3164 139.817 45.2454 137.536 46.5402C135.723 47.5708 133.374 48.0861 130.489 48.0861ZM130.942 22.5199H118.909V33.4202H130.901C132.989 33.4202 134.72 33.0106 136.094 32.1915C137.742 31.2402 138.567 29.8264 138.567 27.9503C138.567 26.0741 137.742 24.6604 136.094 23.7091C134.748 22.9163 133.031 22.5199 130.942 22.5199ZM130.819 34.7283H118.909V46.778H130.984C133.292 46.778 135.215 46.342 136.753 45.47C138.594 44.413 139.514 42.8539 139.514 40.7928C139.514 38.6259 138.567 37.0272 136.671 35.9967C135.187 35.1511 133.237 34.7283 130.819 34.7283Z" fill="white"/>
<path d="M165.832 46.5006C163.799 47.5576 161.244 48.0861 158.167 48.0861H143.866V21.2119H158.703C161.478 21.2119 163.785 21.7668 165.626 22.8767C167.852 24.1979 168.964 26.127 168.964 28.6637C168.964 30.8042 167.879 32.5482 165.709 33.8959C168.483 35.1643 169.871 37.2783 169.871 40.2379C169.871 43.0389 168.525 45.1265 165.832 46.5006ZM163.236 25.6513C162.054 24.9907 160.516 24.6604 158.62 24.6604H147.823V32.3897H158.579C160.475 32.3897 162.013 32.0594 163.195 31.3987C164.404 30.7381 165.008 29.7736 165.008 28.5052C165.008 27.2368 164.417 26.2855 163.236 25.6513ZM163.895 36.948C162.549 36.2345 160.749 35.8778 158.497 35.8778H147.823V44.6376H158.661C160.777 44.6376 162.48 44.2809 163.772 43.5674C165.228 42.8011 165.956 41.7045 165.956 40.2775C165.956 38.7713 165.269 37.6614 163.895 36.948Z" fill="white"/>
<path d="M198.167 44.6773C195.337 47.1348 191.504 48.3635 186.669 48.3635C181.806 48.3635 177.959 47.148 175.13 44.7169C172.327 42.2594 170.926 38.9166 170.926 34.6886C170.926 30.4606 172.368 27.1575 175.253 24.7793C178.028 22.4803 181.833 21.3308 186.669 21.3308C191.504 21.3308 195.323 22.4803 198.126 24.7793C201.01 27.1575 202.453 30.4606 202.453 34.6886C202.453 38.8902 201.024 42.2197 198.167 44.6773ZM195.406 27.3557C193.345 25.6381 190.433 24.7793 186.669 24.7793C182.905 24.7793 180.006 25.6381 177.973 27.3557C175.94 29.0733 174.924 31.5176 174.924 34.6886C174.924 37.8596 175.954 40.3568 178.014 42.1801C180.075 44.0034 182.96 44.9151 186.669 44.9151C190.433 44.9151 193.345 44.0166 195.406 42.2197C197.466 40.3964 198.497 37.886 198.497 34.6886C198.497 31.4912 197.466 29.0469 195.406 27.3557Z" fill="white"/>
<path d="M226.555 48.0861L216.005 36.9876L205.331 48.0861H200.179L213.367 34.2923L200.798 21.2119H206.031L216.005 31.6366L226.06 21.2119H231.253L218.642 34.2923L231.665 48.0861H226.555Z" fill="white"/>
<path d="M240.471 12.3675V18.9308H239.449V12.3675H236.681V11.4014H243.229V12.3675H240.471Z" fill="white"/>
<path d="M250.979 18.9308V13.6224L248.222 18.9308H247.487L244.729 13.6224V18.9308H243.707V11.4014H244.708L247.849 17.4538L251.001 11.4014H252.001V18.9308H250.979Z" fill="white"/>
<path d="M21.7018 19.2949L19.5186 30.7729L21.7018 56.0009L43.4007 51.5304V23.5656L21.7018 19.2949Z" fill="white"/>
<path d="M0.00488281 23.5656V52.0009L21.7038 56.0009V19.2949L0.00488281 23.5656Z" fill="#D9D8F3"/>
<path d="M20.0684 0H23.343V10.9566H20.0684V0Z" fill="#00E75E"/>
<path d="M4.66797 5.0127L7.50411 3.37259L12.9731 12.86L10.1369 14.5001L4.66797 5.0127Z" fill="#00E75E"/>
<path d="M30.4365 12.8633L35.9034 3.37469L38.7391 5.01542L33.2723 14.504L30.4365 12.8633Z" fill="#00E75E"/>
<path d="M27.5225 39.2949L27.5225 33.4125L38.0013 31.0596L38.0013 37.1772L27.5225 39.2949Z" fill="#8D8ADB"/>
<path d="M27.5225 48.2363L27.5225 42.3539L38.0013 40.001L38.0013 46.1187L27.5225 48.2363Z" fill="#8D8ADB"/>
<path d="M15.8818 48.2352V33.3332L5.19507 31.2939V46.3528L15.8818 48.2352Z" fill="#6763CF"/>
<path d="M21.7017 28.0008L0 23.562L21.6926 19.2949L43.4052 23.5508L21.7017 28.0008Z" fill="#6763CF"/>
<path d="M43.4098 23.5508L21.7044 28.0008L21.6953 19.2949L43.4098 23.5508Z" fill="#8D8ADB"/>
</svg>
