<svg width="141" height="32" viewBox="0 0 141 32" fill="none" xmlns="http://www.w3.org/2000/svg">
<path d="M39.8263 27.0609C36.8287 27.0609 35.2069 25.8559 34.9609 23.4459H35.7911C35.9601 25.368 37.2745 26.329 39.7341 26.329C41.2252 26.329 42.2782 26.0407 42.8931 25.4641C43.508 24.8727 43.8155 23.8821 43.8155 22.4923V11.869H44.6456V22.6253C44.6456 25.5824 43.0392 27.0609 39.8263 27.0609Z" fill="white"/>
<path d="M55.3293 27.0609C52.7929 27.0609 50.8098 26.3808 49.3802 25.0205C47.9506 23.6603 47.2357 21.7826 47.2357 19.3873C47.2357 17.0217 47.9506 15.1883 49.3802 13.8872C50.8252 12.5861 52.8083 11.9356 55.3293 11.9356C57.8504 11.9356 59.8335 12.5861 61.2785 13.8872C62.7389 15.1883 63.4691 17.0217 63.4691 19.3873C63.4691 21.7974 62.7389 23.6825 61.2785 25.0427C59.8181 26.3882 57.8351 27.0609 55.3293 27.0609ZM55.3293 12.6674C53.0542 12.6674 51.271 13.2588 49.9797 14.4417C48.7038 15.6097 48.0658 17.2583 48.0658 19.3873C48.0658 21.5164 48.7115 23.2093 50.0028 24.4661C51.2941 25.7081 53.0696 26.329 55.3293 26.329C57.6198 26.329 59.4107 25.7155 60.702 24.4883C61.9933 23.2463 62.639 21.546 62.639 19.3873C62.639 17.2287 61.9779 15.558 60.6559 14.3751C59.38 13.2367 57.6045 12.6674 55.3293 12.6674Z" fill="white"/>
<path d="M73.0116 26.9057H65.702V11.869H73.3113C74.741 11.869 75.9093 12.1647 76.8163 12.7561C77.8462 13.4363 78.3612 14.4343 78.3612 15.7502C78.3612 17.3174 77.385 18.4115 75.4327 19.0325C77.7232 19.5056 78.8685 20.7624 78.8685 22.8028C78.8685 24.2369 78.2305 25.3163 76.9546 26.0407C75.94 26.6174 74.6257 26.9057 73.0116 26.9057ZM73.2652 12.6009H66.5321V18.6998H73.2422C74.4105 18.6998 75.3789 18.4707 76.1476 18.0123C77.0699 17.48 77.5311 16.689 77.5311 15.6393C77.5311 14.5895 77.0699 13.7985 76.1476 13.2662C75.3943 12.8227 74.4335 12.6009 73.2652 12.6009ZM73.1961 19.4317H66.5321V26.1738H73.2883C74.5796 26.1738 75.6556 25.9298 76.5165 25.4419C77.5465 24.8505 78.0614 23.9782 78.0614 22.8249C78.0614 21.6125 77.5311 20.718 76.4704 20.1414C75.6403 19.6683 74.5488 19.4317 73.1961 19.4317Z" fill="white"/>
<path d="M92.7868 26.0186C91.6492 26.61 90.2196 26.9057 88.4978 26.9057H80.4965V11.869H88.7976C90.3502 11.869 91.6415 12.1795 92.6715 12.8005C93.9166 13.5398 94.5392 14.6191 94.5392 16.0385C94.5392 17.2361 93.932 18.2119 92.7176 18.966C94.2702 19.6757 95.0465 20.8585 95.0465 22.5144C95.0465 24.0817 94.2933 25.2497 92.7868 26.0186ZM91.3341 14.3529C90.673 13.9833 89.8122 13.7985 88.7515 13.7985H82.7101V18.1232H88.7284C89.7891 18.1232 90.65 17.9384 91.311 17.5688C91.9874 17.1991 92.3256 16.6595 92.3256 15.9498C92.3256 15.2401 91.9951 14.7078 91.3341 14.3529ZM91.703 20.6737C90.9498 20.2745 89.9429 20.0749 88.6823 20.0749H82.7101V24.9762H88.7745C89.9582 24.9762 90.9113 24.7766 91.6338 24.3774C92.4486 23.9486 92.8559 23.335 92.8559 22.5366C92.8559 21.6939 92.4716 21.0729 91.703 20.6737Z" fill="white"/>
<path d="M110.879 24.9984C109.295 26.3734 107.151 27.0609 104.445 27.0609C101.724 27.0609 99.5722 26.3808 97.9888 25.0205C96.4208 23.6455 95.6369 21.7752 95.6369 19.4095C95.6369 17.0439 96.4439 15.1957 98.058 13.865C99.6106 12.5787 101.74 11.9356 104.445 11.9356C107.151 11.9356 109.288 12.5787 110.856 13.865C112.47 15.1957 113.277 17.0439 113.277 19.4095C113.277 21.7604 112.477 23.6233 110.879 24.9984ZM109.334 15.3066C108.181 14.3456 106.551 13.865 104.445 13.865C102.339 13.865 100.717 14.3456 99.5799 15.3066C98.4423 16.2676 97.8735 17.6353 97.8735 19.4095C97.8735 21.1838 98.45 22.581 99.603 23.6012C100.756 24.6213 102.37 25.1314 104.445 25.1314C106.551 25.1314 108.181 24.6287 109.334 23.6233C110.487 22.6032 111.063 21.1985 111.063 19.4095C111.063 17.6205 110.487 16.2529 109.334 15.3066Z" fill="white"/>
<path d="M126.762 26.9057L120.859 20.6958L114.887 26.9057H112.005L119.384 19.1877L112.351 11.869H115.279L120.859 17.7018L126.486 11.869H129.391L122.335 19.1877L129.622 26.9057H126.762Z" fill="white"/>
<path d="M134.549 6.92035V10.5926H133.977V6.92035H132.428V6.37976H136.092V6.92035H134.549Z" fill="white"/>
<path d="M140.428 10.5926V7.6225L138.885 10.5926H138.474L136.931 7.6225V10.5926H136.359V6.37976H136.919L138.677 9.76622L140.44 6.37976H141V10.5926H140.428Z" fill="white"/>
<path d="M12.1424 10.7959L10.9209 17.2181L12.1424 31.3337L24.2834 28.8323V13.1854L12.1424 10.7959Z" fill="white"/>
<path d="M0.00292969 13.1854V29.0956L12.1439 31.3337V10.7959L0.00292969 13.1854Z" fill="#D9D8F3"/>
<path d="M11.2285 0.00012207H13.0607V6.13056H11.2285V0.00012207Z" fill="#00E75E"/>
<path d="M2.61133 2.80481L4.19821 1.88713L7.25821 7.19553L5.67133 8.1132L2.61133 2.80481Z" fill="#00E75E"/>
<path d="M17.0293 7.19739L20.0881 1.88832L21.6748 2.80635L18.616 8.11541L17.0293 7.19739Z" fill="#00E75E"/>
<path d="M15.3994 21.9864L15.3994 18.6951L21.2625 17.3785L21.2625 20.8015L15.3994 21.9864Z" fill="#8D8ADB"/>
<path d="M15.3994 26.9893L15.3994 23.698L21.2625 22.3815L21.2625 25.8044L15.3994 26.9893Z" fill="#8D8ADB"/>
<path d="M8.88574 26.9886V18.6506L2.90627 17.5096V25.9354L8.88574 26.9886Z" fill="#6763CF"/>
<path d="M12.1426 15.667L0 13.1834L12.1375 10.7959L24.2861 13.1771L12.1426 15.667Z" fill="#6763CF"/>
<path d="M24.2884 13.1772L12.1438 15.667L12.1387 10.7959L24.2884 13.1772Z" fill="#8D8ADB"/>
</svg>
