<svg width="109" height="27" viewBox="0 0 109 27" fill="none" xmlns="http://www.w3.org/2000/svg">
<path d="M33.4908 23.3181C30.97 23.3181 29.6062 22.2797 29.3994 20.2029H30.0975C30.2397 21.8592 31.3449 22.6874 33.4132 22.6874C34.6671 22.6874 35.5526 22.4389 36.0697 21.9421C36.5867 21.4324 36.8453 20.5788 36.8453 19.3812V10.2269H37.5433V19.4958C37.5433 22.044 36.1925 23.3181 33.4908 23.3181Z" fill="#201E61"/>
<path d="M46.5274 23.3181C44.3944 23.3181 42.7269 22.732 41.5247 21.5598C40.3225 20.3877 39.7214 18.7696 39.7214 16.7056C39.7214 14.6671 40.3225 13.0872 41.5247 11.966C42.7398 10.8449 44.4074 10.2843 46.5274 10.2843C48.6474 10.2843 50.3149 10.8449 51.5301 11.966C52.7581 13.0872 53.3721 14.6671 53.3721 16.7056C53.3721 18.7823 52.7581 20.4068 51.5301 21.5789C50.302 22.7383 48.6344 23.3181 46.5274 23.3181ZM46.5274 10.9149C44.6142 10.9149 43.1147 11.4246 42.0288 12.4438C40.9559 13.4503 40.4194 14.8709 40.4194 16.7056C40.4194 18.5403 40.9624 19.9991 42.0482 21.0821C43.1341 22.1523 44.6271 22.6874 46.5274 22.6874C48.4535 22.6874 49.9594 22.1586 51.0453 21.1012C52.1312 20.0309 52.6741 18.5658 52.6741 16.7056C52.6741 14.8455 52.1182 13.4057 51.0065 12.3865C49.9336 11.4054 48.4405 10.9149 46.5274 10.9149Z" fill="#201E61"/>
<path d="M61.3965 23.1843H55.2498V10.2269H61.6486C62.8508 10.2269 63.8332 10.4817 64.5959 10.9914C65.462 11.5774 65.8951 12.4374 65.8951 13.5714C65.8951 14.9219 65.0742 15.8647 63.4325 16.3998C65.3586 16.8075 66.3216 17.8905 66.3216 19.6487C66.3216 20.8846 65.7852 21.8146 64.7123 22.4389C63.8591 22.9358 62.7538 23.1843 61.3965 23.1843ZM61.6098 10.8576H55.9479V16.1132H61.5904C62.5729 16.1132 63.3873 15.9157 64.0336 15.5207C64.8092 15.062 65.197 14.3804 65.197 13.4758C65.197 12.5712 64.8092 11.8896 64.0336 11.4309C63.4002 11.0487 62.5923 10.8576 61.6098 10.8576ZM61.5516 16.7438H55.9479V22.5536H61.6292C62.7151 22.5536 63.6199 22.3434 64.3438 21.9229C65.2099 21.4133 65.643 20.6616 65.643 19.6678C65.643 18.6231 65.197 17.8523 64.3051 17.3554C63.607 16.9477 62.6892 16.7438 61.5516 16.7438Z" fill="#201E61"/>
<path d="M78.0256 22.4198C77.069 22.9295 75.8669 23.1843 74.419 23.1843H67.6906V10.2269H74.6711C75.9767 10.2269 77.0626 10.4945 77.9287 11.0296C78.9758 11.6666 79.4993 12.5967 79.4993 13.8198C79.4993 14.8518 78.9887 15.6927 77.9675 16.3425C79.2731 16.954 79.9259 17.9733 79.9259 19.4003C79.9259 20.7508 79.2925 21.7573 78.0256 22.4198ZM76.804 12.3674C76.2482 12.0489 75.5243 11.8896 74.6323 11.8896H69.5521V15.6163H74.6129C75.5049 15.6163 76.2288 15.457 76.7847 15.1385C77.3534 14.82 77.6378 14.3549 77.6378 13.7434C77.6378 13.1318 77.3599 12.6732 76.804 12.3674ZM77.1143 17.814C76.4809 17.47 75.6342 17.298 74.5742 17.298H69.5521V21.5216H74.6517C75.6471 21.5216 76.4486 21.3496 77.0561 21.0056C77.7412 20.6361 78.0838 20.1074 78.0838 19.4194C78.0838 18.6932 77.7606 18.158 77.1143 17.814Z" fill="#201E61"/>
<path d="M93.2393 21.5407C91.9078 22.7256 90.1045 23.3181 87.8294 23.3181C85.5413 23.3181 83.7316 22.732 82.4001 21.5598C81.0816 20.3749 80.4223 18.7632 80.4223 16.7247C80.4223 14.6862 81.101 13.0936 82.4583 11.9469C83.7639 10.8385 85.5543 10.2843 87.8294 10.2843C90.1045 10.2843 91.9013 10.8385 93.2199 11.9469C94.5772 13.0936 95.2559 14.6862 95.2559 16.7247C95.2559 18.7505 94.5837 20.3558 93.2393 21.5407ZM91.9401 13.1892C90.9706 12.361 89.6004 11.9469 87.8294 11.9469C86.0584 11.9469 84.6946 12.361 83.738 13.1892C82.7814 14.0173 82.3032 15.1958 82.3032 16.7247C82.3032 18.2536 82.7879 19.4576 83.7574 20.3367C84.7269 21.2158 86.0843 21.6554 87.8294 21.6554C89.6004 21.6554 90.9706 21.2222 91.9401 20.3558C92.9096 19.4767 93.3944 18.2663 93.3944 16.7247C93.3944 15.1831 92.9096 14.0046 91.9401 13.1892Z" fill="#201E61"/>
<path d="M106.596 23.1843L101.632 17.8332L96.61 23.1843H94.1862L100.391 16.5336L94.4771 10.2269H96.9396L101.632 15.2532L106.363 10.2269H108.806L102.873 16.5336L109 23.1843H106.596Z" fill="#201E61"/>
<path d="M10.2118 9.30237L9.18457 14.8365L10.2118 27.0001L20.4212 24.8447V11.3615L10.2118 9.30237Z" fill="#0F0E2D"/>
<path d="M0.00195312 11.3615V25.0715L10.2114 27.0001V9.30237L0.00195312 11.3615Z" fill="#201E61"/>
<path d="M9.44238 0H10.9831V5.2827H9.44238V0Z" fill="#00E75E"/>
<path d="M2.19629 2.41736L3.52992 1.6252L6.09858 6.20219L4.76495 6.99436L2.19629 2.41736Z" fill="#00E75E"/>
<path d="M14.3203 6.20178L16.8925 1.62687L18.2267 2.41795L15.6546 6.99286L14.3203 6.20178Z" fill="#00E75E"/>
<path d="M12.9502 18.9456L12.9502 16.1094L17.8805 14.975L17.8805 17.9246L12.9502 18.9456Z" fill="#2D2A88"/>
<path d="M12.9502 23.2564L12.9502 20.4202L17.8805 19.2858L17.8805 22.2354L12.9502 23.2564Z" fill="#2D2A88"/>
<path d="M7.47363 23.2565V16.0715L2.44544 15.0883V22.3489L7.47363 23.2565Z" fill="#3A36AF"/>
<path d="M10.2108 13.4999L0 11.3597L10.2065 9.30237L20.4224 11.3543L10.2108 13.4999Z" fill="#3A36AF"/>
<path d="M20.4248 11.3543L10.2123 13.4999L10.208 9.30237L20.4248 11.3543Z" fill="#2D2A88"/>
</svg>
