<svg width="64" height="64" viewBox="0 0 64 64" fill="none" xmlns="http://www.w3.org/2000/svg">
<path d="M27.5332 4.26006C30.2803 1.51292 33.9328 0 37.818 0C45.8383 0 52.3636 6.52488 52.3638 14.545V43.6364C52.3634 54.8649 43.2283 64 32.0002 64C26.5608 64.0002 21.447 61.882 17.6008 58.0358C13.7546 54.1894 11.6364 49.0756 11.6366 43.6362L11.6362 14.5452C11.6362 12.9386 12.9387 11.6361 14.5453 11.6361C16.1519 11.6361 17.4544 12.9384 17.4544 14.5452L17.4548 43.6362C17.4548 47.5216 18.9677 51.1744 21.715 53.9216C24.4622 56.6689 28.115 58.1816 32.0002 58.1816C40.0203 58.1816 46.5452 51.6564 46.5456 43.636V14.5448C46.5454 9.73282 42.6304 5.81797 37.818 5.81797C35.487 5.81797 33.2957 6.7256 31.6472 8.37408C29.9989 10.0224 29.0909 12.2141 29.0909 14.5452V30.3277H23.2728V14.5452C23.2729 10.66 24.7859 7.0074 27.5332 4.26006Z" fill="#00CC53"/>
</svg>
