<svg width="42" height="41" viewBox="0 0 42 41" fill="none" xmlns="http://www.w3.org/2000/svg">
<path d="M37.6364 0H2.1818C0.981784 0 0 0.976168 0 2.16932V6.07406C0 7.26722 0.981784 8.24338 2.1818 8.24338H37.5273C38.7273 8.24338 39.7091 7.26722 39.7091 6.07406V2.16932C39.8182 0.976168 38.8363 0 37.6364 0ZM37.6364 21.8016H2.1818C0.981784 21.8016 0 22.7777 0 23.9709V27.8756C0 29.0688 0.981784 30.045 2.1818 30.045H37.5273C38.7273 30.045 39.7091 29.0688 39.7091 27.8756V23.9709C39.8182 22.7777 38.8363 21.8016 37.6364 21.8016ZM22.1455 32.7566H2.1818C0.981784 32.7566 0 33.7328 0 34.9259V38.8307C0 40.0238 0.981784 41 2.1818 41H22.1455C23.3455 41 24.3273 40.0238 24.3273 38.8307V34.9259C24.3273 33.7328 23.3455 32.7566 22.1455 32.7566ZM39.8182 10.955H2.1818C0.981784 10.955 0 11.9312 0 13.1243V17.0291C0 18.2222 0.981784 19.1984 2.1818 19.1984H39.8182C41.0182 19.1984 42 18.2222 42 17.0291V13.1243C42 11.9312 41.0182 10.955 39.8182 10.955Z" fill="#B1B1B1"/>
</svg>
