<svg width="38" height="40" viewBox="0 0 38 40" fill="none" xmlns="http://www.w3.org/2000/svg">
<path fill-rule="evenodd" clip-rule="evenodd" d="M3.85262 11.0231L3.91905 10.7591L3.98549 10.429L6.90857 0L37.9995 0.0660066L3.65332 27.8548L19.3316 9.0429H7.5729L6.90857 9.10891C5.51346 9.17492 4.25122 10.033 3.85262 11.0231Z" fill="#B1B1B1"/>
<path fill-rule="evenodd" clip-rule="evenodd" d="M36.3396 19.0759C36.3396 18.9439 35.3431 24.9505 33.6823 31.1551L1.19629 31.3532L36.2732 3.16833L20.5285 22.1122H32.3536L33.018 22.0462C34.4131 21.9802 35.8746 20.066 36.3396 19.0759Z" fill="#B1B1B1"/>
<path fill-rule="evenodd" clip-rule="evenodd" d="M5.51399 40H0L3.78671 34.8515H1.26224L1.46154 33.3994H6.70979L2.92308 38.5479H5.71329L5.51399 40ZM6.57692 40L7.44056 33.3994H11.2273L11.028 34.8515H8.9021L8.76923 35.9736H10.7622L10.6294 37.4258H8.56993L8.43706 38.5479H10.5629L10.3636 40H6.57692ZM11.493 40L12.3566 33.3994H14.0175L15.9441 36.8317L16.0769 37.2277L16.3427 37.9538C16.3466 37.535 16.3688 37.1166 16.4091 36.6997L16.8077 33.3994H18.4685L17.6049 40H16.0105L14.0839 36.6337L13.8846 36.1716L13.6189 35.4456C13.6155 35.8863 13.5933 36.3268 13.5524 36.7657L13.1538 40H11.493ZM19 40L19.8636 33.3994H21.5909L20.7273 40H19ZM22.986 40L23.6503 34.9835H22.2552L22.4545 33.3994H26.972L26.7727 34.9835H25.3776L24.7133 40H22.986ZM26.9056 40L27.7692 33.3994H29.4965L29.1643 35.9736H31.4231L31.7552 33.3994H33.4825L32.6189 40H30.8916L31.2238 37.2938H28.965L28.6329 40H26.9056Z" fill="#B1B1B1"/>
</svg>
